{"glyphs":{"0":{"ha":823,"x_min":77,"x_max":746,"o":"m 403 -11 q 225 36 297 -11 q 115 186 154 82 q 77 454 77 290 q 116 717 77 610 q 232 881 155 825 q 415 937 308 937 q 664 823 582 937 q 746 475 746 709 q 659 112 746 235 q 403 -11 572 -11 m 283 474 q 296 237 283 325 q 338 107 309 149 q 414 65 366 65 q 459 78 439 65 q 493 117 478 90 q 519 188 509 144 q 535 299 530 233 q 540 446 540 365 q 531 650 540 568 q 505 778 522 733 q 465 842 488 823 q 411 861 441 861 q 350 837 375 861 q 311 765 326 813 q 289 644 296 717 q 283 474 283 572 z "},"1":{"ha":823,"x_min":107,"x_max":733,"o":"m 544 189 q 548 130 544 150 q 564 97 553 110 q 596 78 575 85 q 649 67 617 71 q 733 62 681 63 l 733 0 l 148 0 l 148 62 q 255 71 223 65 q 304 88 288 77 q 329 121 321 100 q 337 189 337 142 l 337 680 q 327 720 337 707 q 298 732 316 732 q 250 716 281 732 q 149 652 219 701 l 107 724 l 461 937 l 548 937 q 544 756 544 871 l 544 189 z "},"2":{"ha":823,"x_min":73,"x_max":710,"o":"m 511 166 q 577 173 555 166 q 611 195 599 179 q 632 243 624 211 l 710 243 l 694 0 l 73 0 l 73 45 q 156 186 102 110 q 287 354 210 263 q 398 496 360 440 q 456 601 437 551 q 475 703 475 650 q 441 820 475 778 q 351 863 408 863 q 261 824 296 863 q 209 703 225 786 l 87 703 l 87 863 q 216 910 170 897 q 309 930 263 923 q 408 937 355 937 q 571 910 508 937 q 662 837 634 883 q 690 730 690 791 q 670 631 690 677 q 601 526 650 585 q 435 357 552 467 q 338 254 383 306 q 271 173 292 202 l 271 166 l 511 166 z "},"3":{"ha":823,"x_min":86,"x_max":709,"o":"m 99 703 l 99 863 q 410 937 271 937 q 558 913 494 937 q 657 846 622 890 q 692 739 692 802 q 669 637 692 681 q 604 561 646 593 q 496 497 562 528 l 496 491 q 603 452 555 481 q 681 374 652 422 q 709 260 709 325 q 671 120 709 182 q 555 24 633 59 q 366 -11 477 -11 q 215 3 289 -11 q 86 42 141 17 l 86 212 l 208 212 q 264 100 228 135 q 358 65 300 65 q 502 243 502 65 q 451 385 502 338 q 298 432 401 432 l 244 432 l 244 509 q 423 565 362 514 q 484 711 484 615 q 454 824 484 786 q 365 863 423 863 q 303 848 332 863 q 253 797 275 833 q 221 703 231 761 l 99 703 z "},"4":{"ha":823,"x_min":35,"x_max":781,"o":"m 326 45 q 365 59 351 52 q 387 80 380 67 q 397 115 395 94 q 399 168 399 136 l 399 269 l 35 269 l 35 342 l 447 930 l 600 930 l 600 354 l 621 354 q 667 358 654 354 q 691 375 681 363 q 709 418 701 387 l 781 418 l 772 269 l 600 269 l 600 168 q 603 110 600 132 q 614 76 606 89 q 637 57 623 64 q 673 45 651 51 l 673 0 l 326 0 l 326 45 m 167 354 l 399 354 l 399 509 q 406 715 399 607 l 399 715 l 167 366 l 167 354 z "},"5":{"ha":823,"x_min":106,"x_max":732,"o":"m 106 42 l 106 212 l 229 212 q 283 101 246 138 q 380 65 321 65 q 489 111 454 65 q 524 252 524 157 q 479 396 524 347 q 347 446 433 446 q 276 439 314 446 q 208 425 237 433 l 146 463 l 146 926 l 547 926 q 584 929 572 926 q 603 941 595 932 q 619 970 610 949 l 694 970 l 680 754 l 264 754 l 264 510 q 347 528 304 522 q 451 534 389 534 q 598 503 535 534 q 697 412 662 471 q 732 273 732 353 q 690 116 732 179 q 568 21 648 52 q 378 -11 489 -11 q 233 3 307 -11 q 106 42 159 18 z "},"6":{"ha":823,"x_min":75,"x_max":760,"o":"m 646 890 l 646 848 q 405 756 497 844 q 282 503 313 667 l 289 500 q 395 553 342 536 q 513 570 449 570 q 647 536 591 570 q 731 439 703 502 q 760 294 760 377 q 722 135 760 204 q 605 28 684 66 q 411 -11 526 -11 q 230 31 306 -11 q 115 155 155 73 q 75 355 75 237 q 141 642 75 513 q 331 848 208 770 q 609 937 454 926 l 646 890 m 433 477 q 370 467 399 477 q 319 440 341 457 q 289 413 296 424 q 277 383 281 403 q 274 314 274 363 q 309 127 274 190 q 414 65 343 65 q 483 81 455 65 q 527 124 510 96 q 551 192 544 153 q 559 280 559 232 q 527 427 559 377 q 433 477 494 477 z "},"7":{"ha":823,"x_min":85,"x_max":753,"o":"m 753 881 l 376 -2 l 237 -2 l 237 45 l 578 734 l 578 745 l 276 745 q 228 740 246 745 q 198 725 210 735 q 179 697 186 714 q 164 644 172 680 l 85 644 l 103 926 l 753 926 l 753 881 z "},"8":{"ha":823,"x_min":65,"x_max":758,"o":"m 597 489 l 599 480 q 718 392 677 450 q 758 254 758 334 q 715 114 758 174 q 592 21 673 54 q 404 -12 512 -12 q 225 19 302 -12 q 107 107 149 49 q 65 243 65 165 q 86 345 65 301 q 143 418 108 389 q 227 469 178 447 l 226 478 q 76 694 76 543 q 119 819 76 764 q 241 905 162 874 q 418 937 321 937 q 667 876 583 937 q 751 705 751 816 q 713 577 751 632 q 597 489 675 522 m 279 700 q 314 564 279 611 q 416 517 349 517 q 515 561 482 517 q 548 688 548 606 q 514 816 548 772 q 415 861 479 861 q 314 820 348 861 q 279 700 279 779 m 271 260 q 307 114 271 163 q 413 65 342 65 q 488 85 457 65 q 535 148 519 106 q 552 248 552 190 q 535 352 552 308 q 486 419 518 395 q 412 443 454 443 q 330 419 361 443 q 285 354 298 395 q 271 260 271 313 z "},"9":{"ha":823,"x_min":63,"x_max":748,"o":"m 221 29 l 221 78 q 298 86 265 79 q 373 112 338 94 q 434 157 408 130 q 488 230 467 189 q 523 319 510 271 q 541 421 535 368 l 534 424 q 432 372 482 388 q 311 355 381 355 q 175 390 231 355 q 91 485 119 424 q 63 629 63 547 q 105 790 63 719 q 227 899 148 861 q 415 937 307 937 q 599 891 524 937 q 711 760 674 846 q 748 552 748 674 q 690 260 748 382 q 523 69 633 138 q 256 -11 412 1 l 221 29 m 389 448 q 436 453 414 448 q 477 468 458 458 q 513 491 496 477 q 535 514 530 505 q 544 540 541 523 q 548 586 548 557 q 512 790 548 719 q 408 861 477 861 q 341 845 368 861 q 296 801 313 829 q 271 733 279 772 q 264 646 264 693 q 389 448 264 448 z "},"\u0000":{"ha":0,"x_min":0,"x_max":0,"o":""},"\t":{"ha":306,"x_min":0,"x_max":0,"o":""},"A":{"ha":905,"x_min":-5,"x_max":891,"o":"m 547 287 l 258 287 l 235 222 q 220 170 226 195 q 214 116 214 144 q 284 45 214 50 l 284 0 l -5 0 l -5 45 q 39 62 20 47 q 73 103 58 77 q 106 177 89 129 l 389 930 l 570 930 l 794 171 q 819 99 809 120 q 846 64 829 77 q 891 45 862 51 l 891 0 l 517 0 l 517 45 q 569 64 552 49 q 586 109 586 80 q 581 155 586 130 q 566 220 576 181 l 547 287 m 283 366 l 528 366 l 419 748 l 283 366 z "},"B":{"ha":905,"x_min":65,"x_max":844,"o":"m 649 485 q 794 398 744 455 q 844 262 844 342 q 821 144 844 195 q 752 62 798 94 q 643 15 705 30 q 483 0 580 0 l 65 0 l 65 45 q 105 59 90 52 q 126 81 119 67 q 136 116 134 95 q 138 170 138 138 l 138 755 q 136 808 138 787 q 127 844 134 830 q 105 866 120 857 q 65 881 91 874 l 65 926 l 509 926 q 633 918 585 926 q 744 883 697 908 q 810 819 786 861 q 833 721 833 778 q 649 491 833 568 l 649 485 m 438 520 q 545 540 506 520 q 603 596 583 559 q 623 696 623 632 q 602 785 623 752 q 540 832 580 818 q 440 846 500 846 q 348 843 393 846 l 348 520 l 438 520 m 348 81 q 440 79 388 79 q 546 95 505 79 q 611 151 588 111 q 634 260 634 191 q 622 343 634 309 q 585 400 610 378 q 527 431 561 421 q 442 441 493 441 l 348 441 l 348 81 z "},"C":{"ha":796,"x_min":70,"x_max":739,"o":"m 739 905 l 739 708 l 646 708 q 595 821 630 785 q 503 857 559 857 q 340 754 395 857 q 286 450 286 652 q 336 165 286 262 q 483 68 386 68 q 564 85 532 68 q 613 135 595 102 q 646 229 632 168 l 739 229 l 739 23 q 602 -3 664 5 q 474 -11 541 -11 q 244 40 333 -11 q 112 194 155 91 q 70 454 70 296 q 120 710 70 601 q 267 878 170 819 q 498 937 363 937 q 623 929 567 937 q 739 905 678 922 z "},"D":{"ha":979,"x_min":65,"x_max":909,"o":"m 418 926 q 607 908 531 926 q 742 852 683 890 q 837 762 801 814 q 891 640 873 709 q 909 483 909 570 q 884 293 909 377 q 810 149 859 209 q 702 61 766 96 q 554 12 637 26 q 373 0 482 0 l 65 0 l 65 45 q 105 59 90 52 q 126 81 119 67 q 136 116 134 95 q 138 170 138 138 l 138 755 q 136 808 138 787 q 127 844 134 830 q 105 866 120 857 q 65 881 91 874 l 65 926 l 418 926 m 348 82 q 410 80 360 80 q 535 102 484 80 q 600 146 573 118 q 666 268 644 193 q 690 467 690 349 q 656 681 690 595 q 558 806 621 766 q 408 846 496 846 q 348 845 366 846 l 348 82 z "},"E":{"ha":802,"x_min":65,"x_max":745,"o":"m 738 926 l 738 710 l 645 710 q 607 797 623 774 q 570 833 591 820 q 496 846 548 846 l 348 846 l 348 521 l 437 521 q 484 529 467 521 q 512 557 501 538 q 534 618 524 577 l 610 618 l 610 343 l 534 343 q 513 403 524 382 q 485 433 501 424 q 437 441 469 441 l 348 441 l 348 79 l 495 79 q 535 82 519 79 q 564 93 551 85 q 589 113 577 100 q 610 141 601 126 q 629 180 619 156 q 652 248 640 205 l 745 248 l 732 0 l 65 0 l 65 45 q 105 59 90 52 q 126 81 119 67 q 136 116 134 95 q 138 170 138 138 l 138 755 q 136 808 138 787 q 127 844 134 830 q 105 866 120 857 q 65 881 91 874 l 65 926 l 738 926 z "},"F":{"ha":766,"x_min":65,"x_max":721,"o":"m 348 170 q 350 116 348 134 q 357 85 352 97 q 371 67 363 74 q 392 54 378 60 q 430 45 406 48 l 430 0 l 65 0 l 65 45 q 105 59 90 51 q 126 81 119 67 q 136 117 134 95 q 138 171 138 138 l 138 755 q 136 808 138 787 q 127 844 134 830 q 105 866 120 857 q 65 881 91 874 l 65 926 l 721 926 l 721 710 l 628 710 q 590 797 606 774 q 553 833 574 820 q 479 846 531 846 l 348 846 l 348 501 l 435 501 q 484 511 467 501 q 512 544 501 521 q 531 609 524 567 l 608 609 l 608 313 l 531 313 q 511 379 523 356 q 483 412 500 403 q 435 422 466 422 l 348 422 l 348 170 z "},"G":{"ha":898,"x_min":70,"x_max":859,"o":"m 777 901 l 777 708 l 684 708 q 648 796 668 765 q 596 842 628 827 q 515 857 565 857 q 397 816 448 857 q 315 685 345 775 q 286 458 286 595 q 306 252 286 339 q 367 117 326 165 q 468 68 408 68 q 556 104 528 68 q 585 218 585 140 l 585 243 q 581 317 585 295 q 571 350 578 339 q 552 368 564 361 q 511 383 541 374 l 511 428 l 859 428 l 859 383 q 812 360 825 373 q 796 326 800 347 q 791 266 791 304 l 791 10 l 694 -10 l 648 39 q 463 -11 567 -11 q 167 105 264 -11 q 70 455 70 220 q 104 672 70 578 q 200 824 139 766 q 339 910 262 883 q 504 937 416 937 q 777 901 652 937 z "},"H":{"ha":1002,"x_min":65,"x_max":937,"o":"m 865 170 q 869 99 865 118 q 887 66 873 79 q 937 45 901 54 l 937 0 l 583 0 l 583 45 q 633 65 622 55 q 650 94 645 75 q 654 170 654 113 l 654 442 l 348 442 l 348 170 q 349 126 348 146 q 355 93 351 106 q 367 71 359 80 q 388 56 374 62 q 421 45 401 50 l 421 0 l 65 0 l 65 45 q 105 59 90 52 q 126 81 119 67 q 136 116 134 95 q 138 170 138 138 l 138 755 q 136 808 138 787 q 127 844 134 830 q 105 866 120 857 q 65 881 91 874 l 65 926 l 421 926 l 421 881 q 372 859 385 871 q 353 826 359 846 q 348 754 348 806 l 348 528 l 654 528 l 654 754 q 650 826 654 806 q 632 858 646 846 q 583 881 619 871 l 583 926 l 937 926 l 937 881 q 893 864 907 873 q 874 840 880 854 q 866 808 868 826 q 865 754 865 791 l 865 170 z "},"I":{"ha":486,"x_min":65,"x_max":421,"o":"m 348 170 q 349 126 348 146 q 355 93 351 106 q 367 71 359 80 q 388 56 374 62 q 421 45 401 50 l 421 0 l 65 0 l 65 45 q 105 59 90 52 q 126 81 119 67 q 136 116 134 95 q 138 170 138 138 l 138 755 q 136 809 138 788 q 127 844 134 830 q 105 866 120 858 q 65 881 91 874 l 65 926 l 421 926 l 421 881 q 380 865 393 873 q 360 844 367 857 q 351 812 353 832 q 348 755 348 793 l 348 170 z "},"J":{"ha":473,"x_min":24,"x_max":415,"o":"m 342 75 q 331 -43 342 2 q 293 -124 319 -89 q 210 -199 262 -167 q 58 -266 148 -238 l 24 -182 q 85 -148 65 -164 q 114 -113 105 -132 q 127 -66 123 -94 q 132 16 132 -38 l 132 755 q 130 808 132 787 q 121 844 128 830 q 99 866 114 857 q 59 881 85 874 l 59 926 l 415 926 l 415 881 q 373 865 387 873 q 354 844 360 856 q 345 812 347 831 q 342 755 342 793 l 342 75 z "},"K":{"ha":947,"x_min":65,"x_max":957,"o":"m 819 180 q 864 116 846 140 q 895 78 882 92 q 922 57 909 64 q 957 44 935 50 l 957 0 l 589 0 l 589 45 q 621 56 612 48 q 629 77 629 64 q 626 98 629 87 q 611 129 623 109 q 564 203 600 149 l 460 363 q 428 409 441 393 q 400 432 414 425 q 361 439 386 439 l 348 439 l 348 170 q 349 126 348 146 q 355 93 351 106 q 367 71 359 80 q 388 56 374 62 q 421 45 401 50 l 421 0 l 65 0 l 65 45 q 105 59 90 52 q 126 81 119 67 q 136 116 134 95 q 138 170 138 138 l 138 755 q 136 808 138 787 q 127 844 134 830 q 105 866 120 857 q 65 881 91 874 l 65 926 l 421 926 l 421 881 q 379 865 393 873 q 360 844 366 856 q 351 812 353 831 q 348 755 348 793 l 348 513 l 362 513 q 412 520 393 513 q 449 545 430 527 q 524 627 469 562 q 604 727 579 692 q 638 784 629 762 q 647 829 647 807 q 631 867 647 853 q 586 881 615 880 l 586 926 l 932 926 l 932 880 q 888 865 907 875 q 846 834 870 856 q 786 772 823 813 l 583 544 l 819 180 z "},"L":{"ha":765,"x_min":65,"x_max":726,"o":"m 421 926 l 421 881 q 382 866 397 874 q 360 845 368 859 q 350 810 353 831 q 348 756 348 789 l 348 81 l 479 81 q 543 93 519 81 q 584 131 566 105 q 613 197 601 156 q 633 274 626 238 l 726 274 l 711 0 l 65 0 l 65 45 q 105 60 90 52 q 126 82 119 68 q 136 117 134 96 q 138 171 138 138 l 138 755 q 136 808 138 787 q 127 844 134 830 q 105 866 120 857 q 65 881 91 874 l 65 926 l 421 926 z "},"M":{"ha":1175,"x_min":63,"x_max":1109,"o":"m 1109 881 q 1061 859 1074 871 q 1043 827 1048 847 q 1038 756 1038 807 l 1038 170 q 1042 104 1038 128 q 1058 67 1046 80 q 1109 45 1071 55 l 1109 0 l 762 0 l 762 45 q 803 59 791 53 q 821 75 814 65 q 830 105 827 85 q 833 171 833 125 l 833 503 q 836 633 833 558 q 840 739 838 707 l 825 739 q 808 685 817 711 q 774 592 799 659 l 592 102 l 473 102 l 281 652 q 252 745 264 699 l 239 745 q 246 481 246 633 l 246 169 q 251 99 246 119 q 270 66 256 79 q 319 45 284 54 l 319 0 l 63 0 l 63 45 q 103 60 88 52 q 125 81 117 68 q 134 116 132 95 q 136 170 136 137 l 136 756 q 131 827 136 808 q 114 858 127 846 q 63 881 101 870 l 63 926 l 400 926 l 588 369 l 791 926 l 1109 926 l 1109 881 z "},"N":{"ha":943,"x_min":63,"x_max":887,"o":"m 887 926 l 887 881 q 849 866 860 872 q 830 850 838 860 q 818 819 822 840 q 814 755 814 798 l 814 0 l 642 0 l 336 528 q 245 696 275 635 l 239 696 q 246 388 246 550 l 246 170 q 251 98 246 119 q 270 66 256 78 q 319 45 283 54 l 319 0 l 63 0 l 63 45 q 103 60 88 52 q 124 82 117 68 q 134 117 132 96 q 136 170 136 138 l 136 756 q 131 826 136 807 q 113 859 127 846 q 63 881 99 871 l 63 926 l 338 926 l 578 509 q 636 402 600 469 q 700 275 672 335 l 711 275 q 703 629 703 437 l 703 755 q 700 819 703 800 q 689 849 696 839 q 670 866 682 859 q 631 881 659 873 l 631 926 l 887 926 z "},"O":{"ha":966,"x_min":72,"x_max":894,"o":"m 471 -11 q 172 106 272 -11 q 72 455 72 222 q 120 716 72 608 q 263 880 169 824 q 488 937 357 937 q 792 820 690 937 q 894 475 894 704 q 864 255 894 347 q 778 104 833 163 q 645 17 722 45 q 471 -11 567 -11 m 288 473 q 337 169 288 269 q 487 68 386 68 q 576 97 539 68 q 635 175 612 125 q 668 295 658 226 q 677 447 677 364 q 656 673 677 582 q 592 811 635 764 q 481 857 549 857 q 335 763 383 857 q 288 473 288 669 z "},"P":{"ha":852,"x_min":65,"x_max":802,"o":"m 348 170 q 351 106 348 125 q 362 76 355 87 q 385 58 370 65 q 430 45 399 50 l 430 0 l 65 0 l 65 45 q 105 59 90 52 q 126 81 119 67 q 136 116 134 95 q 138 170 138 138 l 138 755 q 136 808 138 787 q 127 844 134 830 q 105 866 120 857 q 65 881 91 874 l 65 926 l 459 926 q 716 864 631 926 q 802 675 802 803 q 762 519 802 585 q 646 418 722 452 q 456 384 570 384 q 348 387 390 384 l 348 170 m 348 463 l 406 463 q 514 483 474 463 q 573 544 554 502 q 593 657 593 586 q 573 769 593 728 q 517 829 554 811 q 421 846 479 846 q 348 845 374 846 l 348 463 z "},"Q":{"ha":966,"x_min":72,"x_max":945,"o":"m 626 10 l 668 -47 q 699 -86 684 -70 q 729 -115 713 -103 q 760 -133 745 -127 q 793 -138 775 -138 q 829 -134 814 -138 q 860 -121 844 -130 q 898 -93 876 -111 l 945 -152 q 865 -218 900 -195 q 797 -250 829 -241 q 721 -260 764 -260 q 636 -249 673 -260 q 563 -210 598 -238 q 495 -133 527 -182 l 414 -8 q 229 55 304 3 q 113 205 154 106 q 72 455 72 304 q 120 716 72 608 q 263 880 169 824 q 488 937 357 937 q 792 820 690 937 q 894 475 894 704 q 827 171 894 288 q 626 10 760 53 m 288 473 q 337 169 288 269 q 487 68 386 68 q 576 97 539 68 q 635 175 612 125 q 668 295 658 226 q 677 447 677 364 q 656 673 677 582 q 592 811 635 764 q 481 857 549 857 q 335 763 383 857 q 288 473 288 669 z "},"R":{"ha":919,"x_min":65,"x_max":921,"o":"m 421 0 l 65 0 l 65 45 q 105 59 90 52 q 126 81 119 67 q 136 116 134 95 q 138 170 138 138 l 138 755 q 136 808 138 787 q 127 844 134 830 q 105 866 120 857 q 65 881 91 874 l 65 926 l 460 926 q 596 915 541 926 q 694 880 652 903 q 754 832 730 861 q 792 765 779 804 q 805 676 805 727 q 782 562 805 610 q 719 483 758 515 q 612 424 679 452 l 612 417 q 695 359 663 395 q 755 267 728 323 l 798 175 q 854 82 826 113 q 921 45 882 52 l 921 0 l 660 0 q 571 161 621 54 l 518 277 q 477 351 494 329 q 443 380 460 372 q 387 389 425 389 l 348 389 l 348 170 q 353 99 348 119 q 371 66 357 79 q 421 45 385 54 l 421 0 m 348 845 l 348 468 l 415 468 q 505 483 469 468 q 561 523 540 497 q 589 585 581 549 q 597 662 597 620 q 553 800 597 754 q 425 846 510 846 q 348 845 366 846 z "},"S":{"ha":713,"x_min":57,"x_max":664,"o":"m 150 229 q 207 108 167 148 q 323 68 246 68 q 395 82 363 68 q 446 126 427 96 q 465 201 465 156 q 450 274 465 243 q 399 333 434 305 q 303 392 365 361 q 208 447 250 418 q 135 510 165 475 q 88 585 104 544 q 71 676 71 625 q 113 818 71 760 q 232 906 154 876 q 414 937 311 937 q 529 930 474 937 q 654 907 584 924 l 654 711 l 562 711 q 529 796 549 764 q 479 842 509 827 q 404 857 449 857 q 334 844 365 857 q 286 803 304 830 q 269 739 269 777 q 284 670 269 699 q 335 614 299 642 q 439 551 371 587 q 571 466 523 508 q 641 375 618 425 q 664 261 664 326 q 625 116 664 178 q 513 22 587 55 q 342 -11 439 -11 q 198 -3 273 -11 q 57 20 123 5 l 57 229 l 150 229 z "},"T":{"ha":888,"x_min":45,"x_max":843,"o":"m 257 0 l 257 45 q 302 57 286 50 q 327 79 319 65 q 337 116 335 94 q 339 170 339 138 l 339 846 l 284 846 q 222 837 243 846 q 184 807 200 827 q 157 752 168 787 q 138 688 145 718 l 45 688 l 45 926 l 843 926 l 843 688 l 750 688 q 730 755 737 734 q 713 792 722 777 q 694 818 704 808 q 672 834 684 828 q 643 843 661 840 q 598 846 626 846 l 549 846 l 549 170 q 551 116 549 134 q 559 85 553 97 q 572 67 564 74 q 594 54 580 60 q 631 45 608 48 l 631 0 l 257 0 z "},"U":{"ha":939,"x_min":52,"x_max":889,"o":"m 663 755 q 658 826 663 806 q 641 859 654 846 q 591 881 628 871 l 591 926 l 889 926 l 889 881 q 850 866 865 874 q 829 845 836 859 q 819 809 821 831 q 817 755 817 788 l 817 332 q 804 191 817 248 q 762 96 790 134 q 691 33 733 57 q 595 -1 648 9 q 477 -11 543 -11 q 314 9 380 -11 q 206 70 248 29 q 144 168 164 110 q 124 316 124 225 l 124 755 q 122 808 124 787 q 114 844 121 830 q 92 866 106 857 q 52 881 77 874 l 52 926 l 408 926 l 408 881 q 367 865 380 873 q 347 844 353 857 q 337 812 340 832 q 334 755 334 793 l 334 307 q 341 210 334 254 q 366 134 348 165 q 416 85 384 102 q 498 68 448 68 q 601 96 567 68 q 649 174 635 124 q 663 323 663 224 l 663 755 z "},"V":{"ha":881,"x_min":14,"x_max":886,"o":"m 643 703 q 659 757 653 732 q 665 810 665 782 q 647 861 665 843 q 594 881 630 878 l 594 926 l 886 926 l 886 881 q 843 864 861 877 q 810 828 825 852 q 776 752 795 805 l 492 -5 l 335 -5 l 111 755 q 86 827 96 806 q 60 862 76 848 q 14 881 43 875 l 14 926 l 389 926 l 389 881 q 337 861 354 877 q 320 817 320 846 q 324 773 320 795 q 341 705 328 752 l 475 218 l 643 703 z "},"W":{"ha":1335,"x_min":18,"x_max":1337,"o":"m 1101 693 q 1117 756 1110 724 q 1124 810 1124 787 q 1106 862 1124 845 q 1055 881 1089 878 l 1055 926 l 1337 926 l 1337 881 q 1295 862 1312 876 q 1265 823 1278 848 q 1231 739 1251 798 l 977 -5 l 815 -5 l 662 632 l 480 -5 l 311 -5 l 106 755 q 80 832 92 810 q 54 865 68 854 q 18 881 40 876 l 18 926 l 383 926 l 383 881 q 331 861 348 877 q 314 817 314 846 q 334 705 314 781 l 451 234 l 646 926 l 799 926 l 958 234 l 1101 693 z "},"X":{"ha":859,"x_min":14,"x_max":845,"o":"m 410 926 l 410 881 q 365 866 378 878 q 351 832 351 855 q 356 806 351 821 q 372 771 361 791 q 408 707 382 751 l 471 602 l 553 723 q 590 784 581 763 q 599 830 599 806 q 584 865 599 852 q 543 881 569 878 l 543 926 l 823 926 l 823 880 q 785 863 803 875 q 745 824 768 851 q 671 724 722 796 l 524 515 l 745 150 q 769 114 757 132 q 792 82 781 96 q 811 61 803 68 q 828 51 820 54 q 845 45 836 47 l 845 0 l 468 0 l 468 45 q 512 59 498 48 q 526 94 526 70 q 524 111 526 102 q 516 134 522 121 q 504 158 510 148 q 481 199 498 169 l 387 354 l 276 191 q 254 155 263 171 q 242 125 245 138 q 239 93 239 111 q 253 61 239 75 q 295 45 268 47 l 295 0 l 14 0 l 14 45 q 55 65 37 52 q 96 106 74 79 q 157 188 118 132 l 334 441 l 163 726 q 115 802 135 772 q 81 849 95 833 q 57 871 68 865 q 33 881 47 878 l 33 926 l 410 926 z "},"Y":{"ha":840,"x_min":12,"x_max":847,"o":"m 517 356 l 517 170 q 519 116 517 134 q 526 85 521 97 q 539 67 532 74 q 561 54 547 60 q 599 45 575 48 l 599 0 l 224 0 l 224 45 q 269 57 252 50 q 294 79 286 64 q 304 115 302 93 q 307 170 307 137 l 307 356 l 123 744 q 85 817 99 793 q 59 857 70 845 q 38 874 47 869 q 12 881 28 879 l 12 926 l 373 926 l 373 881 q 321 829 321 874 q 329 787 321 812 q 357 722 338 763 l 471 467 l 595 716 q 621 778 614 753 q 628 827 628 803 q 614 866 628 852 q 575 881 600 880 l 575 926 l 847 926 l 847 881 q 817 870 829 877 q 791 847 805 863 q 757 802 777 832 q 711 722 737 771 l 517 356 z "},"Z":{"ha":787,"x_min":54,"x_max":738,"o":"m 304 81 l 498 81 q 560 96 535 81 q 604 144 585 111 q 642 258 622 177 l 734 258 l 734 0 l 54 0 l 54 45 l 488 845 l 304 845 q 234 829 260 845 q 190 777 208 812 q 158 681 172 741 l 65 681 l 65 926 l 738 926 l 738 881 l 304 81 z "},"À":{"ha":905,"x_min":-5,"x_max":891,"o":"m 547 287 l 258 287 l 235 222 q 220 170 226 195 q 214 116 214 144 q 284 45 214 50 l 284 0 l -5 0 l -5 45 q 39 62 20 47 q 73 103 58 77 q 106 177 89 129 l 389 930 l 570 930 l 794 171 q 819 99 809 120 q 846 64 829 77 q 891 45 862 51 l 891 0 l 517 0 l 517 45 q 569 64 552 49 q 586 109 586 80 q 581 155 586 130 q 566 220 576 181 l 547 287 m 283 366 l 528 366 l 419 748 l 283 366 m 441 1219 l 597 1043 l 553 996 l 277 1175 l 277 1219 l 441 1219 z "},"Á":{"ha":905,"x_min":-5,"x_max":891,"o":"m 547 287 l 258 287 l 235 222 q 220 170 226 195 q 214 116 214 144 q 284 45 214 50 l 284 0 l -5 0 l -5 45 q 39 62 20 47 q 73 103 58 77 q 106 177 89 129 l 389 930 l 570 930 l 794 171 q 819 99 809 120 q 846 64 829 77 q 891 45 862 51 l 891 0 l 517 0 l 517 45 q 569 64 552 49 q 586 109 586 80 q 581 155 586 130 q 566 220 576 181 l 547 287 m 283 366 l 528 366 l 419 748 l 283 366 m 682 1219 l 682 1175 l 406 996 l 362 1043 l 528 1219 l 682 1219 z "},"Â":{"ha":905,"x_min":-5,"x_max":891,"o":"m 547 287 l 258 287 l 235 222 q 220 170 226 195 q 214 116 214 144 q 284 45 214 50 l 284 0 l -5 0 l -5 45 q 39 62 20 47 q 73 103 58 77 q 106 177 89 129 l 389 930 l 570 930 l 794 171 q 819 99 809 120 q 846 64 829 77 q 891 45 862 51 l 891 0 l 517 0 l 517 45 q 569 64 552 49 q 586 109 586 80 q 581 155 586 130 q 566 220 576 181 l 547 287 m 283 366 l 528 366 l 419 748 l 283 366 m 540 1211 l 693 1040 l 645 995 l 484 1108 l 476 1108 l 313 995 l 267 1040 l 422 1211 l 540 1211 z "},"Ã":{"ha":905,"x_min":-5,"x_max":891,"o":"m 547 287 l 258 287 l 235 222 q 220 170 226 195 q 214 116 214 144 q 284 45 214 50 l 284 0 l -5 0 l -5 45 q 39 62 20 47 q 73 103 58 77 q 106 177 89 129 l 389 930 l 570 930 l 794 171 q 819 99 809 120 q 846 64 829 77 q 891 45 862 51 l 891 0 l 517 0 l 517 45 q 569 64 552 49 q 586 109 586 80 q 581 155 586 130 q 566 220 576 181 l 547 287 m 283 366 l 528 366 l 419 748 l 283 366 m 654 1185 l 718 1157 q 644 1039 680 1077 q 570 1000 608 1000 q 524 1007 545 1000 q 465 1041 503 1015 q 431 1062 443 1056 q 409 1072 420 1069 q 386 1076 397 1076 q 358 1070 370 1076 q 333 1047 347 1064 q 303 1000 319 1031 l 240 1028 q 293 1120 272 1090 q 338 1168 315 1151 q 391 1185 362 1185 q 422 1181 408 1185 q 450 1171 437 1178 q 489 1147 464 1164 q 526 1123 514 1130 q 549 1113 538 1116 q 575 1109 560 1109 q 617 1127 599 1109 q 654 1185 635 1145 z "},"Ä":{"ha":905,"x_min":-5,"x_max":891,"o":"m 547 287 l 258 287 l 235 222 q 220 170 226 195 q 214 116 214 144 q 284 45 214 50 l 284 0 l -5 0 l -5 45 q 39 62 20 47 q 73 103 58 77 q 106 177 89 129 l 389 930 l 570 930 l 794 171 q 819 99 809 120 q 846 64 829 77 q 891 45 862 51 l 891 0 l 517 0 l 517 45 q 569 64 552 49 q 586 109 586 80 q 581 155 586 130 q 566 220 576 181 l 547 287 m 283 366 l 528 366 l 419 748 l 283 366 m 420 1167 l 420 1018 l 278 1018 l 278 1167 l 420 1167 m 682 1167 l 682 1018 l 540 1018 l 540 1167 l 682 1167 z "},"Ā":{"ha":905,"x_min":-5,"x_max":891,"o":"m 547 287 l 258 287 l 235 222 q 220 170 226 195 q 214 116 214 144 q 284 45 214 50 l 284 0 l -5 0 l -5 45 q 39 62 20 47 q 73 103 58 77 q 106 177 89 129 l 389 930 l 570 930 l 794 171 q 819 99 809 120 q 846 64 829 77 q 891 45 862 51 l 891 0 l 517 0 l 517 45 q 569 64 552 49 q 586 109 586 80 q 581 155 586 130 q 566 220 576 181 l 547 287 m 283 366 l 528 366 l 419 748 l 283 366 m 681 1038 l 278 1038 l 278 1142 l 681 1142 l 681 1038 z "},"Ă":{"ha":905,"x_min":-5,"x_max":891,"o":"m 547 287 l 258 287 l 235 222 q 220 170 226 195 q 214 116 214 144 q 284 45 214 50 l 284 0 l -5 0 l -5 45 q 39 62 20 47 q 73 103 58 77 q 106 177 89 129 l 389 930 l 570 930 l 794 171 q 819 99 809 120 q 846 64 829 77 q 891 45 862 51 l 891 0 l 517 0 l 517 45 q 569 64 552 49 q 586 109 586 80 q 581 155 586 130 q 566 220 576 181 l 547 287 m 283 366 l 528 366 l 419 748 l 283 366 m 701 1194 q 623 1052 677 1100 q 474 1004 568 1004 q 333 1053 389 1004 q 258 1194 278 1101 l 323 1215 q 382 1137 347 1162 q 477 1112 417 1112 q 577 1138 541 1112 q 635 1215 614 1164 l 701 1194 z "},"Å":{"ha":905,"x_min":-5,"x_max":891,"o":"m 547 287 l 258 287 l 235 222 q 220 170 226 195 q 214 116 214 144 q 284 45 214 50 l 284 0 l -5 0 l -5 45 q 39 62 20 47 q 73 103 58 77 q 106 177 89 129 l 389 930 l 570 930 l 794 171 q 819 99 809 120 q 846 64 829 77 q 891 45 862 51 l 891 0 l 517 0 l 517 45 q 569 64 552 49 q 586 109 586 80 q 581 155 586 130 q 566 220 576 181 l 547 287 m 283 366 l 528 366 l 419 748 l 283 366 m 475 960 q 359 996 399 960 q 319 1100 319 1031 q 340 1180 319 1147 q 399 1229 361 1213 q 484 1245 437 1245 q 600 1210 561 1245 q 640 1106 640 1174 q 596 997 640 1035 q 475 960 553 960 m 400 1105 q 420 1036 400 1061 q 481 1012 441 1012 q 538 1035 518 1012 q 558 1099 558 1057 q 537 1168 558 1144 q 479 1193 516 1193 q 420 1170 440 1193 q 400 1105 400 1147 z "},"Ǻ":{"ha":905,"x_min":-5,"x_max":891,"o":"m 671 1320 l 671 1275 l 391 1131 l 351 1182 l 517 1320 l 671 1320 m 586 878 l 794 171 q 819 99 809 120 q 846 64 829 77 q 891 45 862 51 l 891 0 l 517 0 l 517 45 q 569 64 552 49 q 586 109 586 80 q 581 155 586 130 q 566 220 576 181 l 547 287 l 258 287 l 235 222 q 220 170 226 195 q 214 116 214 144 q 284 45 214 50 l 284 0 l -5 0 l -5 45 q 39 62 20 47 q 73 103 58 77 q 106 177 89 129 l 368 873 q 317 987 317 909 q 338 1067 317 1034 q 397 1116 359 1100 q 482 1132 435 1132 q 598 1096 559 1132 q 637 993 637 1061 q 586 878 637 915 m 398 991 q 418 923 398 947 q 479 899 439 899 q 536 921 516 899 q 556 985 556 944 q 535 1055 556 1031 q 477 1080 514 1080 q 418 1057 438 1080 q 398 991 398 1034 m 283 366 l 528 366 l 419 748 l 283 366 z "},"Ą":{"ha":905,"x_min":-5,"x_max":891,"o":"m 547 287 l 258 287 l 235 222 q 220 170 226 195 q 214 116 214 144 q 284 45 214 50 l 284 0 l -5 0 l -5 45 q 39 62 20 47 q 73 103 58 77 q 106 177 89 129 l 389 930 l 570 930 l 794 171 q 819 99 809 120 q 846 64 829 77 q 891 45 862 51 l 891 0 l 791 0 q 731 -76 751 -37 q 711 -151 711 -115 q 727 -201 711 -184 q 771 -218 743 -218 q 807 -212 791 -218 q 834 -197 822 -205 l 860 -255 q 804 -284 836 -272 q 738 -296 773 -296 q 685 -289 711 -296 q 640 -269 660 -283 q 609 -231 621 -255 q 597 -174 597 -208 q 626 -82 597 -127 q 712 0 656 -37 l 517 0 l 517 45 q 569 64 552 49 q 586 109 586 80 q 581 155 586 130 q 566 220 576 181 l 547 287 m 283 366 l 528 366 l 419 748 l 283 366 z "},"Æ":{"ha":1223,"x_min":-9,"x_max":1165,"o":"m 1158 926 l 1158 710 l 1065 710 q 1027 797 1043 774 q 990 833 1012 820 q 916 846 968 846 l 747 846 l 767 521 l 858 521 q 905 529 888 521 q 933 557 922 538 q 954 618 944 577 l 1031 618 l 1031 343 l 954 343 q 933 403 945 382 q 906 433 922 424 q 858 441 890 441 l 772 441 l 797 79 l 916 79 q 956 82 939 79 q 985 93 972 85 q 1009 113 998 100 q 1030 141 1021 126 q 1050 180 1040 156 q 1072 248 1060 205 l 1165 248 l 1152 0 l 509 0 l 509 45 q 555 62 541 51 q 576 93 570 73 q 583 149 583 113 q 583 163 583 155 q 582 180 583 172 l 575 287 l 300 287 l 268 224 q 238 159 248 183 q 229 114 229 135 q 246 64 229 81 q 296 45 263 47 l 296 0 l -9 0 l -9 45 q 59 87 28 53 q 119 177 90 121 l 511 926 l 1158 926 m 340 366 l 570 366 l 557 561 q 551 773 553 640 l 543 773 l 340 366 z "},"Ǽ":{"ha":1223,"x_min":-9,"x_max":1165,"o":"m 1158 926 l 1158 710 l 1065 710 q 1027 797 1043 774 q 990 833 1012 820 q 916 846 968 846 l 747 846 l 767 521 l 858 521 q 905 529 888 521 q 933 557 922 538 q 954 618 944 577 l 1031 618 l 1031 343 l 954 343 q 933 403 945 382 q 906 433 922 424 q 858 441 890 441 l 772 441 l 797 79 l 916 79 q 956 82 939 79 q 985 93 972 85 q 1009 113 998 100 q 1030 141 1021 126 q 1050 180 1040 156 q 1072 248 1060 205 l 1165 248 l 1152 0 l 509 0 l 509 45 q 555 62 541 51 q 576 93 570 73 q 583 149 583 113 q 583 163 583 155 q 582 180 583 172 l 575 287 l 300 287 l 268 224 q 238 159 248 183 q 229 114 229 135 q 246 64 229 81 q 296 45 263 47 l 296 0 l -9 0 l -9 45 q 59 87 28 53 q 119 177 90 121 l 511 926 l 1158 926 m 340 366 l 570 366 l 557 561 q 551 773 553 640 l 543 773 l 340 366 m 987 1219 l 987 1175 l 712 996 l 668 1043 l 833 1219 l 987 1219 z "},"Ć":{"ha":796,"x_min":70,"x_max":739,"o":"m 739 905 l 739 708 l 646 708 q 595 821 630 785 q 503 857 559 857 q 340 754 395 857 q 286 450 286 652 q 336 165 286 262 q 483 68 386 68 q 564 85 532 68 q 613 135 595 102 q 646 229 632 168 l 739 229 l 739 23 q 602 -3 664 5 q 474 -11 541 -11 q 244 40 333 -11 q 112 194 155 91 q 70 454 70 296 q 120 710 70 601 q 267 878 170 819 q 498 937 363 937 q 623 929 567 937 q 739 905 678 922 m 651 1219 l 651 1175 l 376 996 l 332 1043 l 497 1219 l 651 1219 z "},"Ĉ":{"ha":796,"x_min":70,"x_max":739,"o":"m 739 905 l 739 708 l 646 708 q 595 821 630 785 q 503 857 559 857 q 340 754 395 857 q 286 450 286 652 q 336 165 286 262 q 483 68 386 68 q 564 85 532 68 q 613 135 595 102 q 646 229 632 168 l 739 229 l 739 23 q 602 -3 664 5 q 474 -11 541 -11 q 244 40 333 -11 q 112 194 155 91 q 70 454 70 296 q 120 710 70 601 q 267 878 170 819 q 498 937 363 937 q 623 929 567 937 q 739 905 678 922 m 510 1211 l 663 1040 l 615 995 l 454 1108 l 446 1108 l 283 995 l 237 1040 l 392 1211 l 510 1211 z "},"Č":{"ha":796,"x_min":70,"x_max":739,"o":"m 739 905 l 739 708 l 646 708 q 595 821 630 785 q 503 857 559 857 q 340 754 395 857 q 286 450 286 652 q 336 165 286 262 q 483 68 386 68 q 564 85 532 68 q 613 135 595 102 q 646 229 632 168 l 739 229 l 739 23 q 602 -3 664 5 q 474 -11 541 -11 q 244 40 333 -11 q 112 194 155 91 q 70 454 70 296 q 120 710 70 601 q 267 878 170 819 q 498 937 363 937 q 623 929 567 937 q 739 905 678 922 m 390 1000 l 237 1170 l 285 1215 l 446 1102 l 454 1102 l 616 1215 l 663 1170 l 508 1000 l 390 1000 z "},"Ċ":{"ha":796,"x_min":70,"x_max":739,"o":"m 739 905 l 739 708 l 646 708 q 595 821 630 785 q 503 857 559 857 q 340 754 395 857 q 286 450 286 652 q 336 165 286 262 q 483 68 386 68 q 564 85 532 68 q 613 135 595 102 q 646 229 632 168 l 739 229 l 739 23 q 602 -3 664 5 q 474 -11 541 -11 q 244 40 333 -11 q 112 194 155 91 q 70 454 70 296 q 120 710 70 601 q 267 878 170 819 q 498 937 363 937 q 623 929 567 937 q 739 905 678 922 m 543 1176 l 543 1010 l 357 1010 l 357 1176 l 543 1176 z "},"Ç":{"ha":796,"x_min":70,"x_max":739,"o":"m 739 905 l 739 708 l 646 708 q 595 821 630 785 q 503 857 559 857 q 340 754 395 857 q 286 450 286 652 q 336 165 286 262 q 483 68 386 68 q 564 85 532 68 q 613 135 595 102 q 646 229 632 168 l 739 229 l 739 23 q 539 -9 626 -4 l 486 -46 q 503 -84 497 -62 q 509 -134 509 -107 q 447 -244 509 -203 q 272 -292 385 -286 l 261 -227 q 342 -200 317 -219 q 368 -141 368 -181 q 364 -98 368 -116 l 364 -69 l 452 -10 q 163 108 256 -6 q 70 454 70 222 q 120 710 70 601 q 267 878 170 819 q 498 937 363 937 q 623 929 567 937 q 739 905 678 922 z "},"Ď":{"ha":979,"x_min":65,"x_max":909,"o":"m 418 926 q 607 908 531 926 q 742 852 683 890 q 837 762 801 814 q 891 640 873 709 q 909 483 909 570 q 884 293 909 377 q 810 149 859 209 q 702 61 766 96 q 554 12 637 26 q 373 0 482 0 l 65 0 l 65 45 q 105 59 90 52 q 126 81 119 67 q 136 116 134 95 q 138 170 138 138 l 138 755 q 136 808 138 787 q 127 844 134 830 q 105 866 120 857 q 65 881 91 874 l 65 926 l 418 926 m 348 82 q 410 80 360 80 q 535 102 484 80 q 600 146 573 118 q 666 268 644 193 q 690 467 690 349 q 656 681 690 595 q 558 806 621 766 q 408 846 496 846 q 348 845 366 846 l 348 82 m 429 1000 l 276 1170 l 324 1215 l 486 1102 l 493 1102 l 656 1215 l 703 1170 l 547 1000 l 429 1000 z "},"Đ":{"ha":985,"x_min":28,"x_max":915,"o":"m 424 926 q 613 908 537 926 q 748 852 689 890 q 843 762 807 814 q 897 640 880 709 q 915 483 915 570 q 890 293 915 377 q 816 149 865 209 q 708 61 772 96 q 560 12 644 26 q 379 0 488 0 l 71 0 l 71 45 q 111 59 96 52 q 133 81 125 67 q 142 116 140 95 q 144 170 144 138 l 144 442 l 28 442 l 28 528 l 144 528 l 144 755 q 142 808 144 787 q 133 844 140 830 q 112 866 126 857 q 71 881 97 874 l 71 926 l 424 926 m 532 442 l 354 442 l 354 82 q 416 80 366 80 q 505 90 467 80 q 571 118 541 99 q 621 163 598 136 q 661 235 645 195 q 688 335 679 278 q 696 467 696 392 q 662 681 696 595 q 565 806 627 766 q 414 846 502 846 q 354 845 372 846 l 354 528 l 532 528 l 532 442 z "},"È":{"ha":802,"x_min":65,"x_max":745,"o":"m 738 926 l 738 710 l 645 710 q 607 797 623 774 q 570 833 591 820 q 496 846 548 846 l 348 846 l 348 521 l 437 521 q 484 529 467 521 q 512 557 501 538 q 534 618 524 577 l 610 618 l 610 343 l 534 343 q 513 403 524 382 q 485 433 501 424 q 437 441 469 441 l 348 441 l 348 79 l 495 79 q 535 82 519 79 q 564 93 551 85 q 589 113 577 100 q 610 141 601 126 q 629 180 619 156 q 652 248 640 205 l 745 248 l 732 0 l 65 0 l 65 45 q 105 59 90 52 q 126 81 119 67 q 136 116 134 95 q 138 170 138 138 l 138 755 q 136 808 138 787 q 127 844 134 830 q 105 866 120 857 q 65 881 91 874 l 65 926 l 738 926 m 370 1219 l 526 1043 l 482 996 l 206 1175 l 206 1219 l 370 1219 z "},"É":{"ha":802,"x_min":65,"x_max":745,"o":"m 738 926 l 738 710 l 645 710 q 607 797 623 774 q 570 833 591 820 q 496 846 548 846 l 348 846 l 348 521 l 437 521 q 484 529 467 521 q 512 557 501 538 q 534 618 524 577 l 610 618 l 610 343 l 534 343 q 513 403 524 382 q 485 433 501 424 q 437 441 469 441 l 348 441 l 348 79 l 495 79 q 535 82 519 79 q 564 93 551 85 q 589 113 577 100 q 610 141 601 126 q 629 180 619 156 q 652 248 640 205 l 745 248 l 732 0 l 65 0 l 65 45 q 105 59 90 52 q 126 81 119 67 q 136 116 134 95 q 138 170 138 138 l 138 755 q 136 808 138 787 q 127 844 134 830 q 105 866 120 857 q 65 881 91 874 l 65 926 l 738 926 m 608 1219 l 608 1175 l 332 996 l 288 1043 l 454 1219 l 608 1219 z "},"Ê":{"ha":802,"x_min":65,"x_max":745,"o":"m 738 926 l 738 710 l 645 710 q 607 797 623 774 q 570 833 591 820 q 496 846 548 846 l 348 846 l 348 521 l 437 521 q 484 529 467 521 q 512 557 501 538 q 534 618 524 577 l 610 618 l 610 343 l 534 343 q 513 403 524 382 q 485 433 501 424 q 437 441 469 441 l 348 441 l 348 79 l 495 79 q 535 82 519 79 q 564 93 551 85 q 589 113 577 100 q 610 141 601 126 q 629 180 619 156 q 652 248 640 205 l 745 248 l 732 0 l 65 0 l 65 45 q 105 59 90 52 q 126 81 119 67 q 136 116 134 95 q 138 170 138 138 l 138 755 q 136 808 138 787 q 127 844 134 830 q 105 866 120 857 q 65 881 91 874 l 65 926 l 738 926 m 467 1211 l 620 1040 l 572 995 l 410 1108 l 403 1108 l 240 995 l 193 1040 l 349 1211 l 467 1211 z "},"Ě":{"ha":802,"x_min":65,"x_max":745,"o":"m 738 926 l 738 710 l 645 710 q 607 797 623 774 q 570 833 591 820 q 496 846 548 846 l 348 846 l 348 521 l 437 521 q 484 529 467 521 q 512 557 501 538 q 534 618 524 577 l 610 618 l 610 343 l 534 343 q 513 403 524 382 q 485 433 501 424 q 437 441 469 441 l 348 441 l 348 79 l 495 79 q 535 82 519 79 q 564 93 551 85 q 589 113 577 100 q 610 141 601 126 q 629 180 619 156 q 652 248 640 205 l 745 248 l 732 0 l 65 0 l 65 45 q 105 59 90 52 q 126 81 119 67 q 136 116 134 95 q 138 170 138 138 l 138 755 q 136 808 138 787 q 127 844 134 830 q 105 866 120 857 q 65 881 91 874 l 65 926 l 738 926 m 347 1000 l 193 1170 l 241 1215 l 403 1102 l 410 1102 l 573 1215 l 620 1170 l 465 1000 l 347 1000 z "},"Ë":{"ha":802,"x_min":65,"x_max":745,"o":"m 738 926 l 738 710 l 645 710 q 607 797 623 774 q 570 833 591 820 q 496 846 548 846 l 348 846 l 348 521 l 437 521 q 484 529 467 521 q 512 557 501 538 q 534 618 524 577 l 610 618 l 610 343 l 534 343 q 513 403 524 382 q 485 433 501 424 q 437 441 469 441 l 348 441 l 348 79 l 495 79 q 535 82 519 79 q 564 93 551 85 q 589 113 577 100 q 610 141 601 126 q 629 180 619 156 q 652 248 640 205 l 745 248 l 732 0 l 65 0 l 65 45 q 105 59 90 52 q 126 81 119 67 q 136 116 134 95 q 138 170 138 138 l 138 755 q 136 808 138 787 q 127 844 134 830 q 105 866 120 857 q 65 881 91 874 l 65 926 l 738 926 m 347 1167 l 347 1018 l 205 1018 l 205 1167 l 347 1167 m 608 1167 l 608 1018 l 467 1018 l 467 1167 l 608 1167 z "},"Ē":{"ha":802,"x_min":65,"x_max":745,"o":"m 738 926 l 738 710 l 645 710 q 607 797 623 774 q 570 833 591 820 q 496 846 548 846 l 348 846 l 348 521 l 437 521 q 484 529 467 521 q 512 557 501 538 q 534 618 524 577 l 610 618 l 610 343 l 534 343 q 513 403 524 382 q 485 433 501 424 q 437 441 469 441 l 348 441 l 348 79 l 495 79 q 535 82 519 79 q 564 93 551 85 q 589 113 577 100 q 610 141 601 126 q 629 180 619 156 q 652 248 640 205 l 745 248 l 732 0 l 65 0 l 65 45 q 105 59 90 52 q 126 81 119 67 q 136 116 134 95 q 138 170 138 138 l 138 755 q 136 808 138 787 q 127 844 134 830 q 105 866 120 857 q 65 881 91 874 l 65 926 l 738 926 m 608 1038 l 205 1038 l 205 1142 l 608 1142 l 608 1038 z "},"Ĕ":{"ha":802,"x_min":65,"x_max":745,"o":"m 738 926 l 738 710 l 645 710 q 607 797 623 774 q 570 833 591 820 q 496 846 548 846 l 348 846 l 348 521 l 437 521 q 484 529 467 521 q 512 557 501 538 q 534 618 524 577 l 610 618 l 610 343 l 534 343 q 513 403 524 382 q 485 433 501 424 q 437 441 469 441 l 348 441 l 348 79 l 495 79 q 535 82 519 79 q 564 93 551 85 q 589 113 577 100 q 610 141 601 126 q 629 180 619 156 q 652 248 640 205 l 745 248 l 732 0 l 65 0 l 65 45 q 105 59 90 52 q 126 81 119 67 q 136 116 134 95 q 138 170 138 138 l 138 755 q 136 808 138 787 q 127 844 134 830 q 105 866 120 857 q 65 881 91 874 l 65 926 l 738 926 m 628 1194 q 549 1052 604 1100 q 401 1004 494 1004 q 260 1053 315 1004 q 184 1194 205 1101 l 250 1215 q 309 1137 273 1162 q 404 1112 344 1112 q 504 1138 467 1112 q 562 1215 541 1164 l 628 1194 z "},"Ė":{"ha":802,"x_min":65,"x_max":745,"o":"m 738 926 l 738 710 l 645 710 q 607 797 623 774 q 570 833 591 820 q 496 846 548 846 l 348 846 l 348 521 l 437 521 q 484 529 467 521 q 512 557 501 538 q 534 618 524 577 l 610 618 l 610 343 l 534 343 q 513 403 524 382 q 485 433 501 424 q 437 441 469 441 l 348 441 l 348 79 l 495 79 q 535 82 519 79 q 564 93 551 85 q 589 113 577 100 q 610 141 601 126 q 629 180 619 156 q 652 248 640 205 l 745 248 l 732 0 l 65 0 l 65 45 q 105 59 90 52 q 126 81 119 67 q 136 116 134 95 q 138 170 138 138 l 138 755 q 136 808 138 787 q 127 844 134 830 q 105 866 120 857 q 65 881 91 874 l 65 926 l 738 926 m 499 1176 l 499 1010 l 313 1010 l 313 1176 l 499 1176 z "},"Ę":{"ha":802,"x_min":65,"x_max":745,"o":"m 738 926 l 738 710 l 645 710 q 607 797 623 774 q 570 833 591 820 q 496 846 548 846 l 348 846 l 348 521 l 437 521 q 484 529 467 521 q 512 557 501 538 q 534 618 524 577 l 610 618 l 610 343 l 534 343 q 513 403 524 382 q 485 433 501 424 q 437 441 469 441 l 348 441 l 348 79 l 495 79 q 535 82 519 79 q 564 93 551 85 q 589 113 577 100 q 610 141 601 126 q 629 180 619 156 q 652 248 640 205 l 745 248 l 732 0 l 676 0 q 617 -76 637 -37 q 597 -151 597 -115 q 613 -201 597 -184 q 656 -218 629 -218 q 692 -212 677 -218 q 720 -197 707 -205 l 745 -255 q 690 -284 721 -272 q 623 -296 659 -296 q 571 -289 596 -296 q 526 -269 545 -283 q 494 -231 506 -255 q 482 -174 482 -208 q 512 -82 482 -127 q 597 0 541 -37 l 65 0 l 65 45 q 105 59 90 52 q 126 81 119 67 q 136 116 134 95 q 138 170 138 138 l 138 755 q 136 808 138 787 q 127 844 134 830 q 105 866 120 857 q 65 881 91 874 l 65 926 l 738 926 z "},"Ĝ":{"ha":898,"x_min":70,"x_max":859,"o":"m 777 901 l 777 708 l 684 708 q 648 796 668 765 q 596 842 628 827 q 515 857 565 857 q 397 816 448 857 q 315 685 345 775 q 286 458 286 595 q 306 252 286 339 q 367 117 326 165 q 468 68 408 68 q 556 104 528 68 q 585 218 585 140 l 585 243 q 581 317 585 295 q 571 350 578 339 q 552 368 564 361 q 511 383 541 374 l 511 428 l 859 428 l 859 383 q 812 360 825 373 q 796 326 800 347 q 791 266 791 304 l 791 10 l 694 -10 l 648 39 q 463 -11 567 -11 q 167 105 264 -11 q 70 455 70 220 q 104 672 70 578 q 200 824 139 766 q 339 910 262 883 q 504 937 416 937 q 777 901 652 937 m 523 1211 l 676 1040 l 628 995 l 467 1108 l 459 1108 l 296 995 l 250 1040 l 405 1211 l 523 1211 z "},"Ğ":{"ha":898,"x_min":70,"x_max":859,"o":"m 777 901 l 777 708 l 684 708 q 648 796 668 765 q 596 842 628 827 q 515 857 565 857 q 397 816 448 857 q 315 685 345 775 q 286 458 286 595 q 306 252 286 339 q 367 117 326 165 q 468 68 408 68 q 556 104 528 68 q 585 218 585 140 l 585 243 q 581 317 585 295 q 571 350 578 339 q 552 368 564 361 q 511 383 541 374 l 511 428 l 859 428 l 859 383 q 812 360 825 373 q 796 326 800 347 q 791 266 791 304 l 791 10 l 694 -10 l 648 39 q 463 -11 567 -11 q 167 105 264 -11 q 70 455 70 220 q 104 672 70 578 q 200 824 139 766 q 339 910 262 883 q 504 937 416 937 q 777 901 652 937 m 684 1194 q 606 1052 661 1100 q 457 1004 551 1004 q 316 1053 372 1004 q 241 1194 261 1101 l 307 1215 q 365 1137 330 1162 q 460 1112 400 1112 q 561 1138 524 1112 q 618 1215 597 1164 l 684 1194 z "},"Ġ":{"ha":898,"x_min":70,"x_max":859,"o":"m 777 901 l 777 708 l 684 708 q 648 796 668 765 q 596 842 628 827 q 515 857 565 857 q 397 816 448 857 q 315 685 345 775 q 286 458 286 595 q 306 252 286 339 q 367 117 326 165 q 468 68 408 68 q 556 104 528 68 q 585 218 585 140 l 585 243 q 581 317 585 295 q 571 350 578 339 q 552 368 564 361 q 511 383 541 374 l 511 428 l 859 428 l 859 383 q 812 360 825 373 q 796 326 800 347 q 791 266 791 304 l 791 10 l 694 -10 l 648 39 q 463 -11 567 -11 q 167 105 264 -11 q 70 455 70 220 q 104 672 70 578 q 200 824 139 766 q 339 910 262 883 q 504 937 416 937 q 777 901 652 937 m 555 1176 l 555 1010 l 370 1010 l 370 1176 l 555 1176 z "},"Ģ":{"ha":898,"x_min":70,"x_max":859,"o":"m 777 901 l 777 708 l 684 708 q 648 796 668 765 q 596 842 628 827 q 515 857 565 857 q 397 816 448 857 q 315 685 345 775 q 286 458 286 595 q 306 252 286 339 q 367 117 326 165 q 468 68 408 68 q 556 104 528 68 q 585 218 585 140 l 585 243 q 581 317 585 295 q 571 350 578 339 q 552 368 564 361 q 511 383 541 374 l 511 428 l 859 428 l 859 383 q 812 360 825 373 q 796 326 800 347 q 791 266 791 304 l 791 10 l 694 -10 l 648 39 q 463 -11 567 -11 q 167 105 264 -11 q 70 455 70 220 q 104 672 70 578 q 200 824 139 766 q 339 910 262 883 q 504 937 416 937 q 777 901 652 937 m 538 -69 q 549 -134 549 -98 q 487 -244 549 -203 q 313 -292 425 -286 l 302 -227 q 366 -210 345 -220 q 398 -182 388 -200 q 408 -132 408 -163 q 403 -69 408 -101 l 538 -69 z "},"Ĥ":{"ha":1002,"x_min":65,"x_max":937,"o":"m 865 170 q 869 99 865 118 q 887 66 873 79 q 937 45 901 54 l 937 0 l 583 0 l 583 45 q 633 65 622 55 q 650 94 645 75 q 654 170 654 113 l 654 442 l 348 442 l 348 170 q 349 126 348 146 q 355 93 351 106 q 367 71 359 80 q 388 56 374 62 q 421 45 401 50 l 421 0 l 65 0 l 65 45 q 105 59 90 52 q 126 81 119 67 q 136 116 134 95 q 138 170 138 138 l 138 755 q 136 808 138 787 q 127 844 134 830 q 105 866 120 857 q 65 881 91 874 l 65 926 l 421 926 l 421 881 q 372 859 385 871 q 353 826 359 846 q 348 754 348 806 l 348 528 l 654 528 l 654 754 q 650 826 654 806 q 632 858 646 846 q 583 881 619 871 l 583 926 l 937 926 l 937 881 q 893 864 907 873 q 874 840 880 854 q 866 808 868 826 q 865 754 865 791 l 865 170 m 561 1211 l 714 1040 l 666 995 l 505 1108 l 497 1108 l 334 995 l 288 1040 l 443 1211 l 561 1211 z "},"Ħ":{"ha":1009,"x_min":65,"x_max":943,"o":"m 871 170 q 876 99 871 118 q 894 66 880 79 q 943 45 907 54 l 943 0 l 589 0 l 589 45 q 640 65 629 55 q 656 94 652 75 q 661 170 661 113 l 661 327 l 348 327 l 348 170 q 349 126 348 146 q 355 93 351 106 q 367 71 359 80 q 388 56 374 62 q 421 45 401 50 l 421 0 l 65 0 l 65 45 q 105 59 90 52 q 126 81 119 67 q 136 116 134 95 q 138 170 138 138 l 138 755 q 136 808 138 787 q 127 844 134 830 q 105 866 120 857 q 65 881 91 874 l 65 926 l 421 926 l 421 881 q 372 859 385 871 q 353 826 359 846 q 348 754 348 806 l 348 644 l 661 644 l 661 754 q 657 826 661 806 q 639 858 652 846 q 589 881 626 871 l 589 926 l 943 926 l 943 881 q 900 864 913 873 q 881 840 886 854 q 873 808 875 826 q 871 754 871 791 l 871 170 m 348 412 l 661 412 l 661 558 l 348 558 l 348 412 z "},"Ì":{"ha":486,"x_min":41,"x_max":421,"o":"m 348 170 q 349 126 348 146 q 355 93 351 106 q 367 71 359 80 q 388 56 374 62 q 421 45 401 50 l 421 0 l 65 0 l 65 45 q 105 59 90 52 q 126 81 119 67 q 136 116 134 95 q 138 170 138 138 l 138 755 q 136 809 138 788 q 127 844 134 830 q 105 866 120 858 q 65 881 91 874 l 65 926 l 421 926 l 421 881 q 380 865 393 873 q 360 844 367 857 q 351 812 353 832 q 348 755 348 793 l 348 170 m 205 1219 l 361 1043 l 317 996 l 41 1175 l 41 1219 l 205 1219 z "},"Í":{"ha":486,"x_min":65,"x_max":444,"o":"m 348 170 q 349 126 348 146 q 355 93 351 106 q 367 71 359 80 q 388 56 374 62 q 421 45 401 50 l 421 0 l 65 0 l 65 45 q 105 59 90 52 q 126 81 119 67 q 136 116 134 95 q 138 170 138 138 l 138 755 q 136 809 138 788 q 127 844 134 830 q 105 866 120 858 q 65 881 91 874 l 65 926 l 421 926 l 421 881 q 380 865 393 873 q 360 844 367 857 q 351 812 353 832 q 348 755 348 793 l 348 170 m 444 1219 l 444 1175 l 169 996 l 125 1043 l 290 1219 l 444 1219 z "},"Î":{"ha":486,"x_min":29,"x_max":456,"o":"m 348 170 q 349 126 348 146 q 355 93 351 106 q 367 71 359 80 q 388 56 374 62 q 421 45 401 50 l 421 0 l 65 0 l 65 45 q 105 59 90 52 q 126 81 119 67 q 136 116 134 95 q 138 170 138 138 l 138 755 q 136 809 138 788 q 127 844 134 830 q 105 866 120 858 q 65 881 91 874 l 65 926 l 421 926 l 421 881 q 380 865 393 873 q 360 844 367 857 q 351 812 353 832 q 348 755 348 793 l 348 170 m 302 1211 l 456 1040 l 408 995 l 246 1108 l 239 1108 l 76 995 l 29 1040 l 184 1211 l 302 1211 z "},"Ĩ":{"ha":486,"x_min":4,"x_max":482,"o":"m 348 170 q 349 126 348 146 q 355 93 351 106 q 367 71 359 80 q 388 56 374 62 q 421 45 401 50 l 421 0 l 65 0 l 65 45 q 105 59 90 52 q 126 81 119 67 q 136 116 134 95 q 138 170 138 138 l 138 755 q 136 809 138 788 q 127 844 134 830 q 105 866 120 858 q 65 881 91 874 l 65 926 l 421 926 l 421 881 q 380 865 393 873 q 360 844 367 857 q 351 812 353 832 q 348 755 348 793 l 348 170 m 418 1185 l 482 1157 q 408 1039 444 1077 q 334 1000 372 1000 q 288 1007 309 1000 q 229 1041 267 1015 q 195 1062 207 1056 q 173 1072 184 1069 q 150 1076 161 1076 q 122 1070 134 1076 q 97 1047 111 1064 q 67 1000 83 1031 l 4 1028 q 57 1120 36 1090 q 102 1168 79 1151 q 155 1185 126 1185 q 186 1181 172 1185 q 214 1171 201 1178 q 253 1147 228 1164 q 290 1123 278 1130 q 313 1113 302 1116 q 339 1109 324 1109 q 381 1127 363 1109 q 418 1185 399 1145 z "},"Ï":{"ha":486,"x_min":41,"x_max":445,"o":"m 348 170 q 349 126 348 146 q 355 93 351 106 q 367 71 359 80 q 388 56 374 62 q 421 45 401 50 l 421 0 l 65 0 l 65 45 q 105 59 90 52 q 126 81 119 67 q 136 116 134 95 q 138 170 138 138 l 138 755 q 136 809 138 788 q 127 844 134 830 q 105 866 120 858 q 65 881 91 874 l 65 926 l 421 926 l 421 881 q 380 865 393 873 q 360 844 367 857 q 351 812 353 832 q 348 755 348 793 l 348 170 m 183 1167 l 183 1018 l 41 1018 l 41 1167 l 183 1167 m 445 1167 l 445 1018 l 303 1018 l 303 1167 l 445 1167 z "},"Ī":{"ha":486,"x_min":41,"x_max":444,"o":"m 348 170 q 349 126 348 146 q 355 93 351 106 q 367 71 359 80 q 388 56 374 62 q 421 45 401 50 l 421 0 l 65 0 l 65 45 q 105 59 90 52 q 126 81 119 67 q 136 116 134 95 q 138 170 138 138 l 138 755 q 136 809 138 788 q 127 844 134 830 q 105 866 120 858 q 65 881 91 874 l 65 926 l 421 926 l 421 881 q 380 865 393 873 q 360 844 367 857 q 351 812 353 832 q 348 755 348 793 l 348 170 m 444 1038 l 41 1038 l 41 1142 l 444 1142 l 444 1038 z "},"Ĭ":{"ha":486,"x_min":21,"x_max":465,"o":"m 348 170 q 349 126 348 146 q 355 93 351 106 q 367 71 359 80 q 388 56 374 62 q 421 45 401 50 l 421 0 l 65 0 l 65 45 q 105 59 90 52 q 126 81 119 67 q 136 116 134 95 q 138 170 138 138 l 138 755 q 136 809 138 788 q 127 844 134 830 q 105 866 120 858 q 65 881 91 874 l 65 926 l 421 926 l 421 881 q 380 865 393 873 q 360 844 367 857 q 351 812 353 832 q 348 755 348 793 l 348 170 m 465 1194 q 386 1052 441 1100 q 237 1004 331 1004 q 97 1053 152 1004 q 21 1194 41 1101 l 87 1215 q 145 1137 110 1162 q 240 1112 180 1112 q 341 1138 304 1112 q 399 1215 378 1164 l 465 1194 z "},"İ":{"ha":486,"x_min":65,"x_max":421,"o":"m 348 170 q 349 126 348 146 q 355 93 351 106 q 367 71 359 80 q 388 56 374 62 q 421 45 401 50 l 421 0 l 65 0 l 65 45 q 105 59 90 52 q 126 81 119 67 q 136 116 134 95 q 138 170 138 138 l 138 755 q 136 809 138 788 q 127 844 134 830 q 105 866 120 858 q 65 881 91 874 l 65 926 l 421 926 l 421 881 q 380 865 393 873 q 360 844 367 857 q 351 812 353 832 q 348 755 348 793 l 348 170 m 336 1176 l 336 1010 l 150 1010 l 150 1176 l 336 1176 z "},"Į":{"ha":486,"x_min":65,"x_max":421,"o":"m 348 170 q 349 126 348 146 q 355 93 351 106 q 367 71 359 80 q 388 56 374 62 q 421 45 401 50 l 421 0 l 351 0 q 292 -76 312 -37 q 272 -151 272 -115 q 288 -201 272 -184 q 332 -218 304 -218 q 367 -212 352 -218 q 395 -197 382 -205 l 420 -255 q 365 -284 396 -272 q 298 -296 334 -296 q 246 -289 271 -296 q 201 -269 220 -283 q 169 -231 181 -255 q 157 -174 157 -208 q 187 -82 157 -127 q 273 0 216 -37 l 65 0 l 65 45 q 105 59 90 52 q 126 81 119 67 q 136 116 134 95 q 138 170 138 138 l 138 755 q 136 809 138 788 q 127 844 134 830 q 105 866 120 858 q 65 881 91 874 l 65 926 l 421 926 l 421 881 q 380 865 393 873 q 360 844 367 857 q 351 812 353 832 q 348 755 348 793 l 348 170 z "},"Ĳ":{"ha":959,"x_min":65,"x_max":901,"o":"m 348 170 q 349 126 348 146 q 355 93 351 106 q 367 71 359 80 q 388 56 374 62 q 421 45 401 50 l 421 0 l 65 0 l 65 45 q 105 59 90 52 q 126 81 119 67 q 136 116 134 95 q 138 170 138 138 l 138 755 q 136 809 138 788 q 127 844 134 830 q 105 866 120 858 q 65 881 91 874 l 65 926 l 421 926 l 421 881 q 380 865 393 873 q 360 844 367 857 q 351 812 353 832 q 348 755 348 793 l 348 170 m 827 75 q 816 -43 827 2 q 779 -124 805 -89 q 695 -199 747 -167 q 543 -266 633 -238 l 509 -182 q 571 -148 551 -164 q 600 -113 591 -132 q 613 -66 609 -94 q 617 16 617 -38 l 617 755 q 615 808 617 787 q 607 844 614 830 q 585 866 600 857 q 545 881 570 874 l 545 926 l 901 926 l 901 881 q 859 865 872 873 q 839 844 846 856 q 830 812 833 831 q 827 755 827 793 l 827 75 z "},"Ĵ":{"ha":473,"x_min":24,"x_max":450,"o":"m 342 75 q 331 -43 342 2 q 293 -124 319 -89 q 210 -199 262 -167 q 58 -266 148 -238 l 24 -182 q 85 -148 65 -164 q 114 -113 105 -132 q 127 -66 123 -94 q 132 16 132 -38 l 132 755 q 130 808 132 787 q 121 844 128 830 q 99 866 114 857 q 59 881 85 874 l 59 926 l 415 926 l 415 881 q 373 865 387 873 q 354 844 360 856 q 345 812 347 831 q 342 755 342 793 l 342 75 m 297 1211 l 450 1040 l 402 995 l 241 1108 l 233 1108 l 71 995 l 24 1040 l 179 1211 l 297 1211 z "},"Ķ":{"ha":947,"x_min":65,"x_max":957,"o":"m 819 180 q 864 116 846 140 q 895 78 882 92 q 922 57 909 64 q 957 44 935 50 l 957 0 l 589 0 l 589 45 q 621 56 612 48 q 629 77 629 64 q 626 98 629 87 q 611 129 623 109 q 564 203 600 149 l 460 363 q 428 409 441 393 q 400 432 414 425 q 361 439 386 439 l 348 439 l 348 170 q 349 126 348 146 q 355 93 351 106 q 367 71 359 80 q 388 56 374 62 q 421 45 401 50 l 421 0 l 65 0 l 65 45 q 105 59 90 52 q 126 81 119 67 q 136 116 134 95 q 138 170 138 138 l 138 755 q 136 808 138 787 q 127 844 134 830 q 105 866 120 857 q 65 881 91 874 l 65 926 l 421 926 l 421 881 q 379 865 393 873 q 360 844 366 856 q 351 812 353 831 q 348 755 348 793 l 348 513 l 362 513 q 412 520 393 513 q 449 545 430 527 q 524 627 469 562 q 604 727 579 692 q 638 784 629 762 q 647 829 647 807 q 631 867 647 853 q 586 881 615 880 l 586 926 l 932 926 l 932 880 q 888 865 907 875 q 846 834 870 856 q 786 772 823 813 l 583 544 l 819 180 m 560 -69 q 572 -134 572 -98 q 510 -244 572 -203 q 335 -292 448 -286 l 324 -227 q 389 -210 367 -220 q 420 -182 410 -200 q 431 -132 431 -163 q 425 -69 431 -101 l 560 -69 z "},"Ĺ":{"ha":765,"x_min":65,"x_max":726,"o":"m 421 926 l 421 881 q 382 866 397 874 q 360 845 368 859 q 350 810 353 831 q 348 756 348 789 l 348 81 l 479 81 q 543 93 519 81 q 584 131 566 105 q 613 197 601 156 q 633 274 626 238 l 726 274 l 711 0 l 65 0 l 65 45 q 105 60 90 52 q 126 82 119 68 q 136 117 134 96 q 138 171 138 138 l 138 755 q 136 808 138 787 q 127 844 134 830 q 105 866 120 857 q 65 881 91 874 l 65 926 l 421 926 m 585 1219 l 585 1175 l 309 996 l 265 1043 l 431 1219 l 585 1219 z "},"Ľ":{"ha":765,"x_min":65,"x_max":726,"o":"m 421 926 l 421 881 q 382 866 397 874 q 360 845 368 859 q 350 810 353 831 q 348 756 348 789 l 348 81 l 479 81 q 543 93 519 81 q 584 131 566 105 q 613 197 601 156 q 633 274 626 238 l 726 274 l 711 0 l 65 0 l 65 45 q 105 60 90 52 q 126 82 119 68 q 136 117 134 96 q 138 171 138 138 l 138 755 q 136 808 138 787 q 127 844 134 830 q 105 866 120 857 q 65 881 91 874 l 65 926 l 421 926 m 649 970 q 665 883 665 926 q 632 779 665 827 q 518 669 600 730 l 475 711 q 516 778 505 744 q 528 869 528 812 q 527 909 528 890 q 517 970 525 928 l 649 970 z "},"Ļ":{"ha":765,"x_min":65,"x_max":726,"o":"m 421 926 l 421 881 q 382 866 397 874 q 360 845 368 859 q 350 810 353 831 q 348 756 348 789 l 348 81 l 479 81 q 543 93 519 81 q 584 131 566 105 q 613 197 601 156 q 633 274 626 238 l 726 274 l 711 0 l 65 0 l 65 45 q 105 60 90 52 q 126 82 119 68 q 136 117 134 96 q 138 171 138 138 l 138 755 q 136 808 138 787 q 127 844 134 830 q 105 866 120 857 q 65 881 91 874 l 65 926 l 421 926 m 471 -69 q 482 -134 482 -98 q 420 -244 482 -203 q 245 -292 358 -286 l 235 -227 q 299 -210 277 -220 q 331 -182 321 -200 q 341 -132 341 -163 q 336 -69 341 -101 l 471 -69 z "},"Ł":{"ha":772,"x_min":14,"x_max":733,"o":"m 355 81 l 486 81 q 549 93 526 81 q 590 131 573 105 q 620 197 608 156 q 640 274 633 238 l 733 274 l 718 0 l 72 0 l 72 45 q 112 60 97 52 q 133 82 126 68 q 142 117 140 96 q 144 171 144 138 l 144 374 l 55 313 l 14 383 l 144 464 l 144 755 q 143 808 144 787 q 134 844 141 830 q 112 866 127 857 q 72 881 98 874 l 72 926 l 428 926 l 428 881 q 389 866 404 874 q 367 845 375 859 q 357 810 359 831 q 355 756 355 789 l 355 581 l 565 720 l 606 650 l 355 491 l 355 81 z "},"Ŀ":{"ha":932,"x_min":65,"x_max":916,"o":"m 421 926 l 421 881 q 382 866 397 874 q 360 845 368 859 q 350 810 353 831 q 348 756 348 789 l 348 81 l 479 81 q 543 93 519 81 q 584 131 566 105 q 613 197 601 156 q 633 274 626 238 l 726 274 l 711 0 l 65 0 l 65 45 q 105 60 90 52 q 126 82 119 68 q 136 117 134 96 q 138 171 138 138 l 138 755 q 136 808 138 787 q 127 844 134 830 q 105 866 120 857 q 65 881 91 874 l 65 926 l 421 926 m 916 554 l 916 388 l 743 388 l 743 554 l 916 554 z "},"Ń":{"ha":943,"x_min":63,"x_max":887,"o":"m 887 926 l 887 881 q 849 866 860 872 q 830 850 838 860 q 818 819 822 840 q 814 755 814 798 l 814 0 l 642 0 l 336 528 q 245 696 275 635 l 239 696 q 246 388 246 550 l 246 170 q 251 98 246 119 q 270 66 256 78 q 319 45 283 54 l 319 0 l 63 0 l 63 45 q 103 60 88 52 q 124 82 117 68 q 134 117 132 96 q 136 170 136 138 l 136 756 q 131 826 136 807 q 113 859 127 846 q 63 881 99 871 l 63 926 l 338 926 l 578 509 q 636 402 600 469 q 700 275 672 335 l 711 275 q 703 629 703 437 l 703 755 q 700 819 703 800 q 689 849 696 839 q 670 866 682 859 q 631 881 659 873 l 631 926 l 887 926 m 694 1219 l 694 1175 l 418 996 l 374 1043 l 540 1219 l 694 1219 z "},"Ň":{"ha":943,"x_min":63,"x_max":887,"o":"m 887 926 l 887 881 q 849 866 860 872 q 830 850 838 860 q 818 819 822 840 q 814 755 814 798 l 814 0 l 642 0 l 336 528 q 245 696 275 635 l 239 696 q 246 388 246 550 l 246 170 q 251 98 246 119 q 270 66 256 78 q 319 45 283 54 l 319 0 l 63 0 l 63 45 q 103 60 88 52 q 124 82 117 68 q 134 117 132 96 q 136 170 136 138 l 136 756 q 131 826 136 807 q 113 859 127 846 q 63 881 99 871 l 63 926 l 338 926 l 578 509 q 636 402 600 469 q 700 275 672 335 l 711 275 q 703 629 703 437 l 703 755 q 700 819 703 800 q 689 849 696 839 q 670 866 682 859 q 631 881 659 873 l 631 926 l 887 926 m 432 1000 l 279 1170 l 327 1215 l 488 1102 l 496 1102 l 659 1215 l 705 1170 l 550 1000 l 432 1000 z "},"Ñ":{"ha":943,"x_min":63,"x_max":887,"o":"m 887 926 l 887 881 q 849 866 860 872 q 830 850 838 860 q 818 819 822 840 q 814 755 814 798 l 814 0 l 642 0 l 336 528 q 245 696 275 635 l 239 696 q 246 388 246 550 l 246 170 q 251 98 246 119 q 270 66 256 78 q 319 45 283 54 l 319 0 l 63 0 l 63 45 q 103 60 88 52 q 124 82 117 68 q 134 117 132 96 q 136 170 136 138 l 136 756 q 131 826 136 807 q 113 859 127 846 q 63 881 99 871 l 63 926 l 338 926 l 578 509 q 636 402 600 469 q 700 275 672 335 l 711 275 q 703 629 703 437 l 703 755 q 700 819 703 800 q 689 849 696 839 q 670 866 682 859 q 631 881 659 873 l 631 926 l 887 926 m 667 1185 l 731 1157 q 656 1039 692 1077 q 583 1000 621 1000 q 537 1007 557 1000 q 477 1041 516 1015 q 444 1062 456 1056 q 421 1072 433 1069 q 399 1076 410 1076 q 371 1070 383 1076 q 346 1047 359 1064 q 316 1000 332 1031 l 253 1028 q 306 1120 285 1090 q 351 1168 328 1151 q 404 1185 375 1185 q 435 1181 420 1185 q 463 1171 450 1178 q 502 1147 477 1164 q 539 1123 527 1130 q 562 1113 551 1116 q 588 1109 573 1109 q 630 1127 612 1109 q 667 1185 648 1145 z "},"Ņ":{"ha":943,"x_min":63,"x_max":887,"o":"m 887 926 l 887 881 q 849 866 860 872 q 830 850 838 860 q 818 819 822 840 q 814 755 814 798 l 814 0 l 642 0 l 336 528 q 245 696 275 635 l 239 696 q 246 388 246 550 l 246 170 q 251 98 246 119 q 270 66 256 78 q 319 45 283 54 l 319 0 l 63 0 l 63 45 q 103 60 88 52 q 124 82 117 68 q 134 117 132 96 q 136 170 136 138 l 136 756 q 131 826 136 807 q 113 859 127 846 q 63 881 99 871 l 63 926 l 338 926 l 578 509 q 636 402 600 469 q 700 275 672 335 l 711 275 q 703 629 703 437 l 703 755 q 700 819 703 800 q 689 849 696 839 q 670 866 682 859 q 631 881 659 873 l 631 926 l 887 926 m 541 -69 q 553 -134 553 -98 q 491 -244 553 -203 q 316 -292 429 -286 l 305 -227 q 370 -210 348 -220 q 401 -182 391 -200 q 412 -132 412 -163 q 406 -69 412 -101 l 541 -69 z "},"Ò":{"ha":966,"x_min":72,"x_max":894,"o":"m 471 -11 q 172 106 272 -11 q 72 455 72 222 q 120 716 72 608 q 263 880 169 824 q 488 937 357 937 q 792 820 690 937 q 894 475 894 704 q 864 255 894 347 q 778 104 833 163 q 645 17 722 45 q 471 -11 567 -11 m 288 473 q 337 169 288 269 q 487 68 386 68 q 576 97 539 68 q 635 175 612 125 q 668 295 658 226 q 677 447 677 364 q 656 673 677 582 q 592 811 635 764 q 481 857 549 857 q 335 763 383 857 q 288 473 288 669 m 445 1219 l 601 1043 l 557 996 l 281 1175 l 281 1219 l 445 1219 z "},"Ó":{"ha":966,"x_min":72,"x_max":894,"o":"m 471 -11 q 172 106 272 -11 q 72 455 72 222 q 120 716 72 608 q 263 880 169 824 q 488 937 357 937 q 792 820 690 937 q 894 475 894 704 q 864 255 894 347 q 778 104 833 163 q 645 17 722 45 q 471 -11 567 -11 m 288 473 q 337 169 288 269 q 487 68 386 68 q 576 97 539 68 q 635 175 612 125 q 668 295 658 226 q 677 447 677 364 q 656 673 677 582 q 592 811 635 764 q 481 857 549 857 q 335 763 383 857 q 288 473 288 669 m 684 1219 l 684 1175 l 409 996 l 365 1043 l 530 1219 l 684 1219 z "},"Ô":{"ha":966,"x_min":72,"x_max":894,"o":"m 471 -11 q 172 106 272 -11 q 72 455 72 222 q 120 716 72 608 q 263 880 169 824 q 488 937 357 937 q 792 820 690 937 q 894 475 894 704 q 864 255 894 347 q 778 104 833 163 q 645 17 722 45 q 471 -11 567 -11 m 288 473 q 337 169 288 269 q 487 68 386 68 q 576 97 539 68 q 635 175 612 125 q 668 295 658 226 q 677 447 677 364 q 656 673 677 582 q 592 811 635 764 q 481 857 549 857 q 335 763 383 857 q 288 473 288 669 m 543 1211 l 696 1040 l 648 995 l 486 1108 l 479 1108 l 316 995 l 269 1040 l 425 1211 l 543 1211 z "},"Õ":{"ha":966,"x_min":72,"x_max":894,"o":"m 471 -11 q 172 106 272 -11 q 72 455 72 222 q 120 716 72 608 q 263 880 169 824 q 488 937 357 937 q 792 820 690 937 q 894 475 894 704 q 864 255 894 347 q 778 104 833 163 q 645 17 722 45 q 471 -11 567 -11 m 288 473 q 337 169 288 269 q 487 68 386 68 q 576 97 539 68 q 635 175 612 125 q 668 295 658 226 q 677 447 677 364 q 656 673 677 582 q 592 811 635 764 q 481 857 549 857 q 335 763 383 857 q 288 473 288 669 m 659 1185 l 722 1157 q 648 1039 684 1077 q 574 1000 612 1000 q 528 1007 549 1000 q 469 1041 507 1015 q 435 1062 447 1056 q 413 1072 424 1069 q 390 1076 401 1076 q 362 1070 374 1076 q 337 1047 351 1064 q 307 1000 323 1031 l 244 1028 q 297 1120 276 1090 q 342 1168 319 1151 q 395 1185 366 1185 q 426 1181 412 1185 q 454 1171 441 1178 q 493 1147 468 1164 q 530 1123 518 1130 q 553 1113 542 1116 q 579 1109 564 1109 q 621 1127 603 1109 q 659 1185 639 1145 z "},"Ö":{"ha":966,"x_min":72,"x_max":894,"o":"m 471 -11 q 172 106 272 -11 q 72 455 72 222 q 120 716 72 608 q 263 880 169 824 q 488 937 357 937 q 792 820 690 937 q 894 475 894 704 q 864 255 894 347 q 778 104 833 163 q 645 17 722 45 q 471 -11 567 -11 m 288 473 q 337 169 288 269 q 487 68 386 68 q 576 97 539 68 q 635 175 612 125 q 668 295 658 226 q 677 447 677 364 q 656 673 677 582 q 592 811 635 764 q 481 857 549 857 q 335 763 383 857 q 288 473 288 669 m 423 1167 l 423 1018 l 281 1018 l 281 1167 l 423 1167 m 685 1167 l 685 1018 l 543 1018 l 543 1167 l 685 1167 z "},"Ō":{"ha":966,"x_min":72,"x_max":894,"o":"m 471 -11 q 172 106 272 -11 q 72 455 72 222 q 120 716 72 608 q 263 880 169 824 q 488 937 357 937 q 792 820 690 937 q 894 475 894 704 q 864 255 894 347 q 778 104 833 163 q 645 17 722 45 q 471 -11 567 -11 m 288 473 q 337 169 288 269 q 487 68 386 68 q 576 97 539 68 q 635 175 612 125 q 668 295 658 226 q 677 447 677 364 q 656 673 677 582 q 592 811 635 764 q 481 857 549 857 q 335 763 383 857 q 288 473 288 669 m 684 1038 l 281 1038 l 281 1142 l 684 1142 l 684 1038 z "},"Ŏ":{"ha":966,"x_min":72,"x_max":894,"o":"m 471 -11 q 172 106 272 -11 q 72 455 72 222 q 120 716 72 608 q 263 880 169 824 q 488 937 357 937 q 792 820 690 937 q 894 475 894 704 q 864 255 894 347 q 778 104 833 163 q 645 17 722 45 q 471 -11 567 -11 m 288 473 q 337 169 288 269 q 487 68 386 68 q 576 97 539 68 q 635 175 612 125 q 668 295 658 226 q 677 447 677 364 q 656 673 677 582 q 592 811 635 764 q 481 857 549 857 q 335 763 383 857 q 288 473 288 669 m 705 1194 q 626 1052 681 1100 q 477 1004 571 1004 q 337 1053 392 1004 q 261 1194 281 1101 l 327 1215 q 385 1137 350 1162 q 480 1112 420 1112 q 581 1138 544 1112 q 639 1215 618 1164 l 705 1194 z "},"Ő":{"ha":966,"x_min":72,"x_max":894,"o":"m 471 -11 q 172 106 272 -11 q 72 455 72 222 q 120 716 72 608 q 263 880 169 824 q 488 937 357 937 q 792 820 690 937 q 894 475 894 704 q 864 255 894 347 q 778 104 833 163 q 645 17 722 45 q 471 -11 567 -11 m 288 473 q 337 169 288 269 q 487 68 386 68 q 576 97 539 68 q 635 175 612 125 q 668 295 658 226 q 677 447 677 364 q 656 673 677 582 q 592 811 635 764 q 481 857 549 857 q 335 763 383 857 q 288 473 288 669 m 547 1219 l 547 1175 l 309 996 l 264 1043 l 425 1219 l 547 1219 m 785 1219 l 785 1175 l 526 996 l 482 1043 l 665 1219 l 785 1219 z "},"Ø":{"ha":966,"x_min":72,"x_max":894,"o":"m 94 -92 l 197 79 q 72 455 72 195 q 120 716 72 608 q 263 880 169 824 q 488 937 357 937 q 695 894 610 937 l 770 1017 l 873 1017 l 768 845 q 894 475 894 729 q 864 255 894 347 q 778 104 833 163 q 645 17 722 45 q 471 -11 567 -11 q 270 30 353 -11 l 195 -92 l 94 -92 m 304 250 l 621 773 q 481 857 572 857 q 333 763 381 857 q 284 473 284 668 q 304 250 284 341 m 660 672 l 344 151 q 487 68 393 68 q 577 97 540 68 q 637 175 614 125 q 671 295 661 226 q 681 447 681 364 q 660 672 681 580 z "},"Ǿ":{"ha":966,"x_min":72,"x_max":894,"o":"m 94 -92 l 197 79 q 72 455 72 195 q 120 716 72 608 q 263 880 169 824 q 488 937 357 937 q 695 894 610 937 l 770 1017 l 873 1017 l 768 845 q 894 475 894 729 q 864 255 894 347 q 778 104 833 163 q 645 17 722 45 q 471 -11 567 -11 q 270 30 353 -11 l 195 -92 l 94 -92 m 304 250 l 621 773 q 481 857 572 857 q 333 763 381 857 q 284 473 284 668 q 304 250 284 341 m 660 672 l 344 151 q 487 68 393 68 q 577 97 540 68 q 637 175 614 125 q 671 295 661 226 q 681 447 681 364 q 660 672 681 580 m 684 1219 l 684 1175 l 409 996 l 365 1043 l 530 1219 l 684 1219 z "},"Œ":{"ha":1322,"x_min":72,"x_max":1265,"o":"m 1258 926 l 1258 710 l 1165 710 q 1127 797 1143 774 q 1090 833 1112 820 q 1016 846 1068 846 l 871 846 l 871 521 l 958 521 q 1004 529 987 521 q 1033 557 1021 538 q 1054 618 1044 577 l 1131 618 l 1131 343 l 1054 343 q 1033 403 1044 382 q 1005 433 1021 424 q 958 441 989 441 l 871 441 l 871 79 l 1015 79 q 1055 82 1039 79 q 1084 93 1072 85 q 1109 113 1097 100 q 1130 141 1121 126 q 1149 180 1139 156 q 1172 248 1160 205 l 1265 248 l 1252 0 l 720 0 l 720 91 l 713 91 q 602 14 662 39 q 467 -11 541 -11 q 245 42 332 -11 q 115 199 157 96 q 72 455 72 302 q 119 715 72 608 q 260 880 167 823 q 483 937 353 937 q 612 915 557 937 q 713 848 668 894 l 720 848 l 720 926 l 1258 926 m 288 473 q 335 168 288 267 q 482 68 383 68 q 569 96 533 68 q 626 174 604 124 q 658 294 648 224 q 668 447 668 363 q 621 754 668 652 q 477 857 574 857 q 334 763 380 857 q 288 473 288 669 z "},"Ŕ":{"ha":919,"x_min":65,"x_max":921,"o":"m 421 0 l 65 0 l 65 45 q 105 59 90 52 q 126 81 119 67 q 136 116 134 95 q 138 170 138 138 l 138 755 q 136 808 138 787 q 127 844 134 830 q 105 866 120 857 q 65 881 91 874 l 65 926 l 460 926 q 596 915 541 926 q 694 880 652 903 q 754 832 730 861 q 792 765 779 804 q 805 676 805 727 q 782 562 805 610 q 719 483 758 515 q 612 424 679 452 l 612 417 q 695 359 663 395 q 755 267 728 323 l 798 175 q 854 82 826 113 q 921 45 882 52 l 921 0 l 660 0 q 571 161 621 54 l 518 277 q 477 351 494 329 q 443 380 460 372 q 387 389 425 389 l 348 389 l 348 170 q 353 99 348 119 q 371 66 357 79 q 421 45 385 54 l 421 0 m 348 845 l 348 468 l 415 468 q 505 483 469 468 q 561 523 540 497 q 589 585 581 549 q 597 662 597 620 q 553 800 597 754 q 425 846 510 846 q 348 845 366 846 m 665 1219 l 665 1175 l 389 996 l 345 1043 l 511 1219 l 665 1219 z "},"Ř":{"ha":919,"x_min":65,"x_max":921,"o":"m 421 0 l 65 0 l 65 45 q 105 59 90 52 q 126 81 119 67 q 136 116 134 95 q 138 170 138 138 l 138 755 q 136 808 138 787 q 127 844 134 830 q 105 866 120 857 q 65 881 91 874 l 65 926 l 460 926 q 596 915 541 926 q 694 880 652 903 q 754 832 730 861 q 792 765 779 804 q 805 676 805 727 q 782 562 805 610 q 719 483 758 515 q 612 424 679 452 l 612 417 q 695 359 663 395 q 755 267 728 323 l 798 175 q 854 82 826 113 q 921 45 882 52 l 921 0 l 660 0 q 571 161 621 54 l 518 277 q 477 351 494 329 q 443 380 460 372 q 387 389 425 389 l 348 389 l 348 170 q 353 99 348 119 q 371 66 357 79 q 421 45 385 54 l 421 0 m 348 845 l 348 468 l 415 468 q 505 483 469 468 q 561 523 540 497 q 589 585 581 549 q 597 662 597 620 q 553 800 597 754 q 425 846 510 846 q 348 845 366 846 m 403 1000 l 250 1170 l 298 1215 l 459 1102 l 467 1102 l 629 1215 l 676 1170 l 521 1000 l 403 1000 z "},"Ŗ":{"ha":919,"x_min":65,"x_max":921,"o":"m 421 0 l 65 0 l 65 45 q 105 59 90 52 q 126 81 119 67 q 136 116 134 95 q 138 170 138 138 l 138 755 q 136 808 138 787 q 127 844 134 830 q 105 866 120 857 q 65 881 91 874 l 65 926 l 460 926 q 596 915 541 926 q 694 880 652 903 q 754 832 730 861 q 792 765 779 804 q 805 676 805 727 q 782 562 805 610 q 719 483 758 515 q 612 424 679 452 l 612 417 q 695 359 663 395 q 755 267 728 323 l 798 175 q 854 82 826 113 q 921 45 882 52 l 921 0 l 660 0 q 571 161 621 54 l 518 277 q 477 351 494 329 q 443 380 460 372 q 387 389 425 389 l 348 389 l 348 170 q 353 99 348 119 q 371 66 357 79 q 421 45 385 54 l 421 0 m 348 845 l 348 468 l 415 468 q 505 483 469 468 q 561 523 540 497 q 589 585 581 549 q 597 662 597 620 q 553 800 597 754 q 425 846 510 846 q 348 845 366 846 m 551 -69 q 563 -134 563 -98 q 501 -244 563 -203 q 326 -292 439 -286 l 315 -227 q 380 -210 358 -220 q 412 -182 401 -200 q 422 -132 422 -163 q 416 -69 422 -101 l 551 -69 z "},"Ś":{"ha":713,"x_min":57,"x_max":664,"o":"m 150 229 q 207 108 167 148 q 323 68 246 68 q 395 82 363 68 q 446 126 427 96 q 465 201 465 156 q 450 274 465 243 q 399 333 434 305 q 303 392 365 361 q 208 447 250 418 q 135 510 165 475 q 88 585 104 544 q 71 676 71 625 q 113 818 71 760 q 232 906 154 876 q 414 937 311 937 q 529 930 474 937 q 654 907 584 924 l 654 711 l 562 711 q 529 796 549 764 q 479 842 509 827 q 404 857 449 857 q 334 844 365 857 q 286 803 304 830 q 269 739 269 777 q 284 670 269 699 q 335 614 299 642 q 439 551 371 587 q 571 466 523 508 q 641 375 618 425 q 664 261 664 326 q 625 116 664 178 q 513 22 587 55 q 342 -11 439 -11 q 198 -3 273 -11 q 57 20 123 5 l 57 229 l 150 229 m 565 1219 l 565 1175 l 290 996 l 245 1043 l 411 1219 l 565 1219 z "},"Ŝ":{"ha":713,"x_min":57,"x_max":664,"o":"m 150 229 q 207 108 167 148 q 323 68 246 68 q 395 82 363 68 q 446 126 427 96 q 465 201 465 156 q 450 274 465 243 q 399 333 434 305 q 303 392 365 361 q 208 447 250 418 q 135 510 165 475 q 88 585 104 544 q 71 676 71 625 q 113 818 71 760 q 232 906 154 876 q 414 937 311 937 q 529 930 474 937 q 654 907 584 924 l 654 711 l 562 711 q 529 796 549 764 q 479 842 509 827 q 404 857 449 857 q 334 844 365 857 q 286 803 304 830 q 269 739 269 777 q 284 670 269 699 q 335 614 299 642 q 439 551 371 587 q 571 466 523 508 q 641 375 618 425 q 664 261 664 326 q 625 116 664 178 q 513 22 587 55 q 342 -11 439 -11 q 198 -3 273 -11 q 57 20 123 5 l 57 229 l 150 229 m 423 1211 l 576 1040 l 528 995 l 367 1108 l 359 1108 l 197 995 l 150 1040 l 305 1211 l 423 1211 z "},"Š":{"ha":713,"x_min":57,"x_max":664,"o":"m 150 229 q 207 108 167 148 q 323 68 246 68 q 395 82 363 68 q 446 126 427 96 q 465 201 465 156 q 450 274 465 243 q 399 333 434 305 q 303 392 365 361 q 208 447 250 418 q 135 510 165 475 q 88 585 104 544 q 71 676 71 625 q 113 818 71 760 q 232 906 154 876 q 414 937 311 937 q 529 930 474 937 q 654 907 584 924 l 654 711 l 562 711 q 529 796 549 764 q 479 842 509 827 q 404 857 449 857 q 334 844 365 857 q 286 803 304 830 q 269 739 269 777 q 284 670 269 699 q 335 614 299 642 q 439 551 371 587 q 571 466 523 508 q 641 375 618 425 q 664 261 664 326 q 625 116 664 178 q 513 22 587 55 q 342 -11 439 -11 q 198 -3 273 -11 q 57 20 123 5 l 57 229 l 150 229 m 303 1000 l 150 1170 l 198 1215 l 359 1102 l 367 1102 l 530 1215 l 576 1170 l 421 1000 l 303 1000 z "},"Ş":{"ha":713,"x_min":57,"x_max":664,"o":"m 150 229 q 207 108 167 148 q 323 68 246 68 q 395 82 363 68 q 446 126 427 96 q 465 201 465 156 q 450 274 465 243 q 399 333 434 305 q 303 392 365 361 q 208 447 250 418 q 135 510 165 475 q 88 585 104 544 q 71 676 71 625 q 113 818 71 760 q 232 906 154 876 q 414 937 311 937 q 529 930 474 937 q 654 907 584 924 l 654 711 l 562 711 q 529 796 549 764 q 479 842 509 827 q 404 857 449 857 q 334 844 365 857 q 286 803 304 830 q 269 739 269 777 q 284 670 269 699 q 335 614 299 642 q 439 551 371 587 q 571 466 523 508 q 641 375 618 425 q 664 261 664 326 q 616 103 664 168 q 478 9 568 39 l 399 -46 q 416 -84 410 -62 q 422 -134 422 -107 q 360 -244 422 -203 q 185 -292 298 -286 l 174 -227 q 255 -200 230 -219 q 281 -141 281 -181 q 277 -98 281 -116 l 277 -69 l 368 -9 q 342 -11 355 -11 q 198 -3 273 -11 q 57 20 123 5 l 57 229 l 150 229 z "},"Ș":{"ha":713,"x_min":57,"x_max":664,"o":"m 150 229 q 207 108 167 148 q 323 68 246 68 q 395 82 363 68 q 446 126 427 96 q 465 201 465 156 q 450 274 465 243 q 399 333 434 305 q 303 392 365 361 q 208 447 250 418 q 135 510 165 475 q 88 585 104 544 q 71 676 71 625 q 113 818 71 760 q 232 906 154 876 q 414 937 311 937 q 529 930 474 937 q 654 907 584 924 l 654 711 l 562 711 q 529 796 549 764 q 479 842 509 827 q 404 857 449 857 q 334 844 365 857 q 286 803 304 830 q 269 739 269 777 q 284 670 269 699 q 335 614 299 642 q 439 551 371 587 q 571 466 523 508 q 641 375 618 425 q 664 261 664 326 q 625 116 664 178 q 513 22 587 55 q 342 -11 439 -11 q 198 -3 273 -11 q 57 20 123 5 l 57 229 l 150 229 m 441 -69 q 453 -134 453 -98 q 391 -244 453 -203 q 216 -292 329 -286 l 205 -227 q 270 -210 248 -220 q 302 -182 292 -200 q 312 -132 312 -163 q 307 -69 312 -101 l 441 -69 z "},"Ť":{"ha":888,"x_min":45,"x_max":843,"o":"m 257 0 l 257 45 q 302 57 286 50 q 327 79 319 65 q 337 116 335 94 q 339 170 339 138 l 339 846 l 284 846 q 222 837 243 846 q 184 807 200 827 q 157 752 168 787 q 138 688 145 718 l 45 688 l 45 926 l 843 926 l 843 688 l 750 688 q 730 755 737 734 q 713 792 722 777 q 694 818 704 808 q 672 834 684 828 q 643 843 661 840 q 598 846 626 846 l 549 846 l 549 170 q 551 116 549 134 q 559 85 553 97 q 572 67 564 74 q 594 54 580 60 q 631 45 608 48 l 631 0 l 257 0 m 384 1000 l 231 1170 l 279 1215 l 440 1102 l 448 1102 l 610 1215 l 657 1170 l 502 1000 l 384 1000 z "},"Ț":{"ha":888,"x_min":45,"x_max":843,"o":"m 257 0 l 257 45 q 302 57 286 50 q 327 79 319 65 q 337 116 335 94 q 339 170 339 138 l 339 846 l 284 846 q 222 837 243 846 q 184 807 200 827 q 157 752 168 787 q 138 688 145 718 l 45 688 l 45 926 l 843 926 l 843 688 l 750 688 q 730 755 737 734 q 713 792 722 777 q 694 818 704 808 q 672 834 684 828 q 643 843 661 840 q 598 846 626 846 l 549 846 l 549 170 q 551 116 549 134 q 559 85 553 97 q 572 67 564 74 q 594 54 580 60 q 631 45 608 48 l 631 0 l 257 0 m 517 -69 q 528 -134 528 -98 q 466 -244 528 -203 q 292 -292 404 -286 l 281 -227 q 345 -210 323 -220 q 377 -182 367 -200 q 387 -132 387 -163 q 382 -69 387 -101 l 517 -69 z "},"Ŧ":{"ha":888,"x_min":45,"x_max":843,"o":"m 713 411 l 549 411 l 549 170 q 551 116 549 134 q 559 85 553 97 q 572 67 564 74 q 594 54 580 60 q 631 45 608 48 l 631 0 l 257 0 l 257 45 q 302 57 286 50 q 327 79 319 65 q 337 116 335 94 q 339 170 339 138 l 339 411 l 175 411 l 175 496 l 339 496 l 339 846 l 284 846 q 222 837 243 846 q 184 807 200 827 q 157 752 168 787 q 138 688 145 718 l 45 688 l 45 926 l 843 926 l 843 688 l 750 688 q 730 755 737 734 q 713 792 722 777 q 694 818 704 808 q 672 834 684 828 q 643 843 661 840 q 598 846 626 846 l 549 846 l 549 496 l 713 496 l 713 411 z "},"Ù":{"ha":939,"x_min":52,"x_max":889,"o":"m 663 755 q 658 826 663 806 q 641 859 654 846 q 591 881 628 871 l 591 926 l 889 926 l 889 881 q 850 866 865 874 q 829 845 836 859 q 819 809 821 831 q 817 755 817 788 l 817 332 q 804 191 817 248 q 762 96 790 134 q 691 33 733 57 q 595 -1 648 9 q 477 -11 543 -11 q 314 9 380 -11 q 206 70 248 29 q 144 168 164 110 q 124 316 124 225 l 124 755 q 122 808 124 787 q 114 844 121 830 q 92 866 106 857 q 52 881 77 874 l 52 926 l 408 926 l 408 881 q 367 865 380 873 q 347 844 353 857 q 337 812 340 832 q 334 755 334 793 l 334 307 q 341 210 334 254 q 366 134 348 165 q 416 85 384 102 q 498 68 448 68 q 601 96 567 68 q 649 174 635 124 q 663 323 663 224 l 663 755 m 428 1219 l 584 1043 l 540 996 l 264 1175 l 264 1219 l 428 1219 z "},"Ú":{"ha":939,"x_min":52,"x_max":889,"o":"m 663 755 q 658 826 663 806 q 641 859 654 846 q 591 881 628 871 l 591 926 l 889 926 l 889 881 q 850 866 865 874 q 829 845 836 859 q 819 809 821 831 q 817 755 817 788 l 817 332 q 804 191 817 248 q 762 96 790 134 q 691 33 733 57 q 595 -1 648 9 q 477 -11 543 -11 q 314 9 380 -11 q 206 70 248 29 q 144 168 164 110 q 124 316 124 225 l 124 755 q 122 808 124 787 q 114 844 121 830 q 92 866 106 857 q 52 881 77 874 l 52 926 l 408 926 l 408 881 q 367 865 380 873 q 347 844 353 857 q 337 812 340 832 q 334 755 334 793 l 334 307 q 341 210 334 254 q 366 134 348 165 q 416 85 384 102 q 498 68 448 68 q 601 96 567 68 q 649 174 635 124 q 663 323 663 224 l 663 755 m 719 1219 l 719 1175 l 444 996 l 399 1043 l 565 1219 l 719 1219 z "},"Û":{"ha":939,"x_min":52,"x_max":889,"o":"m 663 755 q 658 826 663 806 q 641 859 654 846 q 591 881 628 871 l 591 926 l 889 926 l 889 881 q 850 866 865 874 q 829 845 836 859 q 819 809 821 831 q 817 755 817 788 l 817 332 q 804 191 817 248 q 762 96 790 134 q 691 33 733 57 q 595 -1 648 9 q 477 -11 543 -11 q 314 9 380 -11 q 206 70 248 29 q 144 168 164 110 q 124 316 124 225 l 124 755 q 122 808 124 787 q 114 844 121 830 q 92 866 106 857 q 52 881 77 874 l 52 926 l 408 926 l 408 881 q 367 865 380 873 q 347 844 353 857 q 337 812 340 832 q 334 755 334 793 l 334 307 q 341 210 334 254 q 366 134 348 165 q 416 85 384 102 q 498 68 448 68 q 601 96 567 68 q 649 174 635 124 q 663 323 663 224 l 663 755 m 550 1211 l 703 1040 l 655 995 l 494 1108 l 486 1108 l 323 995 l 277 1040 l 432 1211 l 550 1211 z "},"Ũ":{"ha":939,"x_min":52,"x_max":889,"o":"m 663 755 q 658 826 663 806 q 641 859 654 846 q 591 881 628 871 l 591 926 l 889 926 l 889 881 q 850 866 865 874 q 829 845 836 859 q 819 809 821 831 q 817 755 817 788 l 817 332 q 804 191 817 248 q 762 96 790 134 q 691 33 733 57 q 595 -1 648 9 q 477 -11 543 -11 q 314 9 380 -11 q 206 70 248 29 q 144 168 164 110 q 124 316 124 225 l 124 755 q 122 808 124 787 q 114 844 121 830 q 92 866 106 857 q 52 881 77 874 l 52 926 l 408 926 l 408 881 q 367 865 380 873 q 347 844 353 857 q 337 812 340 832 q 334 755 334 793 l 334 307 q 341 210 334 254 q 366 134 348 165 q 416 85 384 102 q 498 68 448 68 q 601 96 567 68 q 649 174 635 124 q 663 323 663 224 l 663 755 m 665 1185 l 729 1157 q 654 1039 690 1077 q 581 1000 618 1000 q 535 1007 555 1000 q 475 1041 514 1015 q 442 1062 454 1056 q 419 1072 431 1069 q 397 1076 408 1076 q 369 1070 381 1076 q 343 1047 357 1064 q 314 1000 330 1031 l 251 1028 q 304 1120 283 1090 q 349 1168 326 1151 q 402 1185 373 1185 q 433 1181 418 1185 q 461 1171 448 1178 q 500 1147 475 1164 q 537 1123 525 1130 q 560 1113 549 1116 q 586 1109 571 1109 q 628 1127 610 1109 q 665 1185 646 1145 z "},"Ü":{"ha":939,"x_min":52,"x_max":889,"o":"m 663 755 q 658 826 663 806 q 641 859 654 846 q 591 881 628 871 l 591 926 l 889 926 l 889 881 q 850 866 865 874 q 829 845 836 859 q 819 809 821 831 q 817 755 817 788 l 817 332 q 804 191 817 248 q 762 96 790 134 q 691 33 733 57 q 595 -1 648 9 q 477 -11 543 -11 q 314 9 380 -11 q 206 70 248 29 q 144 168 164 110 q 124 316 124 225 l 124 755 q 122 808 124 787 q 114 844 121 830 q 92 866 106 857 q 52 881 77 874 l 52 926 l 408 926 l 408 881 q 367 865 380 873 q 347 844 353 857 q 337 812 340 832 q 334 755 334 793 l 334 307 q 341 210 334 254 q 366 134 348 165 q 416 85 384 102 q 498 68 448 68 q 601 96 567 68 q 649 174 635 124 q 663 323 663 224 l 663 755 m 430 1167 l 430 1018 l 288 1018 l 288 1167 l 430 1167 m 692 1167 l 692 1018 l 550 1018 l 550 1167 l 692 1167 z "},"Ū":{"ha":939,"x_min":52,"x_max":889,"o":"m 663 755 q 658 826 663 806 q 641 859 654 846 q 591 881 628 871 l 591 926 l 889 926 l 889 881 q 850 866 865 874 q 829 845 836 859 q 819 809 821 831 q 817 755 817 788 l 817 332 q 804 191 817 248 q 762 96 790 134 q 691 33 733 57 q 595 -1 648 9 q 477 -11 543 -11 q 314 9 380 -11 q 206 70 248 29 q 144 168 164 110 q 124 316 124 225 l 124 755 q 122 808 124 787 q 114 844 121 830 q 92 866 106 857 q 52 881 77 874 l 52 926 l 408 926 l 408 881 q 367 865 380 873 q 347 844 353 857 q 337 812 340 832 q 334 755 334 793 l 334 307 q 341 210 334 254 q 366 134 348 165 q 416 85 384 102 q 498 68 448 68 q 601 96 567 68 q 649 174 635 124 q 663 323 663 224 l 663 755 m 691 1038 l 288 1038 l 288 1142 l 691 1142 l 691 1038 z "},"Ŭ":{"ha":939,"x_min":52,"x_max":889,"o":"m 663 755 q 658 826 663 806 q 641 859 654 846 q 591 881 628 871 l 591 926 l 889 926 l 889 881 q 850 866 865 874 q 829 845 836 859 q 819 809 821 831 q 817 755 817 788 l 817 332 q 804 191 817 248 q 762 96 790 134 q 691 33 733 57 q 595 -1 648 9 q 477 -11 543 -11 q 314 9 380 -11 q 206 70 248 29 q 144 168 164 110 q 124 316 124 225 l 124 755 q 122 808 124 787 q 114 844 121 830 q 92 866 106 857 q 52 881 77 874 l 52 926 l 408 926 l 408 881 q 367 865 380 873 q 347 844 353 857 q 337 812 340 832 q 334 755 334 793 l 334 307 q 341 210 334 254 q 366 134 348 165 q 416 85 384 102 q 498 68 448 68 q 601 96 567 68 q 649 174 635 124 q 663 323 663 224 l 663 755 m 711 1194 q 633 1052 688 1100 q 484 1004 578 1004 q 343 1053 399 1004 q 268 1194 288 1101 l 334 1215 q 392 1137 357 1162 q 487 1112 427 1112 q 588 1138 551 1112 q 646 1215 625 1164 l 711 1194 z "},"Ů":{"ha":939,"x_min":52,"x_max":889,"o":"m 663 755 q 658 826 663 806 q 641 859 654 846 q 591 881 628 871 l 591 926 l 889 926 l 889 881 q 850 866 865 874 q 829 845 836 859 q 819 809 821 831 q 817 755 817 788 l 817 332 q 804 191 817 248 q 762 96 790 134 q 691 33 733 57 q 595 -1 648 9 q 477 -11 543 -11 q 314 9 380 -11 q 206 70 248 29 q 144 168 164 110 q 124 316 124 225 l 124 755 q 122 808 124 787 q 114 844 121 830 q 92 866 106 857 q 52 881 77 874 l 52 926 l 408 926 l 408 881 q 367 865 380 873 q 347 844 353 857 q 337 812 340 832 q 334 755 334 793 l 334 307 q 341 210 334 254 q 366 134 348 165 q 416 85 384 102 q 498 68 448 68 q 601 96 567 68 q 649 174 635 124 q 663 323 663 224 l 663 755 m 486 960 q 370 996 410 960 q 330 1100 330 1031 q 351 1180 330 1147 q 410 1229 372 1213 q 495 1245 448 1245 q 611 1210 572 1245 q 650 1106 650 1174 q 607 997 650 1035 q 486 960 564 960 m 411 1105 q 431 1036 411 1061 q 492 1012 452 1012 q 549 1035 529 1012 q 569 1099 569 1057 q 548 1168 569 1144 q 490 1193 527 1193 q 431 1170 451 1193 q 411 1105 411 1147 z "},"Ű":{"ha":939,"x_min":52,"x_max":889,"o":"m 663 755 q 658 826 663 806 q 641 859 654 846 q 591 881 628 871 l 591 926 l 889 926 l 889 881 q 850 866 865 874 q 829 845 836 859 q 819 809 821 831 q 817 755 817 788 l 817 332 q 804 191 817 248 q 762 96 790 134 q 691 33 733 57 q 595 -1 648 9 q 477 -11 543 -11 q 314 9 380 -11 q 206 70 248 29 q 144 168 164 110 q 124 316 124 225 l 124 755 q 122 808 124 787 q 114 844 121 830 q 92 866 106 857 q 52 881 77 874 l 52 926 l 408 926 l 408 881 q 367 865 380 873 q 347 844 353 857 q 337 812 340 832 q 334 755 334 793 l 334 307 q 341 210 334 254 q 366 134 348 165 q 416 85 384 102 q 498 68 448 68 q 601 96 567 68 q 649 174 635 124 q 663 323 663 224 l 663 755 m 568 1219 l 568 1175 l 329 996 l 285 1043 l 445 1219 l 568 1219 m 806 1219 l 806 1175 l 547 996 l 503 1043 l 686 1219 l 806 1219 z "},"Ų":{"ha":939,"x_min":52,"x_max":889,"o":"m 124 755 q 122 808 124 787 q 114 844 121 830 q 92 866 106 857 q 52 881 77 874 l 52 926 l 408 926 l 408 881 q 367 865 380 873 q 347 844 353 857 q 337 812 340 832 q 334 755 334 793 l 334 307 q 341 210 334 254 q 366 134 348 165 q 416 85 384 102 q 498 68 448 68 q 601 96 567 68 q 649 174 635 124 q 663 323 663 224 l 663 755 q 658 826 663 806 q 641 859 654 846 q 591 881 628 871 l 591 926 l 889 926 l 889 881 q 850 866 865 874 q 829 845 836 859 q 819 809 821 831 q 817 755 817 788 l 817 332 q 795 161 817 224 q 722 54 772 98 q 644 -21 671 10 q 601 -84 616 -52 q 585 -151 585 -116 q 601 -201 585 -184 q 645 -218 617 -218 q 681 -212 665 -218 q 708 -197 696 -205 l 734 -255 q 678 -284 709 -272 q 612 -296 647 -296 q 559 -289 585 -296 q 514 -269 534 -283 q 483 -231 494 -255 q 471 -174 471 -208 q 498 -86 471 -130 q 582 -2 526 -42 q 477 -11 525 -11 q 314 9 380 -11 q 206 70 248 29 q 144 168 164 110 q 124 316 124 225 l 124 755 z "},"Ẁ":{"ha":1335,"x_min":18,"x_max":1337,"o":"m 1101 693 q 1117 756 1110 724 q 1124 810 1124 787 q 1106 862 1124 845 q 1055 881 1089 878 l 1055 926 l 1337 926 l 1337 881 q 1295 862 1312 876 q 1265 823 1278 848 q 1231 739 1251 798 l 977 -5 l 815 -5 l 662 632 l 480 -5 l 311 -5 l 106 755 q 80 832 92 810 q 54 865 68 854 q 18 881 40 876 l 18 926 l 383 926 l 383 881 q 331 861 348 877 q 314 817 314 846 q 334 705 314 781 l 451 234 l 646 926 l 799 926 l 958 234 l 1101 693 m 672 1219 l 828 1043 l 784 996 l 508 1175 l 508 1219 l 672 1219 z "},"Ẃ":{"ha":1335,"x_min":18,"x_max":1337,"o":"m 1101 693 q 1117 756 1110 724 q 1124 810 1124 787 q 1106 862 1124 845 q 1055 881 1089 878 l 1055 926 l 1337 926 l 1337 881 q 1295 862 1312 876 q 1265 823 1278 848 q 1231 739 1251 798 l 977 -5 l 815 -5 l 662 632 l 480 -5 l 311 -5 l 106 755 q 80 832 92 810 q 54 865 68 854 q 18 881 40 876 l 18 926 l 383 926 l 383 881 q 331 861 348 877 q 314 817 314 846 q 334 705 314 781 l 451 234 l 646 926 l 799 926 l 958 234 l 1101 693 m 912 1219 l 912 1175 l 637 996 l 593 1043 l 758 1219 l 912 1219 z "},"Ŵ":{"ha":1335,"x_min":18,"x_max":1337,"o":"m 1101 693 q 1117 756 1110 724 q 1124 810 1124 787 q 1106 862 1124 845 q 1055 881 1089 878 l 1055 926 l 1337 926 l 1337 881 q 1295 862 1312 876 q 1265 823 1278 848 q 1231 739 1251 798 l 977 -5 l 815 -5 l 662 632 l 480 -5 l 311 -5 l 106 755 q 80 832 92 810 q 54 865 68 854 q 18 881 40 876 l 18 926 l 383 926 l 383 881 q 331 861 348 877 q 314 817 314 846 q 334 705 314 781 l 451 234 l 646 926 l 799 926 l 958 234 l 1101 693 m 770 1211 l 924 1040 l 876 995 l 714 1108 l 707 1108 l 544 995 l 497 1040 l 652 1211 l 770 1211 z "},"Ẅ":{"ha":1335,"x_min":18,"x_max":1337,"o":"m 1101 693 q 1117 756 1110 724 q 1124 810 1124 787 q 1106 862 1124 845 q 1055 881 1089 878 l 1055 926 l 1337 926 l 1337 881 q 1295 862 1312 876 q 1265 823 1278 848 q 1231 739 1251 798 l 977 -5 l 815 -5 l 662 632 l 480 -5 l 311 -5 l 106 755 q 80 832 92 810 q 54 865 68 854 q 18 881 40 876 l 18 926 l 383 926 l 383 881 q 331 861 348 877 q 314 817 314 846 q 334 705 314 781 l 451 234 l 646 926 l 799 926 l 958 234 l 1101 693 m 650 1167 l 650 1018 l 509 1018 l 509 1167 l 650 1167 m 912 1167 l 912 1018 l 770 1018 l 770 1167 l 912 1167 z "},"Ỳ":{"ha":840,"x_min":12,"x_max":847,"o":"m 517 356 l 517 170 q 519 116 517 134 q 526 85 521 97 q 539 67 532 74 q 561 54 547 60 q 599 45 575 48 l 599 0 l 224 0 l 224 45 q 269 57 252 50 q 294 79 286 64 q 304 115 302 93 q 307 170 307 137 l 307 356 l 123 744 q 85 817 99 793 q 59 857 70 845 q 38 874 47 869 q 12 881 28 879 l 12 926 l 373 926 l 373 881 q 321 829 321 874 q 329 787 321 812 q 357 722 338 763 l 471 467 l 595 716 q 621 778 614 753 q 628 827 628 803 q 614 866 628 852 q 575 881 600 880 l 575 926 l 847 926 l 847 881 q 817 870 829 877 q 791 847 805 863 q 757 802 777 832 q 711 722 737 771 l 517 356 m 384 1219 l 540 1043 l 496 996 l 220 1175 l 220 1219 l 384 1219 z "},"Ý":{"ha":840,"x_min":12,"x_max":847,"o":"m 517 356 l 517 170 q 519 116 517 134 q 526 85 521 97 q 539 67 532 74 q 561 54 547 60 q 599 45 575 48 l 599 0 l 224 0 l 224 45 q 269 57 252 50 q 294 79 286 64 q 304 115 302 93 q 307 170 307 137 l 307 356 l 123 744 q 85 817 99 793 q 59 857 70 845 q 38 874 47 869 q 12 881 28 879 l 12 926 l 373 926 l 373 881 q 321 829 321 874 q 329 787 321 812 q 357 722 338 763 l 471 467 l 595 716 q 621 778 614 753 q 628 827 628 803 q 614 866 628 852 q 575 881 600 880 l 575 926 l 847 926 l 847 881 q 817 870 829 877 q 791 847 805 863 q 757 802 777 832 q 711 722 737 771 l 517 356 m 677 1219 l 677 1175 l 402 996 l 358 1043 l 524 1219 l 677 1219 z "},"Ŷ":{"ha":840,"x_min":12,"x_max":847,"o":"m 517 356 l 517 170 q 519 116 517 134 q 526 85 521 97 q 539 67 532 74 q 561 54 547 60 q 599 45 575 48 l 599 0 l 224 0 l 224 45 q 269 57 252 50 q 294 79 286 64 q 304 115 302 93 q 307 170 307 137 l 307 356 l 123 744 q 85 817 99 793 q 59 857 70 845 q 38 874 47 869 q 12 881 28 879 l 12 926 l 373 926 l 373 881 q 321 829 321 874 q 329 787 321 812 q 357 722 338 763 l 471 467 l 595 716 q 621 778 614 753 q 628 827 628 803 q 614 866 628 852 q 575 881 600 880 l 575 926 l 847 926 l 847 881 q 817 870 829 877 q 791 847 805 863 q 757 802 777 832 q 711 722 737 771 l 517 356 m 505 1211 l 659 1040 l 610 995 l 449 1108 l 441 1108 l 279 995 l 232 1040 l 387 1211 l 505 1211 z "},"Ÿ":{"ha":840,"x_min":12,"x_max":847,"o":"m 517 356 l 517 170 q 519 116 517 134 q 526 85 521 97 q 539 67 532 74 q 561 54 547 60 q 599 45 575 48 l 599 0 l 224 0 l 224 45 q 269 57 252 50 q 294 79 286 64 q 304 115 302 93 q 307 170 307 137 l 307 356 l 123 744 q 85 817 99 793 q 59 857 70 845 q 38 874 47 869 q 12 881 28 879 l 12 926 l 373 926 l 373 881 q 321 829 321 874 q 329 787 321 812 q 357 722 338 763 l 471 467 l 595 716 q 621 778 614 753 q 628 827 628 803 q 614 866 628 852 q 575 881 600 880 l 575 926 l 847 926 l 847 881 q 817 870 829 877 q 791 847 805 863 q 757 802 777 832 q 711 722 737 771 l 517 356 m 385 1167 l 385 1018 l 243 1018 l 243 1167 l 385 1167 m 647 1167 l 647 1018 l 505 1018 l 505 1167 l 647 1167 z "},"Ź":{"ha":787,"x_min":54,"x_max":738,"o":"m 304 81 l 498 81 q 560 96 535 81 q 604 144 585 111 q 642 258 622 177 l 734 258 l 734 0 l 54 0 l 54 45 l 488 845 l 304 845 q 234 829 260 845 q 190 777 208 812 q 158 681 172 741 l 65 681 l 65 926 l 738 926 l 738 881 l 304 81 m 595 1219 l 595 1175 l 320 996 l 276 1043 l 441 1219 l 595 1219 z "},"Ž":{"ha":787,"x_min":54,"x_max":738,"o":"m 304 81 l 498 81 q 560 96 535 81 q 604 144 585 111 q 642 258 622 177 l 734 258 l 734 0 l 54 0 l 54 45 l 488 845 l 304 845 q 234 829 260 845 q 190 777 208 812 q 158 681 172 741 l 65 681 l 65 926 l 738 926 l 738 881 l 304 81 m 334 1000 l 180 1170 l 229 1215 l 390 1102 l 397 1102 l 560 1215 l 607 1170 l 452 1000 l 334 1000 z "},"Ż":{"ha":787,"x_min":54,"x_max":738,"o":"m 304 81 l 498 81 q 560 96 535 81 q 604 144 585 111 q 642 258 622 177 l 734 258 l 734 0 l 54 0 l 54 45 l 488 845 l 304 845 q 234 829 260 845 q 190 777 208 812 q 158 681 172 741 l 65 681 l 65 926 l 738 926 l 738 881 l 304 81 m 486 1176 l 486 1010 l 300 1010 l 300 1176 l 486 1176 z "},"Ŋ":{"ha":943,"x_min":63,"x_max":887,"o":"m 814 34 q 792 -141 814 -74 q 720 -242 770 -208 q 587 -275 670 -275 q 475 -260 534 -275 l 475 -107 l 557 -107 q 575 -150 562 -137 q 614 -163 589 -163 q 680 -124 657 -163 q 703 -14 703 -85 l 703 0 l 642 0 l 336 528 q 245 696 274 636 l 239 696 q 246 389 246 551 l 246 170 q 251 98 246 119 q 270 66 256 78 q 319 45 283 54 l 316 0 l 63 0 l 63 45 q 103 60 88 52 q 124 82 117 68 q 134 117 132 96 q 136 170 136 138 l 136 756 q 131 826 136 807 q 113 859 127 846 q 63 881 99 871 l 63 926 l 338 926 l 578 509 q 636 402 600 469 q 700 275 672 335 l 711 275 q 703 629 703 437 l 703 755 q 700 819 703 800 q 689 849 696 839 q 670 866 682 859 q 631 881 659 873 l 631 926 l 887 926 l 887 881 q 849 866 860 872 q 830 850 838 860 q 818 819 822 840 q 814 755 814 798 l 814 34 z "},"Ð":{"ha":985,"x_min":28,"x_max":915,"o":"m 424 926 q 613 908 537 926 q 748 852 689 890 q 843 762 807 814 q 897 640 880 709 q 915 483 915 570 q 890 293 915 377 q 816 149 865 209 q 708 61 772 96 q 560 12 644 26 q 379 0 488 0 l 71 0 l 71 45 q 111 59 96 52 q 133 81 125 67 q 142 116 140 95 q 144 170 144 138 l 144 442 l 28 442 l 28 528 l 144 528 l 144 755 q 142 808 144 787 q 133 844 140 830 q 112 866 126 857 q 71 881 97 874 l 71 926 l 424 926 m 532 442 l 354 442 l 354 82 q 416 80 366 80 q 505 90 467 80 q 571 118 541 99 q 621 163 598 136 q 661 235 645 195 q 688 335 679 278 q 696 467 696 392 q 662 681 696 595 q 565 806 627 766 q 414 846 502 846 q 354 845 372 846 l 354 528 l 532 528 l 532 442 z "},"Þ":{"ha":857,"x_min":65,"x_max":802,"o":"m 421 881 q 382 866 397 874 q 360 844 368 858 q 350 810 352 831 q 348 757 348 789 l 459 757 q 716 695 631 757 q 802 507 802 634 q 762 350 802 416 q 646 249 722 283 q 456 215 570 215 l 397 215 q 348 216 372 215 l 348 170 q 350 121 348 138 q 354 96 351 105 q 360 80 356 87 q 372 66 365 72 q 393 54 380 60 q 430 45 407 49 l 430 0 l 65 0 l 65 45 q 105 59 90 52 q 126 81 119 67 q 136 116 134 95 q 138 170 138 138 l 138 755 q 136 809 138 788 q 127 844 134 830 q 105 866 120 858 q 65 881 91 874 l 65 926 l 421 926 l 421 881 m 348 676 l 348 294 l 406 294 q 514 314 474 294 q 573 375 554 333 q 593 488 593 417 q 573 601 593 559 q 517 660 554 642 q 421 677 479 677 q 348 676 374 677 z "},"a":{"ha":743,"x_min":41,"x_max":705,"o":"m 459 89 l 449 92 q 341 14 393 38 q 229 -11 288 -11 q 128 11 171 -11 q 63 70 85 32 q 41 157 41 108 q 139 314 41 257 q 436 387 237 372 l 436 451 q 422 548 436 514 q 385 596 408 583 q 332 610 363 610 q 278 600 300 610 q 237 558 255 589 q 210 475 218 528 l 81 475 l 81 598 q 185 641 144 626 q 267 666 227 656 q 339 680 307 675 q 403 684 371 684 q 534 662 485 684 q 608 591 583 640 q 632 456 632 543 l 632 192 q 634 123 632 147 q 641 86 636 98 q 652 67 645 75 q 668 56 659 60 q 705 45 678 52 l 705 0 l 453 0 l 459 89 m 437 320 q 281 281 332 317 q 231 174 231 244 q 254 110 231 132 q 317 87 277 87 q 376 104 349 87 q 420 149 404 121 q 437 208 437 176 l 437 320 z "},"b":{"ha":821,"x_min":31,"x_max":756,"o":"m 108 737 q 107 812 108 786 q 103 857 106 838 q 92 886 100 876 q 72 904 85 897 q 31 917 60 911 l 31 962 l 220 971 l 304 971 l 304 583 l 304 582 q 376 640 345 619 q 441 672 406 660 q 515 684 475 684 q 696 598 635 684 q 756 344 756 513 q 721 148 756 227 q 614 29 685 68 q 441 -11 544 -11 q 245 28 334 -11 l 195 -11 l 108 1 l 108 737 m 304 222 q 333 99 304 139 q 422 60 361 60 q 517 125 484 60 q 550 312 550 191 q 521 511 550 446 q 430 577 492 577 q 371 562 400 577 q 323 517 342 546 q 304 454 304 488 l 304 222 z "},"c":{"ha":651,"x_min":62,"x_max":627,"o":"m 575 174 l 627 111 q 499 17 561 45 q 363 -11 437 -11 q 139 76 216 -11 q 62 327 62 162 q 104 519 62 438 q 226 642 146 600 q 408 684 305 684 q 517 676 463 684 q 616 654 572 668 l 616 491 l 482 491 q 452 584 472 555 q 393 613 431 613 q 346 601 368 613 q 306 557 323 588 q 278 474 288 526 q 268 343 268 422 q 283 209 268 264 q 331 125 298 155 q 418 96 364 96 q 493 113 458 96 q 575 174 528 130 z "},"d":{"ha":829,"x_min":65,"x_max":788,"o":"m 713 198 q 715 123 713 146 q 723 85 717 99 q 743 61 729 71 q 788 45 756 52 l 788 0 l 604 -6 l 522 -6 l 528 92 l 517 92 q 415 16 469 43 q 311 -11 361 -11 q 126 74 188 -11 q 65 329 65 159 q 102 523 65 444 q 213 643 140 602 q 391 684 287 684 q 449 680 420 684 q 517 665 478 676 l 517 727 q 515 830 517 800 q 507 876 513 860 q 488 901 500 892 q 441 916 475 909 l 441 962 l 629 971 l 713 971 l 713 198 m 517 450 q 490 573 517 533 q 404 613 462 613 q 332 583 362 613 q 287 496 302 553 q 271 361 271 439 q 300 161 271 227 q 391 96 330 96 q 449 110 420 96 q 498 155 478 125 q 517 224 517 185 l 517 450 z "},"e":{"ha":737,"x_min":62,"x_max":690,"o":"m 672 123 q 535 20 603 50 q 379 -11 467 -11 q 141 76 221 -11 q 62 332 62 162 q 103 522 62 442 q 219 643 144 602 q 394 684 294 684 q 502 669 456 684 q 582 630 549 655 q 637 568 615 604 q 675 471 663 526 q 690 334 689 414 l 260 334 q 303 154 260 212 q 435 96 347 96 q 528 115 486 96 q 617 183 569 134 l 672 123 m 489 408 q 462 562 486 511 q 383 613 437 613 q 300 560 331 613 q 263 408 269 507 l 489 408 z "},"f":{"ha":453,"x_min":42,"x_max":547,"o":"m 57 45 q 101 66 89 54 q 119 98 114 77 q 125 170 125 119 l 125 588 l 42 588 l 42 635 q 86 645 74 640 q 107 661 99 651 q 120 686 115 671 q 127 726 125 702 q 217 911 138 848 q 443 974 297 974 q 547 964 501 974 l 547 826 l 454 826 q 429 881 443 863 q 393 899 415 899 q 348 879 363 899 q 327 824 332 860 q 321 724 321 789 l 321 673 l 452 673 l 452 588 l 321 588 l 321 170 q 326 98 321 119 q 346 65 332 77 q 395 45 359 53 l 395 0 l 57 0 l 57 45 z "},"g":{"ha":722,"x_min":24,"x_max":714,"o":"m 714 582 l 598 595 l 595 587 q 627 535 614 568 q 640 456 640 503 q 568 277 640 338 q 357 216 496 216 q 248 229 290 216 q 214 163 214 198 q 222 132 214 142 q 251 115 231 121 q 309 109 271 109 l 477 109 q 646 65 590 109 q 703 -72 703 21 q 662 -197 703 -144 q 544 -276 621 -249 q 362 -304 467 -304 q 223 -297 286 -304 q 117 -272 161 -290 q 48 -223 73 -254 q 24 -144 24 -192 q 49 -73 24 -105 q 117 -17 73 -40 q 76 30 89 3 q 63 95 63 56 q 76 155 63 127 q 112 205 90 182 q 169 255 134 228 q 89 333 116 285 q 62 447 62 382 q 84 555 62 510 q 147 629 107 600 q 240 670 186 657 q 357 684 294 684 q 418 680 391 684 q 469 673 444 677 l 714 673 l 714 582 m 256 455 q 280 328 256 370 q 356 286 304 286 q 428 325 403 286 q 452 443 452 363 q 428 570 452 526 q 355 614 404 614 q 280 575 304 614 q 256 455 256 536 m 232 -43 q 195 -85 208 -62 q 182 -136 182 -107 q 225 -209 182 -185 q 359 -232 267 -232 q 489 -203 444 -232 q 533 -123 533 -175 q 525 -84 533 -100 q 493 -57 517 -68 q 426 -46 469 -46 l 309 -46 q 232 -43 260 -46 z "},"h":{"ha":829,"x_min":39,"x_max":786,"o":"m 315 583 q 425 661 376 638 q 524 684 473 684 q 640 656 599 684 q 699 577 680 629 q 718 444 718 526 l 718 196 q 719 140 718 166 q 724 98 720 114 q 735 73 728 83 q 755 56 742 63 q 786 45 768 50 l 786 0 l 457 0 l 457 45 q 501 66 489 52 q 517 106 513 81 q 522 195 522 131 l 522 372 q 517 478 522 440 q 502 536 513 515 q 475 567 492 557 q 431 577 458 577 q 377 561 406 577 q 331 518 349 545 q 312 459 312 490 l 312 196 q 313 137 312 158 q 316 105 314 117 q 322 85 318 94 q 332 69 326 77 q 349 56 338 62 q 380 45 361 50 l 380 0 l 47 0 l 47 45 q 79 56 68 50 q 97 71 91 62 q 109 93 104 79 q 115 129 113 106 q 116 196 116 153 l 116 725 q 115 811 116 783 q 111 857 114 838 q 100 887 107 876 q 81 905 94 898 q 39 917 68 911 l 39 962 l 227 971 l 312 971 l 312 584 l 315 583 z "},"i":{"ha":437,"x_min":50,"x_max":389,"o":"m 315 943 l 315 777 l 130 777 l 130 943 l 315 943 m 58 45 q 103 68 91 54 q 120 106 116 82 q 125 195 125 131 l 125 511 q 122 564 125 544 q 110 597 119 585 q 87 615 102 609 q 50 627 73 622 l 50 673 l 236 678 l 321 678 l 321 196 q 322 137 321 158 q 325 105 323 117 q 331 85 327 94 q 340 69 334 77 q 358 56 347 62 q 389 45 370 50 l 389 0 l 58 0 l 58 45 z "},"j":{"ha":420,"x_min":9,"x_max":312,"o":"m 307 943 l 307 777 l 121 777 l 121 943 l 307 943 m 312 54 q 298 -82 312 -26 q 251 -179 284 -137 q 159 -253 218 -221 q 42 -300 100 -284 l 9 -221 q 76 -184 55 -203 q 106 -135 97 -165 q 116 -54 116 -106 l 116 511 q 113 564 116 544 q 101 597 110 585 q 78 615 93 609 q 41 627 64 622 l 41 673 l 227 678 l 312 678 l 312 54 z "},"k":{"ha":822,"x_min":39,"x_max":836,"o":"m 538 428 l 713 169 q 770 90 751 111 q 802 59 788 68 q 836 45 815 50 l 836 0 l 504 0 l 504 45 q 534 77 534 51 q 523 118 534 94 q 476 193 511 142 l 424 272 q 395 310 406 298 q 374 328 385 322 q 345 334 363 334 l 312 334 l 312 196 q 316 107 312 132 q 333 68 320 83 q 380 45 345 54 l 380 0 l 47 0 l 47 45 q 79 56 68 50 q 97 71 91 62 q 109 93 104 79 q 115 129 113 106 q 116 196 116 153 l 116 725 q 115 811 116 783 q 111 857 114 838 q 100 887 107 876 q 81 905 94 898 q 39 917 68 911 l 39 962 l 228 971 l 312 971 l 312 399 l 334 399 q 372 404 358 399 q 400 419 385 409 q 445 457 414 430 q 491 506 475 485 q 512 544 507 528 q 517 574 517 559 q 458 629 517 621 l 458 673 l 798 673 l 798 629 q 739 605 771 625 q 636 519 706 585 l 538 428 z "},"l":{"ha":428,"x_min":39,"x_max":380,"o":"m 312 196 q 316 107 312 132 q 333 68 320 83 q 380 45 345 54 l 380 0 l 47 0 l 47 45 q 79 56 68 50 q 97 71 91 62 q 109 93 104 79 q 115 129 113 106 q 116 196 116 153 l 116 725 q 115 811 116 783 q 111 857 114 838 q 101 887 108 876 q 81 905 94 898 q 39 917 68 911 l 39 962 l 227 971 l 312 971 l 312 196 z "},"m":{"ha":1236,"x_min":50,"x_max":1194,"o":"m 311 581 l 319 578 q 430 660 380 636 q 531 684 479 684 q 614 671 581 684 q 671 633 648 658 q 708 568 694 608 q 827 658 777 632 q 932 684 878 684 q 1022 669 987 684 q 1081 625 1058 655 q 1115 551 1104 595 q 1125 444 1125 506 l 1125 196 q 1126 140 1125 166 q 1131 98 1127 114 q 1142 73 1135 83 q 1162 56 1149 63 q 1194 45 1175 50 l 1194 0 l 867 0 l 867 45 q 909 66 897 52 q 925 106 920 81 q 929 195 929 131 l 929 377 q 925 476 929 438 q 909 536 921 515 q 882 568 898 558 q 840 577 866 577 q 808 572 823 577 q 778 555 793 566 q 751 532 762 544 q 734 507 741 521 q 725 475 728 492 q 723 417 723 457 l 723 196 q 725 125 723 150 q 732 86 726 101 q 749 61 737 71 q 786 45 761 52 l 786 0 l 463 0 l 463 45 q 506 66 494 52 q 522 105 518 81 q 526 195 526 130 l 526 377 q 525 453 526 422 q 519 503 523 484 q 508 536 515 522 q 491 559 500 550 q 470 572 482 568 q 438 577 457 577 q 386 562 413 577 q 339 518 358 546 q 321 458 321 490 l 321 196 q 325 107 321 132 q 340 67 328 81 q 383 45 353 52 l 383 0 l 58 0 l 58 45 q 103 68 91 54 q 120 106 116 82 q 125 195 125 131 l 125 474 q 123 548 125 524 q 115 587 121 572 q 95 611 109 602 q 50 627 82 620 l 50 673 l 235 678 l 321 678 l 311 581 z "},"n":{"ha":838,"x_min":50,"x_max":795,"o":"m 795 0 l 467 0 l 467 45 q 510 67 498 52 q 527 106 522 81 q 531 195 531 131 l 531 376 q 529 455 531 425 q 523 506 527 486 q 510 539 518 526 q 493 561 503 552 q 471 573 484 569 q 440 577 459 577 q 387 561 414 577 q 340 517 359 545 q 321 457 321 489 l 321 196 q 325 106 321 132 q 341 67 329 81 q 386 45 354 52 l 386 0 l 58 0 l 58 45 q 103 68 91 54 q 120 106 116 82 q 125 195 125 131 l 125 474 q 123 548 125 524 q 115 587 121 572 q 95 611 109 602 q 50 627 82 620 l 50 673 l 235 678 l 321 678 l 311 581 l 319 578 q 393 637 361 616 q 459 671 425 659 q 533 684 494 684 q 625 668 589 684 q 685 621 662 652 q 717 547 707 591 q 727 444 727 503 l 727 196 q 728 140 727 166 q 733 98 729 114 q 744 73 737 83 q 764 56 751 63 q 795 45 777 50 l 795 0 z "},"o":{"ha":791,"x_min":62,"x_max":729,"o":"m 387 -11 q 215 24 288 -11 q 102 136 143 59 q 62 332 62 213 q 87 489 62 422 q 157 599 112 555 q 263 663 201 642 q 398 684 326 684 q 646 597 562 684 q 729 344 729 511 q 688 146 729 226 q 570 28 646 66 q 387 -11 493 -11 m 268 347 q 300 131 268 203 q 397 60 332 60 q 457 78 433 60 q 496 131 481 96 q 517 214 511 165 q 523 323 523 262 q 491 541 523 469 q 395 613 458 613 q 321 584 349 613 q 281 496 294 555 q 268 347 268 438 z "},"p":{"ha":829,"x_min":41,"x_max":764,"o":"m 312 -121 q 317 -193 312 -172 q 337 -227 323 -214 q 386 -247 351 -239 l 386 -292 l 48 -292 l 48 -247 q 93 -226 80 -237 q 111 -194 105 -214 q 116 -121 116 -173 l 116 472 q 115 541 116 520 q 110 575 114 561 q 100 598 106 589 q 80 614 93 608 q 41 627 66 621 l 41 673 l 229 678 l 312 678 l 302 580 l 310 578 q 419 659 368 634 q 523 684 469 684 q 704 598 644 684 q 764 344 764 513 q 729 148 764 227 q 623 29 693 68 q 449 -11 552 -11 q 312 7 379 -11 l 312 -121 m 312 222 q 341 99 312 139 q 430 60 370 60 q 525 125 492 60 q 558 312 558 191 q 529 512 558 447 q 437 577 499 577 q 377 562 406 577 q 330 517 349 546 q 312 452 312 488 l 312 222 z "},"q":{"ha":821,"x_min":65,"x_max":781,"o":"m 517 91 q 450 35 480 56 q 383 2 419 14 q 307 -11 347 -11 q 126 74 186 -11 q 65 329 65 159 q 102 523 65 444 q 213 643 140 602 q 387 684 286 684 q 451 680 420 684 q 509 668 482 675 q 576 645 536 661 l 627 684 l 713 671 l 713 -121 q 719 -194 713 -173 q 737 -226 724 -214 q 781 -247 749 -237 l 781 -292 l 444 -292 l 444 -247 q 492 -227 478 -239 q 512 -195 506 -216 q 517 -121 517 -174 l 517 91 m 517 450 q 490 573 517 533 q 404 613 462 613 q 332 583 362 613 q 287 496 302 553 q 271 361 271 439 q 300 162 271 227 q 391 96 330 96 q 452 111 422 96 q 499 156 481 126 q 517 226 517 186 l 517 450 z "},"r":{"ha":641,"x_min":50,"x_max":622,"o":"m 311 576 l 320 574 q 422 658 370 632 q 535 684 474 684 q 622 675 576 684 l 622 488 l 499 488 q 469 548 488 527 q 419 569 450 569 q 386 560 404 569 q 353 534 368 551 q 331 500 338 517 q 323 465 325 483 q 321 412 321 448 l 321 196 q 326 106 321 132 q 345 65 330 80 q 393 45 359 51 l 393 0 l 58 0 l 58 45 q 103 68 91 54 q 120 106 116 82 q 125 195 125 131 l 125 474 q 123 548 125 524 q 115 587 121 572 q 95 611 109 602 q 50 627 82 620 l 50 673 l 235 678 l 321 678 l 311 576 z "},"s":{"ha":637,"x_min":55,"x_max":582,"o":"m 146 183 q 197 91 162 121 q 292 60 233 60 q 369 83 342 60 q 395 150 395 106 q 383 197 395 178 q 343 235 371 217 q 250 282 316 253 q 179 318 212 298 q 122 362 146 338 q 83 418 98 387 q 69 486 69 448 q 104 591 69 547 q 205 660 140 636 q 355 684 271 684 q 452 680 404 684 q 574 662 499 675 l 574 504 l 485 504 q 451 571 469 547 q 410 604 432 595 q 356 613 387 613 q 285 593 311 613 q 258 536 258 572 q 268 492 258 510 q 302 456 277 473 q 396 410 326 439 q 500 354 460 383 q 561 288 540 326 q 582 200 582 250 q 562 105 582 145 q 505 40 541 66 q 417 2 468 14 q 304 -11 366 -11 q 55 21 192 -11 l 55 183 l 146 183 z "},"t":{"ha":507,"x_min":25,"x_max":522,"o":"m 522 81 q 414 10 463 31 q 311 -11 365 -11 q 160 44 210 -11 q 110 209 110 98 l 110 588 l 25 588 l 25 635 q 86 655 66 642 q 117 691 106 669 q 134 751 127 714 q 144 842 140 787 l 306 842 l 306 673 l 499 673 l 499 588 l 306 588 l 306 282 q 313 169 306 205 q 337 115 320 132 q 379 98 354 98 q 413 101 398 98 q 445 113 428 104 q 479 138 461 122 l 522 81 z "},"u":{"ha":829,"x_min":43,"x_max":788,"o":"m 43 673 l 307 673 l 307 296 q 311 195 307 231 q 327 137 315 158 q 355 105 338 115 q 397 96 372 96 q 450 111 422 96 q 497 155 478 127 q 517 215 517 183 l 517 477 q 515 550 517 526 q 507 588 513 574 q 489 611 501 602 q 449 628 477 620 l 449 673 l 713 673 l 713 198 q 715 123 713 146 q 723 85 717 99 q 743 61 729 71 q 788 45 756 52 l 788 0 l 604 -6 l 522 -6 l 528 92 l 519 94 q 407 12 456 35 q 307 -11 357 -11 q 192 16 235 -11 q 130 95 149 43 q 111 229 111 146 l 111 477 q 110 535 111 515 q 107 567 109 555 q 101 587 105 578 q 91 604 98 596 q 74 617 85 611 q 43 628 62 623 l 43 673 z "},"v":{"ha":737,"x_min":13,"x_max":741,"o":"m 351 673 l 351 628 q 304 610 319 622 q 290 573 290 597 q 307 488 290 541 l 405 192 l 513 452 q 533 509 526 484 q 540 557 540 534 q 524 605 540 586 q 477 628 507 623 l 477 673 l 741 673 l 741 627 q 710 612 722 621 q 687 589 698 604 q 662 547 677 575 q 621 462 647 519 l 410 -7 l 281 -7 l 102 509 q 73 583 84 563 q 47 613 61 603 q 13 628 33 624 l 13 673 l 351 673 z "},"w":{"ha":1109,"x_min":18,"x_max":1108,"o":"m 679 -7 l 551 431 l 403 -7 l 266 -7 l 101 509 q 76 578 86 557 q 53 611 66 600 q 18 628 40 623 l 18 673 l 350 673 l 350 628 q 302 609 318 623 q 286 570 286 595 q 292 532 286 553 q 304 488 297 511 l 389 207 l 545 673 l 671 673 l 802 207 l 891 452 q 910 513 905 488 q 915 557 915 538 q 899 605 915 586 q 852 628 882 623 l 852 673 l 1108 673 l 1108 627 q 1077 613 1088 621 q 1056 591 1065 605 q 1033 549 1046 576 q 997 462 1021 522 l 814 -7 l 679 -7 z "},"x":{"ha":730,"x_min":11,"x_max":716,"o":"m 448 372 l 606 146 q 646 94 629 115 q 680 62 663 73 q 716 45 696 50 l 716 0 l 386 0 l 386 45 q 428 80 428 50 q 426 95 428 88 q 420 110 424 102 q 404 134 416 117 l 327 244 l 256 157 q 227 116 233 129 q 221 87 221 103 q 233 59 221 71 q 272 45 245 47 l 272 0 l 11 0 l 11 45 q 70 75 40 51 q 141 146 99 98 l 283 307 l 123 532 q 98 568 109 554 q 75 594 87 582 q 55 614 64 607 q 38 624 45 621 q 22 628 30 627 l 22 673 l 351 673 l 351 628 q 308 590 308 619 q 314 566 308 578 q 334 534 320 553 l 404 435 l 473 521 q 495 555 489 541 q 502 584 502 569 q 488 615 502 603 q 450 628 474 627 l 450 673 l 709 673 l 709 628 q 652 599 678 621 q 578 519 627 578 l 448 372 z "},"y":{"ha":737,"x_min":13,"x_max":741,"o":"m 400 -31 q 317 -185 356 -129 q 233 -269 278 -241 q 121 -296 188 -296 q 26 -283 70 -296 l 26 -128 l 102 -128 q 124 -172 111 -160 q 161 -184 137 -184 q 207 -170 186 -184 q 254 -116 228 -155 q 318 0 280 -77 l 279 0 l 102 509 q 72 583 83 563 q 47 613 61 603 q 13 628 33 624 l 13 673 l 351 673 l 351 628 q 304 610 319 622 q 290 573 290 597 q 307 488 290 541 l 405 192 l 513 452 q 533 509 526 484 q 540 557 540 534 q 524 605 540 586 q 477 628 507 623 l 477 673 l 741 673 l 741 627 q 710 612 722 621 q 687 589 698 604 q 662 547 677 575 q 621 462 647 519 l 400 -31 z "},"z":{"ha":665,"x_min":45,"x_max":621,"o":"m 273 72 l 416 72 q 468 85 447 72 q 507 130 490 98 q 538 218 524 161 l 621 218 l 621 0 l 45 0 l 45 45 l 392 601 l 257 601 q 205 590 224 601 q 169 553 185 579 q 132 467 153 528 l 50 467 l 50 673 l 621 673 l 621 628 l 273 72 z "},"à":{"ha":743,"x_min":41,"x_max":705,"o":"m 459 89 l 449 92 q 341 14 393 38 q 229 -11 288 -11 q 128 11 171 -11 q 63 70 85 32 q 41 157 41 108 q 139 314 41 257 q 436 387 237 372 l 436 451 q 422 548 436 514 q 385 596 408 583 q 332 610 363 610 q 278 600 300 610 q 237 558 255 589 q 210 475 218 528 l 81 475 l 81 598 q 185 641 144 626 q 267 666 227 656 q 339 680 307 675 q 403 684 371 684 q 534 662 485 684 q 608 591 583 640 q 632 456 632 543 l 632 192 q 634 123 632 147 q 641 86 636 98 q 652 67 645 75 q 668 56 659 60 q 705 45 678 52 l 705 0 l 453 0 l 459 89 m 437 320 q 281 281 332 317 q 231 174 231 244 q 254 110 231 132 q 317 87 277 87 q 376 104 349 87 q 420 149 404 121 q 437 208 437 176 l 437 320 m 323 1000 l 471 782 l 417 737 l 182 956 l 182 1000 l 323 1000 z "},"á":{"ha":743,"x_min":41,"x_max":705,"o":"m 459 89 l 449 92 q 341 14 393 38 q 229 -11 288 -11 q 128 11 171 -11 q 63 70 85 32 q 41 157 41 108 q 139 314 41 257 q 436 387 237 372 l 436 451 q 422 548 436 514 q 385 596 408 583 q 332 610 363 610 q 278 600 300 610 q 237 558 255 589 q 210 475 218 528 l 81 475 l 81 598 q 185 641 144 626 q 267 666 227 656 q 339 680 307 675 q 403 684 371 684 q 534 662 485 684 q 608 591 583 640 q 632 456 632 543 l 632 192 q 634 123 632 147 q 641 86 636 98 q 652 67 645 75 q 668 56 659 60 q 705 45 678 52 l 705 0 l 453 0 l 459 89 m 437 320 q 281 281 332 317 q 231 174 231 244 q 254 110 231 132 q 317 87 277 87 q 376 104 349 87 q 420 149 404 121 q 437 208 437 176 l 437 320 m 555 1000 l 555 956 l 319 737 l 265 782 l 413 1000 l 555 1000 z "},"â":{"ha":743,"x_min":41,"x_max":705,"o":"m 459 89 l 449 92 q 341 14 393 38 q 229 -11 288 -11 q 128 11 171 -11 q 63 70 85 32 q 41 157 41 108 q 139 314 41 257 q 436 387 237 372 l 436 451 q 422 548 436 514 q 385 596 408 583 q 332 610 363 610 q 278 600 300 610 q 237 558 255 589 q 210 475 218 528 l 81 475 l 81 598 q 185 641 144 626 q 267 666 227 656 q 339 680 307 675 q 403 684 371 684 q 534 662 485 684 q 608 591 583 640 q 632 456 632 543 l 632 192 q 634 123 632 147 q 641 86 636 98 q 652 67 645 75 q 668 56 659 60 q 705 45 678 52 l 705 0 l 453 0 l 459 89 m 437 320 q 281 281 332 317 q 231 174 231 244 q 254 110 231 132 q 317 87 277 87 q 376 104 349 87 q 420 149 404 121 q 437 208 437 176 l 437 320 m 433 996 l 572 783 l 520 738 l 373 886 l 366 886 l 216 738 l 164 783 l 315 996 l 433 996 z "},"ã":{"ha":743,"x_min":41,"x_max":705,"o":"m 459 89 l 449 92 q 341 14 393 38 q 229 -11 288 -11 q 128 11 171 -11 q 63 70 85 32 q 41 157 41 108 q 139 314 41 257 q 436 387 237 372 l 436 451 q 422 548 436 514 q 385 596 408 583 q 332 610 363 610 q 278 600 300 610 q 237 558 255 589 q 210 475 218 528 l 81 475 l 81 598 q 185 641 144 626 q 267 666 227 656 q 339 680 307 675 q 403 684 371 684 q 534 662 485 684 q 608 591 583 640 q 632 456 632 543 l 632 192 q 634 123 632 147 q 641 86 636 98 q 652 67 645 75 q 668 56 659 60 q 705 45 678 52 l 705 0 l 453 0 l 459 89 m 437 320 q 281 281 332 317 q 231 174 231 244 q 254 110 231 132 q 317 87 277 87 q 376 104 349 87 q 420 149 404 121 q 437 208 437 176 l 437 320 m 543 951 l 607 923 q 532 805 568 843 q 458 766 496 766 q 413 773 433 766 q 353 807 392 781 q 320 828 332 822 q 297 838 309 835 q 275 842 286 842 q 247 836 259 842 q 221 813 235 830 q 192 766 208 797 l 129 794 q 182 886 161 856 q 227 934 203 917 q 280 951 251 951 q 311 947 296 951 q 339 937 326 944 q 378 913 353 930 q 415 889 403 896 q 438 879 427 882 q 464 876 449 876 q 506 893 488 876 q 543 951 524 911 z "},"ä":{"ha":743,"x_min":41,"x_max":705,"o":"m 459 89 l 449 92 q 341 14 393 38 q 229 -11 288 -11 q 128 11 171 -11 q 63 70 85 32 q 41 157 41 108 q 139 314 41 257 q 436 387 237 372 l 436 451 q 422 548 436 514 q 385 596 408 583 q 332 610 363 610 q 278 600 300 610 q 237 558 255 589 q 210 475 218 528 l 81 475 l 81 598 q 185 641 144 626 q 267 666 227 656 q 339 680 307 675 q 403 684 371 684 q 534 662 485 684 q 608 591 583 640 q 632 456 632 543 l 632 192 q 634 123 632 147 q 641 86 636 98 q 652 67 645 75 q 668 56 659 60 q 705 45 678 52 l 705 0 l 453 0 l 459 89 m 437 320 q 281 281 332 317 q 231 174 231 244 q 254 110 231 132 q 317 87 277 87 q 376 104 349 87 q 420 149 404 121 q 437 208 437 176 l 437 320 m 315 935 l 315 786 l 174 786 l 174 935 l 315 935 m 564 935 l 564 786 l 422 786 l 422 935 l 564 935 z "},"ā":{"ha":743,"x_min":41,"x_max":705,"o":"m 459 89 l 449 92 q 341 14 393 38 q 229 -11 288 -11 q 128 11 171 -11 q 63 70 85 32 q 41 157 41 108 q 139 314 41 257 q 436 387 237 372 l 436 451 q 422 548 436 514 q 385 596 408 583 q 332 610 363 610 q 278 600 300 610 q 237 558 255 589 q 210 475 218 528 l 81 475 l 81 598 q 185 641 144 626 q 267 666 227 656 q 339 680 307 675 q 403 684 371 684 q 534 662 485 684 q 608 591 583 640 q 632 456 632 543 l 632 192 q 634 123 632 147 q 641 86 636 98 q 652 67 645 75 q 668 56 659 60 q 705 45 678 52 l 705 0 l 453 0 l 459 89 m 437 320 q 281 281 332 317 q 231 174 231 244 q 254 110 231 132 q 317 87 277 87 q 376 104 349 87 q 420 149 404 121 q 437 208 437 176 l 437 320 m 559 808 l 177 808 l 177 913 l 559 913 l 559 808 z "},"ă":{"ha":743,"x_min":41,"x_max":705,"o":"m 459 89 l 449 92 q 341 14 393 38 q 229 -11 288 -11 q 128 11 171 -11 q 63 70 85 32 q 41 157 41 108 q 139 314 41 257 q 436 387 237 372 l 436 451 q 422 548 436 514 q 385 596 408 583 q 332 610 363 610 q 278 600 300 610 q 237 558 255 589 q 210 475 218 528 l 81 475 l 81 598 q 185 641 144 626 q 267 666 227 656 q 339 680 307 675 q 403 684 371 684 q 534 662 485 684 q 608 591 583 640 q 632 456 632 543 l 632 192 q 634 123 632 147 q 641 86 636 98 q 652 67 645 75 q 668 56 659 60 q 705 45 678 52 l 705 0 l 453 0 l 459 89 m 437 320 q 281 281 332 317 q 231 174 231 244 q 254 110 231 132 q 317 87 277 87 q 376 104 349 87 q 420 149 404 121 q 437 208 437 176 l 437 320 m 587 954 q 510 811 564 859 q 366 763 457 763 q 230 812 284 763 q 157 954 176 861 l 222 974 q 279 896 245 921 q 369 871 313 871 q 465 897 430 871 q 521 974 500 922 l 587 954 z "},"å":{"ha":743,"x_min":41,"x_max":705,"o":"m 459 89 l 449 92 q 341 14 393 38 q 229 -11 288 -11 q 128 11 171 -11 q 63 70 85 32 q 41 157 41 108 q 139 314 41 257 q 436 387 237 372 l 436 451 q 422 548 436 514 q 385 596 408 583 q 332 610 363 610 q 278 600 300 610 q 237 558 255 589 q 210 475 218 528 l 81 475 l 81 598 q 185 641 144 626 q 267 666 227 656 q 339 680 307 675 q 403 684 371 684 q 534 662 485 684 q 608 591 583 640 q 632 456 632 543 l 632 192 q 634 123 632 147 q 641 86 636 98 q 652 67 645 75 q 668 56 659 60 q 705 45 678 52 l 705 0 l 453 0 l 459 89 m 437 320 q 281 281 332 317 q 231 174 231 244 q 254 110 231 132 q 317 87 277 87 q 376 104 349 87 q 420 149 404 121 q 437 208 437 176 l 437 320 m 365 735 q 248 771 288 735 q 208 876 208 807 q 230 956 208 923 q 289 1005 251 989 q 374 1021 326 1021 q 490 985 450 1021 q 529 882 529 949 q 486 773 529 810 q 365 735 443 735 m 290 880 q 310 812 290 836 q 370 787 330 787 q 428 810 408 787 q 448 874 448 833 q 427 944 448 920 q 369 968 406 968 q 310 945 330 968 q 290 880 290 922 z "},"ǻ":{"ha":743,"x_min":41,"x_max":705,"o":"m 459 89 l 449 92 q 341 14 393 38 q 229 -11 288 -11 q 128 11 171 -11 q 63 70 85 32 q 41 157 41 108 q 139 314 41 257 q 436 387 237 372 l 436 451 q 422 548 436 514 q 385 596 408 583 q 332 610 363 610 q 278 600 300 610 q 237 558 255 589 q 210 475 218 528 l 81 475 l 81 598 q 185 641 144 626 q 267 666 227 656 q 339 680 307 675 q 403 684 371 684 q 534 662 485 684 q 608 591 583 640 q 632 456 632 543 l 632 192 q 634 123 632 147 q 641 86 636 98 q 652 67 645 75 q 668 56 659 60 q 705 45 678 52 l 705 0 l 453 0 l 459 89 m 437 320 q 281 281 332 317 q 231 174 231 244 q 254 110 231 132 q 317 87 277 87 q 376 104 349 87 q 420 149 404 121 q 437 208 437 176 l 437 320 m 365 735 q 248 771 288 735 q 208 876 208 807 q 230 956 208 923 q 289 1005 251 989 q 374 1021 326 1021 q 490 985 450 1021 q 529 882 529 949 q 486 773 529 810 q 365 735 443 735 m 290 880 q 310 812 290 836 q 370 787 330 787 q 428 810 408 787 q 448 874 448 833 q 427 944 448 920 q 369 968 406 968 q 310 945 330 968 q 290 880 290 922 m 543 1292 l 543 1247 l 308 1029 l 254 1074 l 401 1292 l 543 1292 z "},"ą":{"ha":743,"x_min":41,"x_max":705,"o":"m 459 89 l 449 92 q 341 14 393 38 q 229 -11 288 -11 q 128 11 171 -11 q 63 70 85 32 q 41 157 41 108 q 139 314 41 257 q 436 387 237 372 l 436 451 q 422 548 436 514 q 385 596 408 583 q 332 610 363 610 q 278 600 300 610 q 237 558 255 589 q 210 475 218 528 l 81 475 l 81 598 q 185 641 144 626 q 267 666 227 656 q 339 680 307 675 q 403 684 371 684 q 534 662 485 684 q 608 591 583 640 q 632 456 632 543 l 632 192 q 634 123 632 147 q 641 86 636 98 q 652 67 645 75 q 668 56 659 60 q 705 45 678 52 l 705 0 l 631 0 q 572 -76 592 -37 q 552 -151 552 -115 q 568 -201 552 -184 q 612 -218 584 -218 q 647 -212 632 -218 q 675 -197 663 -205 l 701 -255 q 645 -284 676 -272 q 578 -296 614 -296 q 526 -289 551 -296 q 481 -269 500 -283 q 449 -231 461 -255 q 437 -174 437 -208 q 467 -82 437 -127 q 553 0 496 -37 l 453 0 l 459 89 m 437 320 q 281 281 332 317 q 231 174 231 244 q 254 110 231 132 q 317 87 277 87 q 376 104 349 87 q 420 149 404 121 q 437 208 437 176 l 437 320 z "},"æ":{"ha":1103,"x_min":41,"x_max":1056,"o":"m 1038 123 q 900 20 970 51 q 741 -11 830 -11 q 586 20 651 -11 q 482 113 520 51 l 475 113 q 362 20 423 51 q 229 -11 300 -11 q 128 11 171 -11 q 63 70 85 32 q 41 157 41 108 q 139 314 41 257 q 436 387 237 372 l 436 454 q 421 551 436 518 q 384 597 406 585 q 331 610 363 610 q 278 599 300 610 q 237 558 255 588 q 210 475 218 528 l 81 475 l 81 598 q 185 641 144 626 q 267 666 227 656 q 339 680 307 675 q 403 684 371 684 q 505 666 467 684 q 566 612 542 648 l 573 612 q 658 665 612 647 q 760 684 703 684 q 868 669 822 684 q 948 630 915 655 q 1003 568 981 604 q 1042 471 1029 526 q 1056 334 1055 414 l 626 334 q 670 154 627 212 q 801 96 713 96 q 894 115 852 96 q 983 183 935 134 l 1038 123 m 855 408 q 828 562 852 511 q 749 613 804 613 q 666 560 697 613 q 629 408 635 507 l 855 408 m 437 320 q 231 176 231 315 q 253 110 231 132 q 319 87 275 87 q 377 104 349 87 q 420 149 404 121 q 437 208 437 176 l 437 320 z "},"ǽ":{"ha":1103,"x_min":41,"x_max":1056,"o":"m 1038 123 q 900 20 970 51 q 741 -11 830 -11 q 586 20 651 -11 q 482 113 520 51 l 475 113 q 362 20 423 51 q 229 -11 300 -11 q 128 11 171 -11 q 63 70 85 32 q 41 157 41 108 q 139 314 41 257 q 436 387 237 372 l 436 454 q 421 551 436 518 q 384 597 406 585 q 331 610 363 610 q 278 599 300 610 q 237 558 255 588 q 210 475 218 528 l 81 475 l 81 598 q 185 641 144 626 q 267 666 227 656 q 339 680 307 675 q 403 684 371 684 q 505 666 467 684 q 566 612 542 648 l 573 612 q 658 665 612 647 q 760 684 703 684 q 868 669 822 684 q 948 630 915 655 q 1003 568 981 604 q 1042 471 1029 526 q 1056 334 1055 414 l 626 334 q 670 154 627 212 q 801 96 713 96 q 894 115 852 96 q 983 183 935 134 l 1038 123 m 855 408 q 828 562 852 511 q 749 613 804 613 q 666 560 697 613 q 629 408 635 507 l 855 408 m 437 320 q 231 176 231 315 q 253 110 231 132 q 319 87 275 87 q 377 104 349 87 q 420 149 404 121 q 437 208 437 176 l 437 320 m 739 1000 l 739 956 l 503 737 l 449 782 l 597 1000 l 739 1000 z "},"ć":{"ha":651,"x_min":62,"x_max":627,"o":"m 575 174 l 627 111 q 499 17 561 45 q 363 -11 437 -11 q 139 76 216 -11 q 62 327 62 162 q 104 519 62 438 q 226 642 146 600 q 408 684 305 684 q 517 676 463 684 q 616 654 572 668 l 616 491 l 482 491 q 452 584 472 555 q 393 613 431 613 q 346 601 368 613 q 306 557 323 588 q 278 474 288 526 q 268 343 268 422 q 283 209 268 264 q 331 125 298 155 q 418 96 364 96 q 493 113 458 96 q 575 174 528 130 m 549 1000 l 549 956 l 313 737 l 259 782 l 407 1000 l 549 1000 z "},"ĉ":{"ha":651,"x_min":62,"x_max":627,"o":"m 575 174 l 627 111 q 499 17 561 45 q 363 -11 437 -11 q 139 76 216 -11 q 62 327 62 162 q 104 519 62 438 q 226 642 146 600 q 408 684 305 684 q 517 676 463 684 q 616 654 572 668 l 616 491 l 482 491 q 452 584 472 555 q 393 613 431 613 q 346 601 368 613 q 306 557 323 588 q 278 474 288 526 q 268 343 268 422 q 283 209 268 264 q 331 125 298 155 q 418 96 364 96 q 493 113 458 96 q 575 174 528 130 m 423 996 l 563 783 l 511 738 l 363 886 l 356 886 l 207 738 l 155 783 l 305 996 l 423 996 z "},"č":{"ha":651,"x_min":62,"x_max":627,"o":"m 575 174 l 627 111 q 499 17 561 45 q 363 -11 437 -11 q 139 76 216 -11 q 62 327 62 162 q 104 519 62 438 q 226 642 146 600 q 408 684 305 684 q 517 676 463 684 q 616 654 572 668 l 616 491 l 482 491 q 452 584 472 555 q 393 613 431 613 q 346 601 368 613 q 306 557 323 588 q 278 474 288 526 q 268 343 268 422 q 283 209 268 264 q 331 125 298 155 q 418 96 364 96 q 493 113 458 96 q 575 174 528 130 m 294 747 l 155 960 l 207 1005 l 354 857 l 361 857 l 511 1005 l 563 960 l 412 747 l 294 747 z "},"ċ":{"ha":651,"x_min":62,"x_max":627,"o":"m 575 174 l 627 111 q 499 17 561 45 q 363 -11 437 -11 q 139 76 216 -11 q 62 327 62 162 q 104 519 62 438 q 226 642 146 600 q 408 684 305 684 q 517 676 463 684 q 616 654 572 668 l 616 491 l 482 491 q 452 584 472 555 q 393 613 431 613 q 346 601 368 613 q 306 557 323 588 q 278 474 288 526 q 268 343 268 422 q 283 209 268 264 q 331 125 298 155 q 418 96 364 96 q 493 113 458 96 q 575 174 528 130 m 452 943 l 452 777 l 266 777 l 266 943 l 452 943 z "},"ç":{"ha":651,"x_min":62,"x_max":627,"o":"m 575 174 l 627 111 q 567 58 597 81 q 504 20 537 35 l 409 -46 q 426 -84 420 -62 q 432 -134 432 -107 q 370 -244 432 -203 q 195 -292 308 -286 l 184 -227 q 266 -200 240 -219 q 291 -141 291 -181 q 288 -98 291 -116 l 288 -69 l 375 -11 l 363 -11 q 139 76 216 -11 q 62 327 62 162 q 104 519 62 438 q 226 642 146 600 q 408 684 305 684 q 517 676 463 684 q 616 654 572 668 l 616 491 l 482 491 q 452 584 472 555 q 393 613 431 613 q 346 601 368 613 q 306 557 323 588 q 278 474 288 526 q 268 343 268 422 q 283 209 268 264 q 331 125 298 155 q 418 96 364 96 q 493 113 458 96 q 575 174 528 130 z "},"ď":{"ha":1006,"x_min":65,"x_max":985,"o":"m 713 198 q 715 123 713 146 q 723 85 717 99 q 743 61 729 71 q 788 45 756 52 l 788 0 l 604 -6 l 522 -6 l 528 92 l 517 92 q 415 16 469 43 q 311 -11 361 -11 q 126 74 188 -11 q 65 329 65 159 q 102 523 65 444 q 213 643 140 602 q 391 684 287 684 q 449 680 420 684 q 517 665 478 676 l 517 727 q 515 830 517 800 q 507 876 513 860 q 488 901 500 892 q 441 916 475 909 l 441 962 l 629 971 l 713 971 l 713 198 m 517 450 q 490 573 517 533 q 404 613 462 613 q 332 583 362 613 q 287 496 302 553 q 271 361 271 439 q 300 161 271 227 q 391 96 330 96 q 449 110 420 96 q 498 155 478 125 q 517 224 517 185 l 517 450 m 970 970 q 985 883 985 926 q 953 779 985 827 q 839 669 920 730 l 795 711 q 837 778 825 744 q 849 869 849 812 q 847 909 849 890 q 838 970 846 928 l 970 970 z "},"đ":{"ha":829,"x_min":65,"x_max":804,"o":"m 804 760 l 713 760 l 713 198 q 715 123 713 146 q 723 85 717 99 q 743 61 729 71 q 788 45 756 52 l 788 0 l 604 -6 l 522 -6 l 528 92 l 517 92 q 415 16 469 43 q 311 -11 361 -11 q 126 74 188 -11 q 65 329 65 159 q 102 523 65 444 q 213 643 140 602 q 391 684 287 684 q 449 680 420 684 q 517 665 478 676 l 517 760 l 281 760 l 281 836 l 517 836 q 508 883 515 869 q 489 904 502 897 q 441 917 475 911 l 441 962 l 629 971 l 713 971 l 713 836 l 804 836 l 804 760 m 517 450 q 490 573 517 533 q 404 613 462 613 q 332 583 362 613 q 287 496 302 553 q 271 361 271 439 q 300 161 271 227 q 391 96 330 96 q 449 110 420 96 q 498 155 478 125 q 517 224 517 185 l 517 450 z "},"è":{"ha":737,"x_min":62,"x_max":690,"o":"m 672 123 q 535 20 603 50 q 379 -11 467 -11 q 141 76 221 -11 q 62 332 62 162 q 103 522 62 442 q 219 643 144 602 q 394 684 294 684 q 502 669 456 684 q 582 630 549 655 q 637 568 615 604 q 675 471 663 526 q 690 334 689 414 l 260 334 q 303 154 260 212 q 435 96 347 96 q 528 115 486 96 q 617 183 569 134 l 672 123 m 489 408 q 462 562 486 511 q 383 613 437 613 q 300 560 331 613 q 263 408 269 507 l 489 408 m 334 1000 l 481 782 l 427 737 l 192 956 l 192 1000 l 334 1000 z "},"é":{"ha":737,"x_min":62,"x_max":690,"o":"m 672 123 q 535 20 603 50 q 379 -11 467 -11 q 141 76 221 -11 q 62 332 62 162 q 103 522 62 442 q 219 643 144 602 q 394 684 294 684 q 502 669 456 684 q 582 630 549 655 q 637 568 615 604 q 675 471 663 526 q 690 334 689 414 l 260 334 q 303 154 260 212 q 435 96 347 96 q 528 115 486 96 q 617 183 569 134 l 672 123 m 489 408 q 462 562 486 511 q 383 613 437 613 q 300 560 331 613 q 263 408 269 507 l 489 408 m 567 1000 l 567 956 l 332 737 l 277 782 l 425 1000 l 567 1000 z "},"ê":{"ha":737,"x_min":62,"x_max":690,"o":"m 672 123 q 535 20 603 50 q 379 -11 467 -11 q 141 76 221 -11 q 62 332 62 162 q 103 522 62 442 q 219 643 144 602 q 394 684 294 684 q 502 669 456 684 q 582 630 549 655 q 637 568 615 604 q 675 471 663 526 q 690 334 689 414 l 260 334 q 303 154 260 212 q 435 96 347 96 q 528 115 486 96 q 617 183 569 134 l 672 123 m 489 408 q 462 562 486 511 q 383 613 437 613 q 300 560 331 613 q 263 408 269 507 l 489 408 m 443 996 l 583 783 l 530 738 l 383 886 l 376 886 l 227 738 l 174 783 l 325 996 l 443 996 z "},"ě":{"ha":737,"x_min":62,"x_max":690,"o":"m 672 123 q 535 20 603 50 q 379 -11 467 -11 q 141 76 221 -11 q 62 332 62 162 q 103 522 62 442 q 219 643 144 602 q 394 684 294 684 q 502 669 456 684 q 582 630 549 655 q 637 568 615 604 q 675 471 663 526 q 690 334 689 414 l 260 334 q 303 154 260 212 q 435 96 347 96 q 528 115 486 96 q 617 183 569 134 l 672 123 m 489 408 q 462 562 486 511 q 383 613 437 613 q 300 560 331 613 q 263 408 269 507 l 489 408 m 314 747 l 174 960 l 227 1005 l 374 857 l 381 857 l 530 1005 l 583 960 l 432 747 l 314 747 z "},"ë":{"ha":737,"x_min":62,"x_max":690,"o":"m 672 123 q 535 20 603 50 q 379 -11 467 -11 q 141 76 221 -11 q 62 332 62 162 q 103 522 62 442 q 219 643 144 602 q 394 684 294 684 q 502 669 456 684 q 582 630 549 655 q 637 568 615 604 q 675 471 663 526 q 690 334 689 414 l 260 334 q 303 154 260 212 q 435 96 347 96 q 528 115 486 96 q 617 183 569 134 l 672 123 m 489 408 q 462 562 486 511 q 383 613 437 613 q 300 560 331 613 q 263 408 269 507 l 489 408 m 325 935 l 325 786 l 183 786 l 183 935 l 325 935 m 573 935 l 573 786 l 431 786 l 431 935 l 573 935 z "},"ē":{"ha":737,"x_min":62,"x_max":690,"o":"m 672 123 q 535 20 603 50 q 379 -11 467 -11 q 141 76 221 -11 q 62 332 62 162 q 103 522 62 442 q 219 643 144 602 q 394 684 294 684 q 502 669 456 684 q 582 630 549 655 q 637 568 615 604 q 675 471 663 526 q 690 334 689 414 l 260 334 q 303 154 260 212 q 435 96 347 96 q 528 115 486 96 q 617 183 569 134 l 672 123 m 489 408 q 462 562 486 511 q 383 613 437 613 q 300 560 331 613 q 263 408 269 507 l 489 408 m 570 808 l 187 808 l 187 913 l 570 913 l 570 808 z "},"ĕ":{"ha":737,"x_min":62,"x_max":690,"o":"m 672 123 q 535 20 603 50 q 379 -11 467 -11 q 141 76 221 -11 q 62 332 62 162 q 103 522 62 442 q 219 643 144 602 q 394 684 294 684 q 502 669 456 684 q 582 630 549 655 q 637 568 615 604 q 675 471 663 526 q 690 334 689 414 l 260 334 q 303 154 260 212 q 435 96 347 96 q 528 115 486 96 q 617 183 569 134 l 672 123 m 489 408 q 462 562 486 511 q 383 613 437 613 q 300 560 331 613 q 263 408 269 507 l 489 408 m 593 956 q 517 814 570 862 q 373 766 464 766 q 237 814 291 766 q 163 956 183 863 l 229 977 q 286 899 252 924 q 376 874 319 874 q 472 900 437 874 q 528 977 507 925 l 593 956 z "},"ė":{"ha":737,"x_min":62,"x_max":690,"o":"m 672 123 q 535 20 603 50 q 379 -11 467 -11 q 141 76 221 -11 q 62 332 62 162 q 103 522 62 442 q 219 643 144 602 q 394 684 294 684 q 502 669 456 684 q 582 630 549 655 q 637 568 615 604 q 675 471 663 526 q 690 334 689 414 l 260 334 q 303 154 260 212 q 435 96 347 96 q 528 115 486 96 q 617 183 569 134 l 672 123 m 489 408 q 462 562 486 511 q 383 613 437 613 q 300 560 331 613 q 263 408 269 507 l 489 408 m 471 943 l 471 777 l 286 777 l 286 943 l 471 943 z "},"ę":{"ha":737,"x_min":62,"x_max":690,"o":"m 672 123 q 620 74 646 96 q 577 30 600 54 q 537 -24 555 5 q 508 -85 519 -54 q 497 -151 497 -117 q 513 -201 497 -184 q 557 -218 529 -218 q 592 -212 577 -218 q 620 -197 608 -205 l 646 -255 q 590 -284 621 -272 q 524 -296 559 -296 q 471 -289 496 -296 q 426 -269 446 -283 q 394 -231 406 -255 q 382 -174 382 -208 q 484 1 382 -83 q 379 -11 437 -11 q 141 76 221 -11 q 62 332 62 162 q 103 522 62 442 q 219 643 144 602 q 394 684 294 684 q 502 669 456 684 q 582 630 549 655 q 637 568 615 604 q 675 471 663 526 q 690 334 689 414 l 260 334 q 303 154 260 212 q 435 96 347 96 q 528 115 486 96 q 617 183 569 134 l 672 123 m 489 408 q 462 562 486 511 q 383 613 437 613 q 300 560 331 613 q 263 408 269 507 l 489 408 z "},"ĝ":{"ha":722,"x_min":24,"x_max":714,"o":"m 714 582 l 598 595 l 595 587 q 627 535 614 568 q 640 456 640 503 q 568 277 640 338 q 357 216 496 216 q 248 229 290 216 q 214 163 214 198 q 222 132 214 142 q 251 115 231 121 q 309 109 271 109 l 477 109 q 646 65 590 109 q 703 -72 703 21 q 662 -197 703 -144 q 544 -276 621 -249 q 362 -304 467 -304 q 223 -297 286 -304 q 117 -272 161 -290 q 48 -223 73 -254 q 24 -144 24 -192 q 49 -73 24 -105 q 117 -17 73 -40 q 76 30 89 3 q 63 95 63 56 q 76 155 63 127 q 112 205 90 182 q 169 255 134 228 q 89 333 116 285 q 62 447 62 382 q 84 555 62 510 q 147 629 107 600 q 240 670 186 657 q 357 684 294 684 q 418 680 391 684 q 469 673 444 677 l 714 673 l 714 582 m 256 455 q 280 328 256 370 q 356 286 304 286 q 428 325 403 286 q 452 443 452 363 q 428 570 452 526 q 355 614 404 614 q 280 575 304 614 q 256 455 256 536 m 232 -43 q 195 -85 208 -62 q 182 -136 182 -107 q 225 -209 182 -185 q 359 -232 267 -232 q 489 -203 444 -232 q 533 -123 533 -175 q 525 -84 533 -100 q 493 -57 517 -68 q 426 -46 469 -46 l 309 -46 q 232 -43 260 -46 m 427 996 l 567 783 l 515 738 l 368 886 l 360 886 l 211 738 l 159 783 l 309 996 l 427 996 z "},"ğ":{"ha":722,"x_min":24,"x_max":714,"o":"m 714 582 l 598 595 l 595 587 q 627 535 614 568 q 640 456 640 503 q 568 277 640 338 q 357 216 496 216 q 248 229 290 216 q 214 163 214 198 q 222 132 214 142 q 251 115 231 121 q 309 109 271 109 l 477 109 q 646 65 590 109 q 703 -72 703 21 q 662 -197 703 -144 q 544 -276 621 -249 q 362 -304 467 -304 q 223 -297 286 -304 q 117 -272 161 -290 q 48 -223 73 -254 q 24 -144 24 -192 q 49 -73 24 -105 q 117 -17 73 -40 q 76 30 89 3 q 63 95 63 56 q 76 155 63 127 q 112 205 90 182 q 169 255 134 228 q 89 333 116 285 q 62 447 62 382 q 84 555 62 510 q 147 629 107 600 q 240 670 186 657 q 357 684 294 684 q 418 680 391 684 q 469 673 444 677 l 714 673 l 714 582 m 256 455 q 280 328 256 370 q 356 286 304 286 q 428 325 403 286 q 452 443 452 363 q 428 570 452 526 q 355 614 404 614 q 280 575 304 614 q 256 455 256 536 m 232 -43 q 195 -85 208 -62 q 182 -136 182 -107 q 225 -209 182 -185 q 359 -232 267 -232 q 489 -203 444 -232 q 533 -123 533 -175 q 525 -84 533 -100 q 493 -57 517 -68 q 426 -46 469 -46 l 309 -46 q 232 -43 260 -46 m 578 956 q 502 814 555 862 q 357 766 448 766 q 221 814 275 766 q 148 956 168 863 l 214 977 q 270 899 237 924 q 360 874 304 874 q 456 900 421 874 q 512 977 492 925 l 578 956 z "},"ġ":{"ha":722,"x_min":24,"x_max":714,"o":"m 714 582 l 598 595 l 595 587 q 627 535 614 568 q 640 456 640 503 q 568 277 640 338 q 357 216 496 216 q 248 229 290 216 q 214 163 214 198 q 222 132 214 142 q 251 115 231 121 q 309 109 271 109 l 477 109 q 646 65 590 109 q 703 -72 703 21 q 662 -197 703 -144 q 544 -276 621 -249 q 362 -304 467 -304 q 223 -297 286 -304 q 117 -272 161 -290 q 48 -223 73 -254 q 24 -144 24 -192 q 49 -73 24 -105 q 117 -17 73 -40 q 76 30 89 3 q 63 95 63 56 q 76 155 63 127 q 112 205 90 182 q 169 255 134 228 q 89 333 116 285 q 62 447 62 382 q 84 555 62 510 q 147 629 107 600 q 240 670 186 657 q 357 684 294 684 q 418 680 391 684 q 469 673 444 677 l 714 673 l 714 582 m 256 455 q 280 328 256 370 q 356 286 304 286 q 428 325 403 286 q 452 443 452 363 q 428 570 452 526 q 355 614 404 614 q 280 575 304 614 q 256 455 256 536 m 232 -43 q 195 -85 208 -62 q 182 -136 182 -107 q 225 -209 182 -185 q 359 -232 267 -232 q 489 -203 444 -232 q 533 -123 533 -175 q 525 -84 533 -100 q 493 -57 517 -68 q 426 -46 469 -46 l 309 -46 q 232 -43 260 -46 m 456 943 l 456 777 l 270 777 l 270 943 l 456 943 z "},"ģ":{"ha":722,"x_min":24,"x_max":714,"o":"m 714 582 l 598 595 l 595 587 q 627 535 614 568 q 640 456 640 503 q 568 277 640 338 q 357 216 496 216 q 248 229 290 216 q 214 163 214 198 q 222 132 214 142 q 251 115 231 121 q 309 109 271 109 l 477 109 q 646 65 590 109 q 703 -72 703 21 q 662 -197 703 -144 q 544 -276 621 -249 q 362 -304 467 -304 q 223 -297 286 -304 q 117 -272 161 -290 q 48 -223 73 -254 q 24 -144 24 -192 q 49 -73 24 -105 q 117 -17 73 -40 q 76 30 89 3 q 63 95 63 56 q 76 155 63 127 q 112 205 90 182 q 169 255 134 228 q 89 333 116 285 q 62 447 62 382 q 84 555 62 510 q 147 629 107 600 q 240 670 186 657 q 357 684 294 684 q 418 680 391 684 q 469 673 444 677 l 714 673 l 714 582 m 256 455 q 280 328 256 370 q 356 286 304 286 q 428 325 403 286 q 452 443 452 363 q 428 570 452 526 q 355 614 404 614 q 280 575 304 614 q 256 455 256 536 m 232 -43 q 195 -85 208 -62 q 182 -136 182 -107 q 225 -209 182 -185 q 359 -232 267 -232 q 489 -203 444 -232 q 533 -123 533 -175 q 525 -84 533 -100 q 493 -57 517 -68 q 426 -46 469 -46 l 309 -46 q 232 -43 260 -46 m 300 759 q 284 840 284 800 q 299 909 284 878 q 347 973 315 941 q 437 1048 379 1005 l 479 998 q 433 935 447 967 q 418 852 418 903 q 427 778 418 819 l 300 759 z "},"ĥ":{"ha":829,"x_min":39,"x_max":786,"o":"m 315 583 q 425 661 376 638 q 524 684 473 684 q 640 656 599 684 q 699 577 680 629 q 718 444 718 526 l 718 196 q 719 140 718 166 q 724 98 720 114 q 735 73 728 83 q 755 56 742 63 q 786 45 768 50 l 786 0 l 457 0 l 457 45 q 501 66 489 52 q 517 106 513 81 q 522 195 522 131 l 522 372 q 517 478 522 440 q 502 536 513 515 q 475 567 492 557 q 431 577 458 577 q 377 561 406 577 q 331 518 349 545 q 312 459 312 490 l 312 196 q 313 137 312 158 q 316 105 314 117 q 322 85 318 94 q 332 69 326 77 q 349 56 338 62 q 380 45 361 50 l 380 0 l 47 0 l 47 45 q 79 56 68 50 q 97 71 91 62 q 109 93 104 79 q 115 129 113 106 q 116 196 116 153 l 116 725 q 115 811 116 783 q 111 857 114 838 q 100 887 107 876 q 81 905 94 898 q 39 917 68 911 l 39 962 l 227 971 l 312 971 l 312 584 l 315 583 m 474 1221 l 627 1050 l 579 1005 l 418 1118 l 410 1118 l 248 1005 l 201 1050 l 356 1221 l 474 1221 z "},"ħ":{"ha":829,"x_min":26,"x_max":786,"o":"m 26 823 l 115 823 q 101 887 115 869 q 39 911 87 905 l 39 962 l 227 971 l 312 971 l 312 823 l 548 823 l 548 747 l 312 747 l 312 556 l 315 555 q 524 656 427 656 q 673 598 628 656 q 718 416 718 541 l 718 196 q 731 78 718 101 q 786 45 744 56 l 786 0 l 457 0 l 457 45 q 510 82 499 55 q 522 195 522 109 l 522 345 q 498 518 522 487 q 431 549 474 549 q 351 513 390 549 q 312 431 312 477 l 312 196 q 325 79 312 102 q 380 45 338 56 l 380 0 l 47 0 l 47 45 q 104 82 93 56 q 116 196 116 108 l 116 747 l 26 747 l 26 823 z "},"ì":{"ha":437,"x_min":33,"x_max":389,"o":"m 58 45 q 103 68 91 54 q 120 106 116 82 q 125 195 125 131 l 125 511 q 122 564 125 544 q 110 597 119 585 q 87 615 102 609 q 50 627 73 622 l 50 673 l 236 678 l 321 678 l 321 196 q 322 137 321 158 q 325 105 323 117 q 331 85 327 94 q 340 69 334 77 q 358 56 347 62 q 389 45 370 50 l 389 0 l 58 0 l 58 45 m 174 1000 l 322 782 l 268 737 l 33 956 l 33 1000 l 174 1000 z "},"í":{"ha":437,"x_min":50,"x_max":405,"o":"m 58 45 q 103 68 91 54 q 120 106 116 82 q 125 195 125 131 l 125 511 q 122 564 125 544 q 110 597 119 585 q 87 615 102 609 q 50 627 73 622 l 50 673 l 236 678 l 321 678 l 321 196 q 322 137 321 158 q 325 105 323 117 q 331 85 327 94 q 340 69 334 77 q 358 56 347 62 q 389 45 370 50 l 389 0 l 58 0 l 58 45 m 405 1000 l 405 956 l 170 737 l 115 782 l 263 1000 l 405 1000 z "},"î":{"ha":437,"x_min":14,"x_max":422,"o":"m 58 45 q 103 68 91 54 q 120 106 116 82 q 125 195 125 131 l 125 511 q 122 564 125 544 q 110 597 119 585 q 87 615 102 609 q 50 627 73 622 l 50 673 l 236 678 l 321 678 l 321 196 q 322 137 321 158 q 325 105 323 117 q 331 85 327 94 q 340 69 334 77 q 358 56 347 62 q 389 45 370 50 l 389 0 l 58 0 l 58 45 m 283 996 l 422 783 l 370 738 l 223 886 l 216 886 l 66 738 l 14 783 l 165 996 l 283 996 z "},"ĩ":{"ha":437,"x_min":-20,"x_max":458,"o":"m 58 45 q 103 68 91 54 q 120 106 116 82 q 125 195 125 131 l 125 511 q 122 564 125 544 q 110 597 119 585 q 87 615 102 609 q 50 627 73 622 l 50 673 l 236 678 l 321 678 l 321 196 q 322 137 321 158 q 325 105 323 117 q 331 85 327 94 q 340 69 334 77 q 358 56 347 62 q 389 45 370 50 l 389 0 l 58 0 l 58 45 m 394 951 l 458 923 q 383 805 419 843 q 309 766 347 766 q 263 773 284 766 q 204 807 243 781 q 171 828 182 822 q 148 838 159 835 q 125 842 137 842 q 98 836 110 842 q 72 813 86 830 q 43 766 58 797 l -20 794 q 33 886 12 856 q 78 934 54 917 q 131 951 102 951 q 162 947 147 951 q 190 937 176 944 q 229 913 203 930 q 266 889 254 896 q 289 879 277 882 q 315 876 300 876 q 356 893 338 876 q 394 951 374 911 z "},"ï":{"ha":437,"x_min":24,"x_max":414,"o":"m 58 45 q 103 68 91 54 q 120 106 116 82 q 125 195 125 131 l 125 511 q 122 564 125 544 q 110 597 119 585 q 87 615 102 609 q 50 627 73 622 l 50 673 l 236 678 l 321 678 l 321 196 q 322 137 321 158 q 325 105 323 117 q 331 85 327 94 q 340 69 334 77 q 358 56 347 62 q 389 45 370 50 l 389 0 l 58 0 l 58 45 m 165 935 l 165 786 l 24 786 l 24 935 l 165 935 m 414 935 l 414 786 l 272 786 l 272 935 l 414 935 z "},"ī":{"ha":437,"x_min":27,"x_max":410,"o":"m 58 45 q 103 68 91 54 q 120 106 116 82 q 125 195 125 131 l 125 511 q 122 564 125 544 q 110 597 119 585 q 87 615 102 609 q 50 627 73 622 l 50 673 l 236 678 l 321 678 l 321 196 q 322 137 321 158 q 325 105 323 117 q 331 85 327 94 q 340 69 334 77 q 358 56 347 62 q 389 45 370 50 l 389 0 l 58 0 l 58 45 m 410 808 l 27 808 l 27 913 l 410 913 l 410 808 z "},"ĭ":{"ha":437,"x_min":3,"x_max":433,"o":"m 58 45 q 103 68 91 54 q 120 106 116 82 q 125 195 125 131 l 125 511 q 122 564 125 544 q 110 597 119 585 q 87 615 102 609 q 50 627 73 622 l 50 673 l 236 678 l 321 678 l 321 196 q 322 137 321 158 q 325 105 323 117 q 331 85 327 94 q 340 69 334 77 q 358 56 347 62 q 389 45 370 50 l 389 0 l 58 0 l 58 45 m 433 956 q 357 814 410 862 q 213 766 304 766 q 77 814 131 766 q 3 956 23 863 l 69 977 q 126 899 92 924 q 216 874 159 874 q 312 900 277 874 q 368 977 347 925 l 433 956 z "},"į":{"ha":437,"x_min":50,"x_max":389,"o":"m 315 943 l 315 777 l 130 777 l 130 943 l 315 943 m 58 45 q 103 68 91 54 q 120 106 116 82 q 125 195 125 131 l 125 511 q 122 564 125 544 q 110 597 119 585 q 87 615 102 609 q 50 627 73 622 l 50 673 l 236 678 l 321 678 l 321 196 q 322 137 321 158 q 325 105 323 117 q 331 85 327 94 q 340 69 334 77 q 358 56 347 62 q 389 45 370 50 l 389 0 l 319 0 q 260 -76 280 -37 q 240 -151 240 -115 q 256 -201 240 -184 q 300 -218 272 -218 q 335 -212 320 -218 q 363 -197 351 -205 l 389 -255 q 333 -284 364 -272 q 267 -296 302 -296 q 214 -289 239 -296 q 169 -269 189 -283 q 137 -231 149 -255 q 125 -174 125 -208 q 155 -82 125 -127 q 241 0 184 -37 l 58 0 l 58 45 z "},"ı":{"ha":437,"x_min":50,"x_max":389,"o":"m 58 45 q 103 68 91 54 q 120 106 116 82 q 125 195 125 131 l 125 511 q 122 564 125 544 q 110 597 119 585 q 87 615 102 609 q 50 627 73 622 l 50 673 l 236 678 l 321 678 l 321 196 q 322 137 321 158 q 325 105 323 117 q 331 85 327 94 q 340 69 334 77 q 358 56 347 62 q 389 45 370 50 l 389 0 l 58 0 l 58 45 z "},"ĳ":{"ha":857,"x_min":50,"x_max":747,"o":"m 315 943 l 315 777 l 130 777 l 130 943 l 315 943 m 58 45 q 103 68 91 54 q 120 106 116 82 q 125 195 125 131 l 125 511 q 122 564 125 544 q 110 597 119 585 q 87 615 102 609 q 50 627 73 622 l 50 673 l 236 678 l 321 678 l 321 196 q 322 137 321 158 q 325 105 323 117 q 331 85 327 94 q 340 69 334 77 q 358 56 347 62 q 389 45 370 50 l 389 0 l 58 0 l 58 45 m 742 943 l 742 777 l 556 777 l 556 943 l 742 943 m 747 54 q 733 -82 747 -26 q 687 -179 720 -137 q 595 -253 654 -221 q 477 -300 536 -284 l 445 -221 q 511 -184 490 -203 q 542 -135 532 -165 q 551 -54 551 -106 l 551 511 q 548 564 551 544 q 537 597 545 585 q 514 615 528 609 q 476 627 499 622 l 476 673 l 663 678 l 747 678 l 747 54 z "},"ĵ":{"ha":420,"x_min":5,"x_max":413,"o":"m 272 996 l 413 783 l 361 738 l 214 882 l 206 882 l 57 738 l 5 783 l 154 996 l 272 996 m 116 511 q 113 564 116 544 q 101 597 110 585 q 78 615 93 609 q 41 627 64 622 l 41 673 l 227 678 l 312 678 l 312 54 q 298 -82 312 -26 q 251 -179 284 -137 q 159 -253 218 -221 q 42 -300 100 -284 l 9 -221 q 76 -184 55 -203 q 106 -135 97 -165 q 116 -54 116 -106 l 116 511 z "},"ķ":{"ha":822,"x_min":39,"x_max":836,"o":"m 538 428 l 713 169 q 770 90 751 111 q 802 59 788 68 q 836 45 815 50 l 836 0 l 504 0 l 504 45 q 534 77 534 51 q 523 118 534 94 q 476 193 511 142 l 424 272 q 395 310 406 298 q 374 328 385 322 q 345 334 363 334 l 312 334 l 312 196 q 316 107 312 132 q 333 68 320 83 q 380 45 345 54 l 380 0 l 47 0 l 47 45 q 79 56 68 50 q 97 71 91 62 q 109 93 104 79 q 115 129 113 106 q 116 196 116 153 l 116 725 q 115 811 116 783 q 111 857 114 838 q 100 887 107 876 q 81 905 94 898 q 39 917 68 911 l 39 962 l 228 971 l 312 971 l 312 399 l 334 399 q 372 404 358 399 q 400 419 385 409 q 445 457 414 430 q 491 506 475 485 q 512 544 507 528 q 517 574 517 559 q 458 629 517 621 l 458 673 l 798 673 l 798 629 q 739 605 771 625 q 636 519 706 585 l 538 428 m 503 -69 q 515 -134 515 -98 q 453 -244 515 -203 q 278 -292 391 -286 l 267 -227 q 332 -210 310 -220 q 363 -182 353 -200 q 374 -132 374 -163 q 368 -69 374 -101 l 503 -69 z "},"ĸ":{"ha":831,"x_min":50,"x_max":844,"o":"m 125 511 q 122 564 125 544 q 110 597 119 585 q 87 615 102 609 q 50 627 73 622 l 50 673 l 236 678 l 321 678 l 321 399 l 345 399 q 379 404 366 399 q 410 420 394 408 q 463 466 431 436 q 502 509 487 488 q 521 544 515 527 q 526 574 526 558 q 467 629 526 621 l 467 673 l 806 673 l 806 629 q 747 605 780 625 q 645 519 715 585 l 547 428 l 722 169 q 779 90 760 111 q 810 59 797 68 q 844 45 824 50 l 844 0 l 513 0 l 513 45 q 543 77 543 51 q 538 102 543 88 q 524 133 534 115 q 485 193 513 150 l 433 272 q 404 310 415 298 q 383 328 393 322 q 353 334 372 334 l 321 334 l 321 196 q 325 107 321 132 q 341 68 329 83 q 389 45 354 54 l 389 0 l 56 0 l 56 45 q 88 56 77 50 q 106 71 100 62 q 117 93 113 79 q 123 129 122 106 q 125 196 125 153 l 125 511 z "},"ĺ":{"ha":428,"x_min":39,"x_max":416,"o":"m 312 196 q 316 107 312 132 q 333 68 320 83 q 380 45 345 54 l 380 0 l 47 0 l 47 45 q 79 56 68 50 q 97 71 91 62 q 109 93 104 79 q 115 129 113 106 q 116 196 116 153 l 116 725 q 115 811 116 783 q 111 857 114 838 q 101 887 108 876 q 81 905 94 898 q 39 917 68 911 l 39 962 l 227 971 l 312 971 l 312 196 m 416 1219 l 416 1175 l 140 996 l 96 1043 l 262 1219 l 416 1219 z "},"ľ":{"ha":605,"x_min":39,"x_max":584,"o":"m 312 196 q 316 107 312 132 q 333 68 320 83 q 380 45 345 54 l 380 0 l 47 0 l 47 45 q 79 56 68 50 q 97 71 91 62 q 109 93 104 79 q 115 129 113 106 q 116 196 116 153 l 116 725 q 115 811 116 783 q 111 857 114 838 q 101 887 108 876 q 81 905 94 898 q 39 917 68 911 l 39 962 l 227 971 l 312 971 l 312 196 m 568 970 q 584 883 584 926 q 551 779 584 827 q 437 669 519 730 l 394 711 q 436 778 424 744 q 448 869 448 812 q 446 909 448 890 q 437 970 444 928 l 568 970 z "},"ļ":{"ha":428,"x_min":39,"x_max":380,"o":"m 312 196 q 316 107 312 132 q 333 68 320 83 q 380 45 345 54 l 380 0 l 47 0 l 47 45 q 79 56 68 50 q 97 71 91 62 q 109 93 104 79 q 115 129 113 106 q 116 196 116 153 l 116 725 q 115 811 116 783 q 111 857 114 838 q 101 887 108 876 q 81 905 94 898 q 39 917 68 911 l 39 962 l 227 971 l 312 971 l 312 196 m 279 -69 q 290 -134 290 -98 q 228 -244 290 -203 q 54 -292 166 -286 l 43 -227 q 107 -210 85 -220 q 139 -182 129 -200 q 149 -132 149 -163 q 144 -69 149 -101 l 279 -69 z "},"ł":{"ha":475,"x_min":11,"x_max":465,"o":"m 336 533 l 336 196 q 340 107 336 132 q 356 68 344 83 q 404 45 369 54 l 404 0 l 71 0 l 71 45 q 103 56 92 50 q 121 71 115 62 q 132 93 127 79 q 138 129 137 106 q 140 196 140 153 l 140 425 l 52 366 l 11 433 l 140 513 l 140 725 q 139 811 140 783 q 135 857 138 838 q 124 887 132 876 q 104 905 117 898 q 63 917 92 911 l 63 962 l 251 971 l 336 971 l 336 621 l 424 681 l 465 614 l 336 533 z "},"ŀ":{"ha":615,"x_min":39,"x_max":597,"o":"m 312 196 q 316 107 312 132 q 333 68 320 83 q 380 45 345 54 l 380 0 l 47 0 l 47 45 q 79 56 68 50 q 97 71 91 62 q 109 93 104 79 q 115 129 113 106 q 116 196 116 153 l 116 725 q 115 811 116 783 q 111 857 114 838 q 101 887 108 876 q 81 905 94 898 q 39 917 68 911 l 39 962 l 227 971 l 312 971 l 312 196 m 597 554 l 597 388 l 428 388 l 428 554 l 597 554 z "},"ń":{"ha":838,"x_min":50,"x_max":795,"o":"m 795 0 l 467 0 l 467 45 q 510 67 498 52 q 527 106 522 81 q 531 195 531 131 l 531 376 q 529 455 531 425 q 523 506 527 486 q 510 539 518 526 q 493 561 503 552 q 471 573 484 569 q 440 577 459 577 q 387 561 414 577 q 340 517 359 545 q 321 457 321 489 l 321 196 q 325 106 321 132 q 341 67 329 81 q 386 45 354 52 l 386 0 l 58 0 l 58 45 q 103 68 91 54 q 120 106 116 82 q 125 195 125 131 l 125 474 q 123 548 125 524 q 115 587 121 572 q 95 611 109 602 q 50 627 82 620 l 50 673 l 235 678 l 321 678 l 311 581 l 319 578 q 393 637 361 616 q 459 671 425 659 q 533 684 494 684 q 625 668 589 684 q 685 621 662 652 q 717 547 707 591 q 727 444 727 503 l 727 196 q 728 140 727 166 q 733 98 729 114 q 744 73 737 83 q 764 56 751 63 q 795 45 777 50 l 795 0 m 606 1000 l 606 956 l 370 737 l 316 782 l 464 1000 l 606 1000 z "},"ň":{"ha":838,"x_min":50,"x_max":795,"o":"m 795 0 l 467 0 l 467 45 q 510 67 498 52 q 527 106 522 81 q 531 195 531 131 l 531 376 q 529 455 531 425 q 523 506 527 486 q 510 539 518 526 q 493 561 503 552 q 471 573 484 569 q 440 577 459 577 q 387 561 414 577 q 340 517 359 545 q 321 457 321 489 l 321 196 q 325 106 321 132 q 341 67 329 81 q 386 45 354 52 l 386 0 l 58 0 l 58 45 q 103 68 91 54 q 120 106 116 82 q 125 195 125 131 l 125 474 q 123 548 125 524 q 115 587 121 572 q 95 611 109 602 q 50 627 82 620 l 50 673 l 235 678 l 321 678 l 311 581 l 319 578 q 393 637 361 616 q 459 671 425 659 q 533 684 494 684 q 625 668 589 684 q 685 621 662 652 q 717 547 707 591 q 727 444 727 503 l 727 196 q 728 140 727 166 q 733 98 729 114 q 744 73 737 83 q 764 56 751 63 q 795 45 777 50 l 795 0 m 355 747 l 215 960 l 267 1005 l 414 857 l 422 857 l 571 1005 l 623 960 l 473 747 l 355 747 z "},"ñ":{"ha":838,"x_min":50,"x_max":795,"o":"m 795 0 l 467 0 l 467 45 q 510 67 498 52 q 527 106 522 81 q 531 195 531 131 l 531 376 q 529 455 531 425 q 523 506 527 486 q 510 539 518 526 q 493 561 503 552 q 471 573 484 569 q 440 577 459 577 q 387 561 414 577 q 340 517 359 545 q 321 457 321 489 l 321 196 q 325 106 321 132 q 341 67 329 81 q 386 45 354 52 l 386 0 l 58 0 l 58 45 q 103 68 91 54 q 120 106 116 82 q 125 195 125 131 l 125 474 q 123 548 125 524 q 115 587 121 572 q 95 611 109 602 q 50 627 82 620 l 50 673 l 235 678 l 321 678 l 311 581 l 319 578 q 393 637 361 616 q 459 671 425 659 q 533 684 494 684 q 625 668 589 684 q 685 621 662 652 q 717 547 707 591 q 727 444 727 503 l 727 196 q 728 140 727 166 q 733 98 729 114 q 744 73 737 83 q 764 56 751 63 q 795 45 777 50 l 795 0 m 595 951 l 659 923 q 584 805 620 843 q 510 766 548 766 q 464 773 485 766 q 405 807 444 781 q 372 828 383 822 q 349 838 360 835 q 326 842 338 842 q 299 836 311 842 q 273 813 287 830 q 243 766 259 797 l 180 794 q 234 886 212 856 q 279 934 255 917 q 332 951 302 951 q 362 947 348 951 q 391 937 377 944 q 429 913 404 930 q 466 889 454 896 q 489 879 478 882 q 515 876 500 876 q 557 893 539 876 q 595 951 575 911 z "},"ņ":{"ha":838,"x_min":50,"x_max":795,"o":"m 795 0 l 467 0 l 467 45 q 510 67 498 52 q 527 106 522 81 q 531 195 531 131 l 531 376 q 529 455 531 425 q 523 506 527 486 q 510 539 518 526 q 493 561 503 552 q 471 573 484 569 q 440 577 459 577 q 387 561 414 577 q 340 517 359 545 q 321 457 321 489 l 321 196 q 325 106 321 132 q 341 67 329 81 q 386 45 354 52 l 386 0 l 58 0 l 58 45 q 103 68 91 54 q 120 106 116 82 q 125 195 125 131 l 125 474 q 123 548 125 524 q 115 587 121 572 q 95 611 109 602 q 50 627 82 620 l 50 673 l 235 678 l 321 678 l 311 581 l 319 578 q 393 637 361 616 q 459 671 425 659 q 533 684 494 684 q 625 668 589 684 q 685 621 662 652 q 717 547 707 591 q 727 444 727 503 l 727 196 q 728 140 727 166 q 733 98 729 114 q 744 73 737 83 q 764 56 751 63 q 795 45 777 50 l 795 0 m 497 -69 q 509 -134 509 -98 q 447 -244 509 -203 q 272 -292 385 -286 l 261 -227 q 326 -210 304 -220 q 357 -182 347 -200 q 368 -132 368 -163 q 362 -69 368 -101 l 497 -69 z "},"ŉ":{"ha":1032,"x_min":41,"x_max":989,"o":"m 250 971 q 266 869 266 918 q 248 778 266 819 q 193 700 229 737 q 96 621 157 663 l 41 680 q 89 755 73 713 q 104 852 104 797 q 101 912 104 884 q 92 971 98 941 l 250 971 m 989 0 l 661 0 l 661 45 q 704 67 692 52 q 721 106 716 81 q 725 195 725 131 l 725 376 q 723 455 725 425 q 716 506 721 486 q 704 539 712 526 q 687 561 696 552 q 665 573 677 569 q 634 577 653 577 q 581 561 608 577 q 534 517 553 545 q 515 457 515 489 l 515 196 q 519 106 515 132 q 535 67 523 81 q 580 45 548 52 l 580 0 l 252 0 l 252 45 q 297 68 285 54 q 314 106 310 82 q 319 195 319 131 l 319 474 q 317 548 319 524 q 309 587 315 572 q 289 611 302 602 q 243 627 276 620 l 243 673 l 429 678 l 515 678 l 505 581 l 513 578 q 587 637 555 616 q 653 671 618 659 q 727 684 688 684 q 819 668 783 684 q 879 621 856 652 q 911 547 901 591 q 921 444 921 503 l 921 196 q 922 140 921 166 q 927 98 923 114 q 938 73 931 83 q 958 56 945 63 q 989 45 971 50 l 989 0 z "},"ò":{"ha":791,"x_min":62,"x_max":729,"o":"m 387 -11 q 215 24 288 -11 q 102 136 143 59 q 62 332 62 213 q 87 489 62 422 q 157 599 112 555 q 263 663 201 642 q 398 684 326 684 q 646 597 562 684 q 729 344 729 511 q 688 146 729 226 q 570 28 646 66 q 387 -11 493 -11 m 268 347 q 300 131 268 203 q 397 60 332 60 q 457 78 433 60 q 496 131 481 96 q 517 214 511 165 q 523 323 523 262 q 491 541 523 469 q 395 613 458 613 q 321 584 349 613 q 281 496 294 555 q 268 347 268 438 m 351 1000 l 498 782 l 444 737 l 209 956 l 209 1000 l 351 1000 z "},"ó":{"ha":791,"x_min":62,"x_max":729,"o":"m 387 -11 q 215 24 288 -11 q 102 136 143 59 q 62 332 62 213 q 87 489 62 422 q 157 599 112 555 q 263 663 201 642 q 398 684 326 684 q 646 597 562 684 q 729 344 729 511 q 688 146 729 226 q 570 28 646 66 q 387 -11 493 -11 m 268 347 q 300 131 268 203 q 397 60 332 60 q 457 78 433 60 q 496 131 481 96 q 517 214 511 165 q 523 323 523 262 q 491 541 523 469 q 395 613 458 613 q 321 584 349 613 q 281 496 294 555 q 268 347 268 438 m 582 1000 l 582 956 l 347 737 l 292 782 l 440 1000 l 582 1000 z "},"ô":{"ha":791,"x_min":62,"x_max":729,"o":"m 387 -11 q 215 24 288 -11 q 102 136 143 59 q 62 332 62 213 q 87 489 62 422 q 157 599 112 555 q 263 663 201 642 q 398 684 326 684 q 646 597 562 684 q 729 344 729 511 q 688 146 729 226 q 570 28 646 66 q 387 -11 493 -11 m 268 347 q 300 131 268 203 q 397 60 332 60 q 457 78 433 60 q 496 131 481 96 q 517 214 511 165 q 523 323 523 262 q 491 541 523 469 q 395 613 458 613 q 321 584 349 613 q 281 496 294 555 q 268 347 268 438 m 460 996 l 600 783 l 547 738 l 400 886 l 393 886 l 243 738 l 191 783 l 342 996 l 460 996 z "},"õ":{"ha":791,"x_min":62,"x_max":729,"o":"m 387 -11 q 215 24 288 -11 q 102 136 143 59 q 62 332 62 213 q 87 489 62 422 q 157 599 112 555 q 263 663 201 642 q 398 684 326 684 q 646 597 562 684 q 729 344 729 511 q 688 146 729 226 q 570 28 646 66 q 387 -11 493 -11 m 268 347 q 300 131 268 203 q 397 60 332 60 q 457 78 433 60 q 496 131 481 96 q 517 214 511 165 q 523 323 523 262 q 491 541 523 469 q 395 613 458 613 q 321 584 349 613 q 281 496 294 555 q 268 347 268 438 m 571 951 l 635 923 q 560 805 596 843 q 486 766 524 766 q 440 773 461 766 q 381 807 420 781 q 348 828 359 822 q 325 838 336 835 q 302 842 314 842 q 275 836 287 842 q 249 813 263 830 q 220 766 235 797 l 157 794 q 210 886 189 856 q 255 934 231 917 q 308 951 279 951 q 339 947 324 951 q 367 937 353 944 q 406 913 380 930 q 443 889 431 896 q 466 879 454 882 q 492 876 477 876 q 533 893 515 876 q 571 951 551 911 z "},"ö":{"ha":791,"x_min":62,"x_max":729,"o":"m 387 -11 q 215 24 288 -11 q 102 136 143 59 q 62 332 62 213 q 87 489 62 422 q 157 599 112 555 q 263 663 201 642 q 398 684 326 684 q 646 597 562 684 q 729 344 729 511 q 688 146 729 226 q 570 28 646 66 q 387 -11 493 -11 m 268 347 q 300 131 268 203 q 397 60 332 60 q 457 78 433 60 q 496 131 481 96 q 517 214 511 165 q 523 323 523 262 q 491 541 523 469 q 395 613 458 613 q 321 584 349 613 q 281 496 294 555 q 268 347 268 438 m 342 935 l 342 786 l 201 786 l 201 935 l 342 935 m 591 935 l 591 786 l 449 786 l 449 935 l 591 935 z "},"ō":{"ha":791,"x_min":62,"x_max":729,"o":"m 387 -11 q 215 24 288 -11 q 102 136 143 59 q 62 332 62 213 q 87 489 62 422 q 157 599 112 555 q 263 663 201 642 q 398 684 326 684 q 646 597 562 684 q 729 344 729 511 q 688 146 729 226 q 570 28 646 66 q 387 -11 493 -11 m 268 347 q 300 131 268 203 q 397 60 332 60 q 457 78 433 60 q 496 131 481 96 q 517 214 511 165 q 523 323 523 262 q 491 541 523 469 q 395 613 458 613 q 321 584 349 613 q 281 496 294 555 q 268 347 268 438 m 587 808 l 204 808 l 204 913 l 587 913 l 587 808 z "},"ŏ":{"ha":791,"x_min":62,"x_max":729,"o":"m 387 -11 q 215 24 288 -11 q 102 136 143 59 q 62 332 62 213 q 87 489 62 422 q 157 599 112 555 q 263 663 201 642 q 398 684 326 684 q 646 597 562 684 q 729 344 729 511 q 688 146 729 226 q 570 28 646 66 q 387 -11 493 -11 m 268 347 q 300 131 268 203 q 397 60 332 60 q 457 78 433 60 q 496 131 481 96 q 517 214 511 165 q 523 323 523 262 q 491 541 523 469 q 395 613 458 613 q 321 584 349 613 q 281 496 294 555 q 268 347 268 438 m 610 956 q 534 814 587 862 q 390 766 481 766 q 254 814 308 766 q 180 956 200 863 l 246 977 q 303 899 269 924 q 393 874 336 874 q 489 900 454 874 q 545 977 524 925 l 610 956 z "},"ő":{"ha":791,"x_min":62,"x_max":729,"o":"m 387 -11 q 215 24 288 -11 q 102 136 143 59 q 62 332 62 213 q 87 489 62 422 q 157 599 112 555 q 263 663 201 642 q 398 684 326 684 q 646 597 562 684 q 729 344 729 511 q 688 146 729 226 q 570 28 646 66 q 387 -11 493 -11 m 268 347 q 300 131 268 203 q 397 60 332 60 q 457 78 433 60 q 496 131 481 96 q 517 214 511 165 q 523 323 523 262 q 491 541 523 469 q 395 613 458 613 q 321 584 349 613 q 281 496 294 555 q 268 347 268 438 m 464 1000 l 464 956 l 248 737 l 195 782 l 357 1000 l 464 1000 m 680 1000 l 680 956 l 460 737 l 408 782 l 573 1000 l 680 1000 z "},"ø":{"ha":791,"x_min":62,"x_max":729,"o":"m 169 54 q 62 331 62 138 q 87 488 62 422 q 157 598 112 555 q 263 663 201 642 q 398 684 326 684 q 551 659 485 684 l 617 764 l 714 764 l 622 618 q 729 344 729 532 q 688 146 729 226 q 570 28 646 66 q 387 -11 493 -11 q 240 14 304 -11 l 174 -92 l 77 -92 l 169 54 m 271 213 l 486 557 q 395 613 455 613 q 295 548 326 613 q 264 347 264 484 q 271 213 264 262 m 519 460 l 304 115 q 397 60 336 60 q 459 78 434 60 q 499 131 484 96 q 521 214 515 165 q 527 323 527 262 q 519 460 527 405 z "},"ǿ":{"ha":791,"x_min":62,"x_max":729,"o":"m 169 54 q 62 331 62 138 q 87 488 62 422 q 157 598 112 555 q 263 663 201 642 q 398 684 326 684 q 551 659 485 684 l 617 764 l 714 764 l 622 618 q 729 344 729 532 q 688 146 729 226 q 570 28 646 66 q 387 -11 493 -11 q 240 14 304 -11 l 174 -92 l 77 -92 l 169 54 m 271 213 l 486 557 q 395 613 455 613 q 295 548 326 613 q 264 347 264 484 q 271 213 264 262 m 519 460 l 304 115 q 397 60 336 60 q 459 78 434 60 q 499 131 484 96 q 521 214 515 165 q 527 323 527 262 q 519 460 527 405 m 582 1000 l 582 956 l 347 737 l 292 782 l 440 1000 l 582 1000 z "},"œ":{"ha":1190,"x_min":62,"x_max":1143,"o":"m 1125 123 q 988 20 1056 50 q 832 -11 920 -11 q 714 11 768 -11 q 617 79 660 33 l 610 79 q 541 27 572 45 q 472 -1 509 9 q 387 -11 435 -11 q 216 24 288 -11 q 102 136 143 59 q 62 330 62 212 q 101 520 62 441 q 218 642 141 600 q 399 684 294 684 q 520 662 467 684 q 625 591 573 641 l 632 591 q 737 662 686 640 q 847 684 789 684 q 955 669 909 684 q 1035 630 1002 655 q 1090 568 1068 604 q 1128 471 1116 526 q 1143 334 1142 414 l 713 334 q 756 154 713 212 q 888 96 800 96 q 981 115 939 96 q 1070 183 1022 134 l 1125 123 m 268 347 q 300 131 268 203 q 397 60 332 60 q 457 78 433 60 q 496 131 481 96 q 517 214 511 165 q 523 323 523 262 q 491 541 523 469 q 395 613 458 613 q 321 584 349 613 q 281 496 294 555 q 268 347 268 438 m 942 408 q 915 562 939 511 q 836 613 890 613 q 753 560 784 613 q 716 408 722 507 l 942 408 z "},"ŕ":{"ha":641,"x_min":50,"x_max":622,"o":"m 311 576 l 320 574 q 422 658 370 632 q 535 684 474 684 q 622 675 576 684 l 622 488 l 499 488 q 469 548 488 527 q 419 569 450 569 q 386 560 404 569 q 353 534 368 551 q 331 500 338 517 q 323 465 325 483 q 321 412 321 448 l 321 196 q 326 106 321 132 q 345 65 330 80 q 393 45 359 51 l 393 0 l 58 0 l 58 45 q 103 68 91 54 q 120 106 116 82 q 125 195 125 131 l 125 474 q 123 548 125 524 q 115 587 121 572 q 95 611 109 602 q 50 627 82 620 l 50 673 l 235 678 l 321 678 l 311 576 m 507 1000 l 507 956 l 272 737 l 218 782 l 366 1000 l 507 1000 z "},"ř":{"ha":641,"x_min":50,"x_max":622,"o":"m 311 576 l 320 574 q 422 658 370 632 q 535 684 474 684 q 622 675 576 684 l 622 488 l 499 488 q 469 548 488 527 q 419 569 450 569 q 386 560 404 569 q 353 534 368 551 q 331 500 338 517 q 323 465 325 483 q 321 412 321 448 l 321 196 q 326 106 321 132 q 345 65 330 80 q 393 45 359 51 l 393 0 l 58 0 l 58 45 q 103 68 91 54 q 120 106 116 82 q 125 195 125 131 l 125 474 q 123 548 125 524 q 115 587 121 572 q 95 611 109 602 q 50 627 82 620 l 50 673 l 235 678 l 321 678 l 311 576 m 256 747 l 116 960 l 168 1005 l 315 857 l 323 857 l 472 1005 l 524 960 l 374 747 l 256 747 z "},"ŗ":{"ha":641,"x_min":50,"x_max":622,"o":"m 311 576 l 320 574 q 422 658 370 632 q 535 684 474 684 q 622 675 576 684 l 622 488 l 499 488 q 469 548 488 527 q 419 569 450 569 q 386 560 404 569 q 353 534 368 551 q 331 500 338 517 q 323 465 325 483 q 321 412 321 448 l 321 196 q 326 106 321 132 q 345 65 330 80 q 393 45 359 51 l 393 0 l 58 0 l 58 45 q 103 68 91 54 q 120 106 116 82 q 125 195 125 131 l 125 474 q 123 548 125 524 q 115 587 121 572 q 95 611 109 602 q 50 627 82 620 l 50 673 l 235 678 l 321 678 l 311 576 m 304 -69 q 316 -134 316 -98 q 254 -244 316 -203 q 79 -292 192 -286 l 68 -227 q 133 -210 111 -220 q 165 -182 155 -200 q 175 -132 175 -163 q 170 -69 175 -101 l 304 -69 z "},"ś":{"ha":637,"x_min":55,"x_max":582,"o":"m 146 183 q 197 91 162 121 q 292 60 233 60 q 369 83 342 60 q 395 150 395 106 q 383 197 395 178 q 343 235 371 217 q 250 282 316 253 q 179 318 212 298 q 122 362 146 338 q 83 418 98 387 q 69 486 69 448 q 104 591 69 547 q 205 660 140 636 q 355 684 271 684 q 452 680 404 684 q 574 662 499 675 l 574 504 l 485 504 q 451 571 469 547 q 410 604 432 595 q 356 613 387 613 q 285 593 311 613 q 258 536 258 572 q 268 492 258 510 q 302 456 277 473 q 396 410 326 439 q 500 354 460 383 q 561 288 540 326 q 582 200 582 250 q 562 105 582 145 q 505 40 541 66 q 417 2 468 14 q 304 -11 366 -11 q 55 21 192 -11 l 55 183 l 146 183 m 505 1000 l 505 956 l 270 737 l 216 782 l 363 1000 l 505 1000 z "},"ŝ":{"ha":637,"x_min":55,"x_max":582,"o":"m 146 183 q 197 91 162 121 q 292 60 233 60 q 369 83 342 60 q 395 150 395 106 q 383 197 395 178 q 343 235 371 217 q 250 282 316 253 q 179 318 212 298 q 122 362 146 338 q 83 418 98 387 q 69 486 69 448 q 104 591 69 547 q 205 660 140 636 q 355 684 271 684 q 452 680 404 684 q 574 662 499 675 l 574 504 l 485 504 q 451 571 469 547 q 410 604 432 595 q 356 613 387 613 q 285 593 311 613 q 258 536 258 572 q 268 492 258 510 q 302 456 277 473 q 396 410 326 439 q 500 354 460 383 q 561 288 540 326 q 582 200 582 250 q 562 105 582 145 q 505 40 541 66 q 417 2 468 14 q 304 -11 366 -11 q 55 21 192 -11 l 55 183 l 146 183 m 383 996 l 523 783 l 471 738 l 323 886 l 316 886 l 167 738 l 115 783 l 265 996 l 383 996 z "},"š":{"ha":637,"x_min":55,"x_max":582,"o":"m 146 183 q 197 91 162 121 q 292 60 233 60 q 369 83 342 60 q 395 150 395 106 q 383 197 395 178 q 343 235 371 217 q 250 282 316 253 q 179 318 212 298 q 122 362 146 338 q 83 418 98 387 q 69 486 69 448 q 104 591 69 547 q 205 660 140 636 q 355 684 271 684 q 452 680 404 684 q 574 662 499 675 l 574 504 l 485 504 q 451 571 469 547 q 410 604 432 595 q 356 613 387 613 q 285 593 311 613 q 258 536 258 572 q 268 492 258 510 q 302 456 277 473 q 396 410 326 439 q 500 354 460 383 q 561 288 540 326 q 582 200 582 250 q 562 105 582 145 q 505 40 541 66 q 417 2 468 14 q 304 -11 366 -11 q 55 21 192 -11 l 55 183 l 146 183 m 254 747 l 115 960 l 167 1005 l 314 857 l 321 857 l 471 1005 l 523 960 l 372 747 l 254 747 z "},"ş":{"ha":637,"x_min":55,"x_max":582,"o":"m 146 183 q 197 91 162 121 q 292 60 233 60 q 369 83 342 60 q 395 150 395 106 q 383 197 395 178 q 343 235 371 217 q 250 282 316 253 q 179 318 212 298 q 122 362 146 338 q 83 418 98 387 q 69 486 69 448 q 104 591 69 547 q 205 660 140 636 q 355 684 271 684 q 452 680 404 684 q 574 662 499 675 l 574 504 l 485 504 q 451 571 469 547 q 410 604 432 595 q 356 613 387 613 q 285 593 311 613 q 258 536 258 572 q 268 492 258 510 q 302 456 277 473 q 396 410 326 439 q 500 354 460 383 q 561 288 540 326 q 582 200 582 250 q 546 80 582 130 q 440 8 510 31 l 361 -46 q 379 -84 373 -62 q 385 -134 385 -107 q 322 -244 385 -203 q 148 -292 260 -286 l 137 -227 q 218 -200 193 -219 q 243 -141 243 -181 q 240 -98 243 -116 l 240 -69 l 328 -10 q 316 -11 322 -11 l 304 -11 q 55 21 192 -11 l 55 183 l 146 183 z "},"ș":{"ha":637,"x_min":55,"x_max":582,"o":"m 146 183 q 197 91 162 121 q 292 60 233 60 q 369 83 342 60 q 395 150 395 106 q 383 197 395 178 q 343 235 371 217 q 250 282 316 253 q 179 318 212 298 q 122 362 146 338 q 83 418 98 387 q 69 486 69 448 q 104 591 69 547 q 205 660 140 636 q 355 684 271 684 q 452 680 404 684 q 574 662 499 675 l 574 504 l 485 504 q 451 571 469 547 q 410 604 432 595 q 356 613 387 613 q 285 593 311 613 q 258 536 258 572 q 268 492 258 510 q 302 456 277 473 q 396 410 326 439 q 500 354 460 383 q 561 288 540 326 q 582 200 582 250 q 562 105 582 145 q 505 40 541 66 q 417 2 468 14 q 304 -11 366 -11 q 55 21 192 -11 l 55 183 l 146 183 m 401 -69 q 412 -134 412 -98 q 350 -244 412 -203 q 176 -292 288 -286 l 165 -227 q 229 -210 208 -220 q 261 -182 251 -200 q 271 -132 271 -163 q 266 -69 271 -101 l 401 -69 z "},"ß":{"ha":940,"x_min":42,"x_max":895,"o":"m 401 16 l 401 144 l 479 144 q 526 80 496 100 q 606 60 556 60 q 682 82 655 60 q 708 150 708 105 q 700 190 708 173 q 675 222 692 208 q 632 250 658 236 q 572 279 606 263 q 483 328 516 304 q 433 383 450 353 q 416 455 416 414 q 425 511 416 487 q 455 559 435 535 q 519 621 476 584 q 590 698 568 661 q 612 784 612 735 q 581 871 612 840 q 492 903 549 903 q 400 878 438 903 q 342 792 363 853 q 321 629 321 731 l 321 0 l 57 0 l 57 45 q 101 66 89 54 q 119 98 114 77 q 125 170 125 119 l 125 588 l 42 588 l 42 635 q 93 648 79 640 q 117 673 108 656 q 133 726 127 689 q 249 910 154 847 q 500 973 343 973 q 701 928 635 973 q 766 792 766 882 q 756 731 766 757 q 724 680 745 705 q 648 610 703 655 q 606 571 621 587 q 586 543 591 555 q 580 515 580 530 q 593 479 580 495 q 632 447 606 463 q 711 409 659 431 q 814 353 775 381 q 874 288 854 325 q 895 200 895 250 q 875 105 895 145 q 818 40 854 66 q 730 2 781 14 q 617 -11 679 -11 q 516 -5 563 -11 q 401 16 469 0 z "},"ſ":{"ha":446,"x_min":42,"x_max":547,"o":"m 57 45 q 101 66 89 54 q 119 98 114 77 q 125 170 125 119 l 125 588 l 42 588 l 42 635 q 86 645 74 640 q 107 661 99 651 q 120 686 115 671 q 127 726 125 702 q 217 911 138 848 q 443 974 297 974 q 547 964 501 974 l 547 826 l 454 826 q 429 881 443 863 q 393 899 415 899 q 348 879 363 899 q 327 824 332 860 q 321 724 321 789 l 321 170 q 326 98 321 119 q 346 65 332 77 q 395 45 359 53 l 395 0 l 57 0 l 57 45 z "},"ť":{"ha":692,"x_min":25,"x_max":665,"o":"m 649 970 q 665 883 665 926 q 652 819 665 848 q 613 762 639 790 q 526 688 587 734 l 482 730 q 518 784 507 755 q 528 869 528 813 q 527 909 528 890 q 517 970 525 928 l 649 970 m 522 81 q 414 10 463 31 q 311 -11 365 -11 q 160 44 210 -11 q 110 209 110 98 l 110 588 l 25 588 l 25 635 q 86 655 66 642 q 117 691 106 669 q 134 751 127 714 q 144 842 140 787 l 306 842 l 306 673 l 499 673 l 499 588 l 306 588 l 306 282 q 313 169 306 205 q 337 115 320 132 q 379 98 354 98 q 413 101 398 98 q 445 113 428 104 q 479 138 461 122 l 522 81 z "},"ț":{"ha":507,"x_min":25,"x_max":522,"o":"m 522 81 q 414 10 463 31 q 311 -11 365 -11 q 160 44 210 -11 q 110 209 110 98 l 110 588 l 25 588 l 25 635 q 86 655 66 642 q 117 691 106 669 q 134 751 127 714 q 144 842 140 787 l 306 842 l 306 673 l 499 673 l 499 588 l 306 588 l 306 282 q 313 169 306 205 q 337 115 320 132 q 379 98 354 98 q 413 101 398 98 q 445 113 428 104 q 479 138 461 122 l 522 81 m 359 -69 q 371 -134 371 -98 q 309 -244 371 -203 q 134 -292 247 -286 l 123 -227 q 188 -210 166 -220 q 220 -182 210 -200 q 230 -132 230 -163 q 224 -69 230 -101 l 359 -69 z "},"ŧ":{"ha":523,"x_min":33,"x_max":530,"o":"m 471 326 l 313 326 l 313 282 q 320 169 313 205 q 345 115 328 132 q 387 98 361 98 q 420 101 406 98 q 452 113 435 104 q 487 138 469 122 l 530 81 q 421 10 470 31 q 318 -11 372 -11 q 167 44 217 -11 q 117 209 117 98 l 117 326 l 33 326 l 33 401 l 117 401 l 117 588 l 33 588 l 33 635 q 94 655 74 642 q 124 691 113 669 q 141 751 135 714 q 151 842 148 787 l 313 842 l 313 673 l 507 673 l 507 588 l 313 588 l 313 401 l 471 401 l 471 326 z "},"ù":{"ha":829,"x_min":43,"x_max":788,"o":"m 43 673 l 307 673 l 307 296 q 311 195 307 231 q 327 137 315 158 q 355 105 338 115 q 397 96 372 96 q 450 111 422 96 q 497 155 478 127 q 517 215 517 183 l 517 477 q 515 550 517 526 q 507 588 513 574 q 489 611 501 602 q 449 628 477 620 l 449 673 l 713 673 l 713 198 q 715 123 713 146 q 723 85 717 99 q 743 61 729 71 q 788 45 756 52 l 788 0 l 604 -6 l 522 -6 l 528 92 l 519 94 q 407 12 456 35 q 307 -11 357 -11 q 192 16 235 -11 q 130 95 149 43 q 111 229 111 146 l 111 477 q 110 535 111 515 q 107 567 109 555 q 101 587 105 578 q 91 604 98 596 q 74 617 85 611 q 43 628 62 623 l 43 673 m 359 1000 l 507 782 l 453 737 l 218 956 l 218 1000 l 359 1000 z "},"ú":{"ha":829,"x_min":43,"x_max":788,"o":"m 43 673 l 307 673 l 307 296 q 311 195 307 231 q 327 137 315 158 q 355 105 338 115 q 397 96 372 96 q 450 111 422 96 q 497 155 478 127 q 517 215 517 183 l 517 477 q 515 550 517 526 q 507 588 513 574 q 489 611 501 602 q 449 628 477 620 l 449 673 l 713 673 l 713 198 q 715 123 713 146 q 723 85 717 99 q 743 61 729 71 q 788 45 756 52 l 788 0 l 604 -6 l 522 -6 l 528 92 l 519 94 q 407 12 456 35 q 307 -11 357 -11 q 192 16 235 -11 q 130 95 149 43 q 111 229 111 146 l 111 477 q 110 535 111 515 q 107 567 109 555 q 101 587 105 578 q 91 604 98 596 q 74 617 85 611 q 43 628 62 623 l 43 673 m 602 1000 l 602 956 l 366 737 l 312 782 l 460 1000 l 602 1000 z "},"û":{"ha":829,"x_min":43,"x_max":788,"o":"m 43 673 l 307 673 l 307 296 q 311 195 307 231 q 327 137 315 158 q 355 105 338 115 q 397 96 372 96 q 450 111 422 96 q 497 155 478 127 q 517 215 517 183 l 517 477 q 515 550 517 526 q 507 588 513 574 q 489 611 501 602 q 449 628 477 620 l 449 673 l 713 673 l 713 198 q 715 123 713 146 q 723 85 717 99 q 743 61 729 71 q 788 45 756 52 l 788 0 l 604 -6 l 522 -6 l 528 92 l 519 94 q 407 12 456 35 q 307 -11 357 -11 q 192 16 235 -11 q 130 95 149 43 q 111 229 111 146 l 111 477 q 110 535 111 515 q 107 567 109 555 q 101 587 105 578 q 91 604 98 596 q 74 617 85 611 q 43 628 62 623 l 43 673 m 479 996 l 618 783 l 566 738 l 419 886 l 412 886 l 262 738 l 210 783 l 361 996 l 479 996 z "},"ũ":{"ha":829,"x_min":43,"x_max":788,"o":"m 43 673 l 307 673 l 307 296 q 311 195 307 231 q 327 137 315 158 q 355 105 338 115 q 397 96 372 96 q 450 111 422 96 q 497 155 478 127 q 517 215 517 183 l 517 477 q 515 550 517 526 q 507 588 513 574 q 489 611 501 602 q 449 628 477 620 l 449 673 l 713 673 l 713 198 q 715 123 713 146 q 723 85 717 99 q 743 61 729 71 q 788 45 756 52 l 788 0 l 604 -6 l 522 -6 l 528 92 l 519 94 q 407 12 456 35 q 307 -11 357 -11 q 192 16 235 -11 q 130 95 149 43 q 111 229 111 146 l 111 477 q 110 535 111 515 q 107 567 109 555 q 101 587 105 578 q 91 604 98 596 q 74 617 85 611 q 43 628 62 623 l 43 673 m 590 951 l 654 923 q 579 805 615 843 q 505 766 543 766 q 459 773 480 766 q 400 807 439 781 q 367 828 378 822 q 344 838 355 835 q 321 842 333 842 q 294 836 306 842 q 268 813 282 830 q 239 766 254 797 l 176 794 q 229 886 208 856 q 274 934 250 917 q 327 951 298 951 q 358 947 343 951 q 386 937 372 944 q 425 913 399 930 q 461 889 450 896 q 485 879 473 882 q 511 876 496 876 q 552 893 534 876 q 590 951 570 911 z "},"ü":{"ha":829,"x_min":43,"x_max":788,"o":"m 43 673 l 307 673 l 307 296 q 311 195 307 231 q 327 137 315 158 q 355 105 338 115 q 397 96 372 96 q 450 111 422 96 q 497 155 478 127 q 517 215 517 183 l 517 477 q 515 550 517 526 q 507 588 513 574 q 489 611 501 602 q 449 628 477 620 l 449 673 l 713 673 l 713 198 q 715 123 713 146 q 723 85 717 99 q 743 61 729 71 q 788 45 756 52 l 788 0 l 604 -6 l 522 -6 l 528 92 l 519 94 q 407 12 456 35 q 307 -11 357 -11 q 192 16 235 -11 q 130 95 149 43 q 111 229 111 146 l 111 477 q 110 535 111 515 q 107 567 109 555 q 101 587 105 578 q 91 604 98 596 q 74 617 85 611 q 43 628 62 623 l 43 673 m 361 935 l 361 786 l 220 786 l 220 935 l 361 935 m 610 935 l 610 786 l 468 786 l 468 935 l 610 935 z "},"ū":{"ha":829,"x_min":43,"x_max":788,"o":"m 43 673 l 307 673 l 307 296 q 311 195 307 231 q 327 137 315 158 q 355 105 338 115 q 397 96 372 96 q 450 111 422 96 q 497 155 478 127 q 517 215 517 183 l 517 477 q 515 550 517 526 q 507 588 513 574 q 489 611 501 602 q 449 628 477 620 l 449 673 l 713 673 l 713 198 q 715 123 713 146 q 723 85 717 99 q 743 61 729 71 q 788 45 756 52 l 788 0 l 604 -6 l 522 -6 l 528 92 l 519 94 q 407 12 456 35 q 307 -11 357 -11 q 192 16 235 -11 q 130 95 149 43 q 111 229 111 146 l 111 477 q 110 535 111 515 q 107 567 109 555 q 101 587 105 578 q 91 604 98 596 q 74 617 85 611 q 43 628 62 623 l 43 673 m 606 808 l 224 808 l 224 913 l 606 913 l 606 808 z "},"ŭ":{"ha":829,"x_min":43,"x_max":788,"o":"m 43 673 l 307 673 l 307 296 q 311 195 307 231 q 327 137 315 158 q 355 105 338 115 q 397 96 372 96 q 450 111 422 96 q 497 155 478 127 q 517 215 517 183 l 517 477 q 515 550 517 526 q 507 588 513 574 q 489 611 501 602 q 449 628 477 620 l 449 673 l 713 673 l 713 198 q 715 123 713 146 q 723 85 717 99 q 743 61 729 71 q 788 45 756 52 l 788 0 l 604 -6 l 522 -6 l 528 92 l 519 94 q 407 12 456 35 q 307 -11 357 -11 q 192 16 235 -11 q 130 95 149 43 q 111 229 111 146 l 111 477 q 110 535 111 515 q 107 567 109 555 q 101 587 105 578 q 91 604 98 596 q 74 617 85 611 q 43 628 62 623 l 43 673 m 630 956 q 554 814 607 862 q 410 766 500 766 q 274 814 328 766 q 200 956 220 863 l 266 977 q 322 899 289 924 q 412 874 356 874 q 509 900 473 874 q 564 977 544 925 l 630 956 z "},"ů":{"ha":829,"x_min":43,"x_max":788,"o":"m 43 673 l 307 673 l 307 296 q 311 195 307 231 q 327 137 315 158 q 355 105 338 115 q 397 96 372 96 q 450 111 422 96 q 497 155 478 127 q 517 215 517 183 l 517 477 q 515 550 517 526 q 507 588 513 574 q 489 611 501 602 q 449 628 477 620 l 449 673 l 713 673 l 713 198 q 715 123 713 146 q 723 85 717 99 q 743 61 729 71 q 788 45 756 52 l 788 0 l 604 -6 l 522 -6 l 528 92 l 519 94 q 407 12 456 35 q 307 -11 357 -11 q 192 16 235 -11 q 130 95 149 43 q 111 229 111 146 l 111 477 q 110 535 111 515 q 107 567 109 555 q 101 587 105 578 q 91 604 98 596 q 74 617 85 611 q 43 628 62 623 l 43 673 m 411 735 q 294 771 334 735 q 254 876 254 807 q 276 956 254 923 q 335 1005 297 989 q 420 1021 372 1021 q 536 985 496 1021 q 575 882 575 949 q 532 773 575 810 q 411 735 489 735 m 336 880 q 356 812 336 836 q 416 787 376 787 q 474 810 454 787 q 494 874 494 833 q 473 944 494 920 q 415 968 452 968 q 356 945 376 968 q 336 880 336 922 z "},"ű":{"ha":829,"x_min":43,"x_max":788,"o":"m 43 673 l 307 673 l 307 296 q 311 195 307 231 q 327 137 315 158 q 355 105 338 115 q 397 96 372 96 q 450 111 422 96 q 497 155 478 127 q 517 215 517 183 l 517 477 q 515 550 517 526 q 507 588 513 574 q 489 611 501 602 q 449 628 477 620 l 449 673 l 713 673 l 713 198 q 715 123 713 146 q 723 85 717 99 q 743 61 729 71 q 788 45 756 52 l 788 0 l 604 -6 l 522 -6 l 528 92 l 519 94 q 407 12 456 35 q 307 -11 357 -11 q 192 16 235 -11 q 130 95 149 43 q 111 229 111 146 l 111 477 q 110 535 111 515 q 107 567 109 555 q 101 587 105 578 q 91 604 98 596 q 74 617 85 611 q 43 628 62 623 l 43 673 m 483 1000 l 483 956 l 267 737 l 214 782 l 376 1000 l 483 1000 m 699 1000 l 699 956 l 479 737 l 427 782 l 592 1000 l 699 1000 z "},"ų":{"ha":829,"x_min":43,"x_max":788,"o":"m 43 673 l 307 673 l 307 296 q 311 195 307 231 q 327 137 315 158 q 355 105 338 115 q 397 96 372 96 q 450 111 422 96 q 497 155 478 127 q 517 215 517 183 l 517 477 q 515 550 517 526 q 507 588 513 574 q 489 611 501 602 q 449 628 477 620 l 449 673 l 713 673 l 713 198 q 715 123 713 146 q 723 85 717 99 q 743 61 729 71 q 788 45 756 52 l 788 0 l 710 -3 q 654 -75 674 -36 q 633 -151 633 -113 q 649 -201 633 -184 q 693 -218 665 -218 q 729 -212 713 -218 q 756 -197 744 -205 l 782 -255 q 726 -284 758 -272 q 660 -296 695 -296 q 607 -289 633 -296 q 562 -269 582 -283 q 531 -231 543 -255 q 519 -174 519 -208 q 547 -85 519 -128 q 628 -4 574 -41 l 604 -6 l 522 -6 l 528 92 l 519 94 q 407 12 456 35 q 307 -11 357 -11 q 192 16 235 -11 q 130 95 149 43 q 111 229 111 146 l 111 477 q 110 535 111 515 q 107 567 109 555 q 101 587 105 578 q 91 604 98 596 q 74 617 85 611 q 43 628 62 623 l 43 673 z "},"ẁ":{"ha":1109,"x_min":18,"x_max":1108,"o":"m 679 -7 l 551 431 l 403 -7 l 266 -7 l 101 509 q 76 578 86 557 q 53 611 66 600 q 18 628 40 623 l 18 673 l 350 673 l 350 628 q 302 609 318 623 q 286 570 286 595 q 292 532 286 553 q 304 488 297 511 l 389 207 l 545 673 l 671 673 l 802 207 l 891 452 q 910 513 905 488 q 915 557 915 538 q 899 605 915 586 q 852 628 882 623 l 852 673 l 1108 673 l 1108 627 q 1077 613 1088 621 q 1056 591 1065 605 q 1033 549 1046 576 q 997 462 1021 522 l 814 -7 l 679 -7 m 557 1000 l 705 782 l 650 737 l 415 956 l 415 1000 l 557 1000 z "},"ẃ":{"ha":1109,"x_min":18,"x_max":1108,"o":"m 679 -7 l 551 431 l 403 -7 l 266 -7 l 101 509 q 76 578 86 557 q 53 611 66 600 q 18 628 40 623 l 18 673 l 350 673 l 350 628 q 302 609 318 623 q 286 570 286 595 q 292 532 286 553 q 304 488 297 511 l 389 207 l 545 673 l 671 673 l 802 207 l 891 452 q 910 513 905 488 q 915 557 915 538 q 899 605 915 586 q 852 628 882 623 l 852 673 l 1108 673 l 1108 627 q 1077 613 1088 621 q 1056 591 1065 605 q 1033 549 1046 576 q 997 462 1021 522 l 814 -7 l 679 -7 m 791 1000 l 791 956 l 556 737 l 502 782 l 650 1000 l 791 1000 z "},"ŵ":{"ha":1109,"x_min":18,"x_max":1108,"o":"m 679 -7 l 551 431 l 403 -7 l 266 -7 l 101 509 q 76 578 86 557 q 53 611 66 600 q 18 628 40 623 l 18 673 l 350 673 l 350 628 q 302 609 318 623 q 286 570 286 595 q 292 532 286 553 q 304 488 297 511 l 389 207 l 545 673 l 671 673 l 802 207 l 891 452 q 910 513 905 488 q 915 557 915 538 q 899 605 915 586 q 852 628 882 623 l 852 673 l 1108 673 l 1108 627 q 1077 613 1088 621 q 1056 591 1065 605 q 1033 549 1046 576 q 997 462 1021 522 l 814 -7 l 679 -7 m 667 996 l 806 783 l 754 738 l 607 886 l 600 886 l 450 738 l 398 783 l 549 996 l 667 996 z "},"ẅ":{"ha":1109,"x_min":18,"x_max":1108,"o":"m 679 -7 l 551 431 l 403 -7 l 266 -7 l 101 509 q 76 578 86 557 q 53 611 66 600 q 18 628 40 623 l 18 673 l 350 673 l 350 628 q 302 609 318 623 q 286 570 286 595 q 292 532 286 553 q 304 488 297 511 l 389 207 l 545 673 l 671 673 l 802 207 l 891 452 q 910 513 905 488 q 915 557 915 538 q 899 605 915 586 q 852 628 882 623 l 852 673 l 1108 673 l 1108 627 q 1077 613 1088 621 q 1056 591 1065 605 q 1033 549 1046 576 q 997 462 1021 522 l 814 -7 l 679 -7 m 549 935 l 549 786 l 407 786 l 407 935 l 549 935 m 797 935 l 797 786 l 655 786 l 655 935 l 797 935 z "},"ỳ":{"ha":737,"x_min":13,"x_max":741,"o":"m 400 -31 q 317 -185 356 -129 q 233 -269 278 -241 q 121 -296 188 -296 q 26 -283 70 -296 l 26 -128 l 102 -128 q 124 -172 111 -160 q 161 -184 137 -184 q 207 -170 186 -184 q 254 -116 228 -155 q 318 0 280 -77 l 279 0 l 102 509 q 72 583 83 563 q 47 613 61 603 q 13 628 33 624 l 13 673 l 351 673 l 351 628 q 304 610 319 622 q 290 573 290 597 q 307 488 290 541 l 405 192 l 513 452 q 533 509 526 484 q 540 557 540 534 q 524 605 540 586 q 477 628 507 623 l 477 673 l 741 673 l 741 627 q 710 612 722 621 q 687 589 698 604 q 662 547 677 575 q 621 462 647 519 l 400 -31 m 337 1000 l 485 782 l 431 737 l 195 956 l 195 1000 l 337 1000 z "},"ý":{"ha":737,"x_min":13,"x_max":741,"o":"m 400 -31 q 317 -185 356 -129 q 233 -269 278 -241 q 121 -296 188 -296 q 26 -283 70 -296 l 26 -128 l 102 -128 q 124 -172 111 -160 q 161 -184 137 -184 q 207 -170 186 -184 q 254 -116 228 -155 q 318 0 280 -77 l 279 0 l 102 509 q 72 583 83 563 q 47 613 61 603 q 13 628 33 624 l 13 673 l 351 673 l 351 628 q 304 610 319 622 q 290 573 290 597 q 307 488 290 541 l 405 192 l 513 452 q 533 509 526 484 q 540 557 540 534 q 524 605 540 586 q 477 628 507 623 l 477 673 l 741 673 l 741 627 q 710 612 722 621 q 687 589 698 604 q 662 547 677 575 q 621 462 647 519 l 400 -31 m 586 1000 l 586 956 l 351 737 l 296 782 l 444 1000 l 586 1000 z "},"ŷ":{"ha":737,"x_min":13,"x_max":741,"o":"m 400 -31 q 317 -185 356 -129 q 233 -269 278 -241 q 121 -296 188 -296 q 26 -283 70 -296 l 26 -128 l 102 -128 q 124 -172 111 -160 q 161 -184 137 -184 q 207 -170 186 -184 q 254 -116 228 -155 q 318 0 280 -77 l 279 0 l 102 509 q 72 583 83 563 q 47 613 61 603 q 13 628 33 624 l 13 673 l 351 673 l 351 628 q 304 610 319 622 q 290 573 290 597 q 307 488 290 541 l 405 192 l 513 452 q 533 509 526 484 q 540 557 540 534 q 524 605 540 586 q 477 628 507 623 l 477 673 l 741 673 l 741 627 q 710 612 722 621 q 687 589 698 604 q 662 547 677 575 q 621 462 647 519 l 400 -31 m 460 996 l 600 783 l 548 738 l 401 886 l 393 886 l 244 738 l 192 783 l 342 996 l 460 996 z "},"ÿ":{"ha":737,"x_min":13,"x_max":741,"o":"m 400 -31 q 317 -185 356 -129 q 233 -269 278 -241 q 121 -296 188 -296 q 26 -283 70 -296 l 26 -128 l 102 -128 q 124 -172 111 -160 q 161 -184 137 -184 q 207 -170 186 -184 q 254 -116 228 -155 q 318 0 280 -77 l 279 0 l 102 509 q 72 583 83 563 q 47 613 61 603 q 13 628 33 624 l 13 673 l 351 673 l 351 628 q 304 610 319 622 q 290 573 290 597 q 307 488 290 541 l 405 192 l 513 452 q 533 509 526 484 q 540 557 540 534 q 524 605 540 586 q 477 628 507 623 l 477 673 l 741 673 l 741 627 q 710 612 722 621 q 687 589 698 604 q 662 547 677 575 q 621 462 647 519 l 400 -31 m 343 935 l 343 786 l 201 786 l 201 935 l 343 935 m 591 935 l 591 786 l 450 786 l 450 935 l 591 935 z "},"ź":{"ha":665,"x_min":45,"x_max":621,"o":"m 273 72 l 416 72 q 468 85 447 72 q 507 130 490 98 q 538 218 524 161 l 621 218 l 621 0 l 45 0 l 45 45 l 392 601 l 257 601 q 205 590 224 601 q 169 553 185 579 q 132 467 153 528 l 50 467 l 50 673 l 621 673 l 621 628 l 273 72 m 519 1000 l 519 956 l 284 737 l 230 782 l 378 1000 l 519 1000 z "},"ž":{"ha":665,"x_min":45,"x_max":621,"o":"m 273 72 l 416 72 q 468 85 447 72 q 507 130 490 98 q 538 218 524 161 l 621 218 l 621 0 l 45 0 l 45 45 l 392 601 l 257 601 q 205 590 224 601 q 169 553 185 579 q 132 467 153 528 l 50 467 l 50 673 l 621 673 l 621 628 l 273 72 m 268 747 l 128 960 l 180 1005 l 328 857 l 335 857 l 484 1005 l 536 960 l 386 747 l 268 747 z "},"ż":{"ha":665,"x_min":45,"x_max":621,"o":"m 273 72 l 416 72 q 468 85 447 72 q 507 130 490 98 q 538 218 524 161 l 621 218 l 621 0 l 45 0 l 45 45 l 392 601 l 257 601 q 205 590 224 601 q 169 553 185 579 q 132 467 153 528 l 50 467 l 50 673 l 621 673 l 621 628 l 273 72 m 426 943 l 426 777 l 240 777 l 240 943 l 426 943 z "},"ŋ":{"ha":833,"x_min":50,"x_max":727,"o":"m 727 444 l 727 -12 q 711 -134 727 -83 q 662 -222 694 -185 q 578 -278 629 -258 q 456 -298 527 -298 q 321 -282 388 -298 l 321 -139 l 401 -139 q 424 -203 409 -180 q 469 -227 438 -227 q 519 -193 507 -227 q 531 -88 531 -159 l 531 376 q 529 455 531 425 q 523 506 527 486 q 510 539 518 526 q 493 561 503 552 q 471 573 484 569 q 440 577 459 577 q 387 561 414 577 q 340 517 359 545 q 321 457 321 489 l 321 196 q 325 106 321 132 q 341 67 329 81 q 386 45 354 52 l 386 0 l 58 0 l 58 45 q 103 68 91 54 q 120 106 116 82 q 125 195 125 131 l 125 474 q 123 548 125 524 q 115 587 121 572 q 95 611 109 602 q 50 627 82 620 l 50 673 l 235 678 l 321 678 l 311 581 l 319 578 q 393 637 361 616 q 459 671 425 659 q 533 684 494 684 q 625 668 589 684 q 685 621 662 652 q 717 547 707 591 q 727 444 727 503 z "},"ð":{"ha":794,"x_min":60,"x_max":728,"o":"m 621 903 l 523 852 q 676 659 625 776 q 728 377 728 541 q 643 84 728 180 q 384 -11 557 -11 q 143 72 226 -11 q 60 315 60 155 q 100 501 60 425 q 211 613 140 576 q 377 649 282 649 q 524 604 467 649 l 532 609 q 479 715 509 669 q 416 791 449 762 l 224 688 l 187 754 l 353 842 q 212 905 298 877 l 240 973 q 454 898 361 948 l 585 968 l 621 903 m 262 323 q 278 165 262 224 q 323 83 294 107 q 396 60 352 60 q 468 87 440 60 q 510 172 496 114 q 524 325 524 229 q 492 516 524 454 q 395 578 460 578 q 316 548 346 578 q 275 461 287 517 q 262 323 262 406 z "},"þ":{"ha":821,"x_min":31,"x_max":756,"o":"m 304 7 l 304 -121 q 309 -193 304 -172 q 329 -227 315 -214 q 378 -247 342 -239 l 378 -292 l 40 -292 l 40 -247 q 84 -226 72 -237 q 102 -194 97 -214 q 108 -121 108 -173 l 108 737 q 107 812 108 786 q 103 857 106 838 q 92 886 100 876 q 72 904 85 897 q 31 917 60 911 l 31 962 l 220 971 l 304 971 l 304 583 l 304 582 q 372 638 342 618 q 438 671 402 659 q 515 684 474 684 q 696 598 635 684 q 756 344 756 513 q 676 78 756 167 q 441 -11 597 -11 q 304 7 371 -11 m 304 222 q 333 99 304 139 q 422 60 361 60 q 517 125 484 60 q 550 312 550 191 q 521 511 550 446 q 430 577 492 577 q 370 563 399 577 q 322 519 341 549 q 304 448 304 489 l 304 222 z "},"ⁱ":{"ha":340,"x_min":48,"x_max":294,"o":"m 242 1165 l 242 1050 l 104 1050 l 104 1165 l 242 1165 m 54 604 q 86 616 77 608 q 98 638 95 625 q 101 687 101 651 l 101 883 q 97 917 101 905 q 84 935 94 928 q 48 946 75 941 l 48 988 l 182 994 l 246 994 l 246 688 q 248 642 246 653 q 255 623 250 631 q 269 611 260 616 q 294 604 278 607 l 294 562 l 54 562 l 54 604 z "},"ⁿ":{"ha":621,"x_min":48,"x_max":578,"o":"m 182 994 l 245 994 l 237 933 l 243 933 q 295 970 275 959 q 340 989 316 982 q 390 997 363 997 q 457 986 431 997 q 499 957 483 976 q 523 911 515 939 q 530 845 530 883 l 530 688 q 532 638 530 652 q 545 617 535 625 q 578 604 554 609 l 578 562 l 340 562 l 340 604 q 370 616 361 608 q 381 637 378 624 q 385 687 385 651 l 385 804 q 381 866 385 845 q 372 897 378 886 q 355 912 365 907 q 326 918 345 918 q 290 909 309 918 q 259 886 272 901 q 246 853 246 871 l 246 688 q 249 638 246 652 q 260 616 252 624 q 292 604 269 608 l 292 562 l 54 562 l 54 604 q 86 616 77 608 q 98 638 95 625 q 101 687 101 651 l 101 861 q 98 913 101 900 q 86 933 96 926 q 48 946 77 941 l 48 988 l 182 994 z "},"ﬀ":{"ha":906,"x_min":42,"x_max":1000,"o":"m 510 45 q 554 66 542 54 q 572 98 567 77 q 578 170 578 119 l 578 588 l 321 588 l 321 170 q 326 98 321 119 q 346 65 332 77 q 395 45 359 53 l 395 0 l 57 0 l 57 45 q 101 66 89 54 q 119 98 114 77 q 125 170 125 119 l 125 588 l 42 588 l 42 635 q 86 645 74 640 q 107 661 99 651 q 120 686 115 671 q 127 726 125 702 q 217 911 138 848 q 443 974 297 974 q 547 964 501 974 l 547 826 l 454 826 q 429 881 443 863 q 393 899 415 899 q 348 879 363 899 q 327 824 332 860 q 321 724 321 789 l 321 673 l 568 673 q 580 726 577 691 q 670 911 591 848 q 896 974 750 974 q 1000 964 954 974 l 1000 826 l 907 826 q 882 881 896 863 q 846 899 868 899 q 801 879 817 899 q 780 824 785 860 q 774 724 774 789 l 774 673 l 905 673 l 905 588 l 774 588 l 774 170 q 779 98 774 119 q 799 65 785 77 q 848 45 812 53 l 848 0 l 510 0 l 510 45 z "},"ﬁ":{"ha":890,"x_min":42,"x_max":842,"o":"m 57 45 q 101 66 89 54 q 119 98 114 77 q 125 170 125 119 l 125 588 l 42 588 l 42 635 q 86 645 74 640 q 107 661 99 651 q 120 686 115 671 q 127 726 125 702 q 217 911 138 848 q 443 974 297 974 q 518 968 476 974 l 518 837 l 442 837 q 390 899 434 899 q 348 878 363 899 q 327 820 332 857 q 321 724 321 782 l 321 673 l 452 673 l 452 588 l 321 588 l 321 170 q 326 98 321 119 q 346 65 332 77 q 395 45 359 53 l 395 0 l 57 0 l 57 45 m 768 943 l 768 777 l 583 777 l 583 943 l 768 943 m 511 45 q 556 68 544 54 q 573 106 569 82 q 578 195 578 131 l 578 511 q 575 564 578 544 q 563 597 572 585 q 540 615 555 609 q 503 627 526 622 l 503 673 l 689 678 l 774 678 l 774 196 q 775 137 774 158 q 778 105 776 117 q 784 85 780 94 q 793 69 787 77 q 811 56 800 62 q 842 45 823 50 l 842 0 l 511 0 l 511 45 z "},"ﬃ":{"ha":1343,"x_min":42,"x_max":1295,"o":"m 510 45 q 554 66 542 54 q 572 98 567 77 q 578 170 578 119 l 578 588 l 321 588 l 321 170 q 326 98 321 119 q 346 65 332 77 q 395 45 359 53 l 395 0 l 57 0 l 57 45 q 101 66 89 54 q 119 98 114 77 q 125 170 125 119 l 125 588 l 42 588 l 42 635 q 86 645 74 640 q 107 661 99 651 q 120 686 115 671 q 127 726 125 702 q 217 911 138 848 q 443 974 297 974 q 547 964 501 974 l 547 826 l 454 826 q 429 881 443 863 q 393 899 415 899 q 348 879 363 899 q 327 824 332 860 q 321 724 321 789 l 321 673 l 568 673 q 580 726 577 691 q 670 911 591 848 q 896 974 750 974 q 971 968 929 974 l 971 837 l 895 837 q 843 899 887 899 q 801 878 816 899 q 780 820 785 857 q 774 724 774 782 l 774 673 l 905 673 l 905 588 l 774 588 l 774 170 q 779 98 774 119 q 799 65 785 77 q 848 45 812 53 l 848 0 l 510 0 l 510 45 m 1221 943 l 1221 777 l 1036 777 l 1036 943 l 1221 943 m 964 45 q 1009 68 997 54 q 1026 106 1022 82 q 1031 195 1031 131 l 1031 511 q 1028 564 1031 544 q 1016 597 1025 585 q 993 615 1008 609 q 956 627 979 622 l 956 673 l 1142 678 l 1227 678 l 1227 196 q 1228 137 1227 158 q 1231 105 1229 117 q 1237 85 1233 94 q 1246 69 1240 77 q 1264 56 1253 62 q 1295 45 1276 50 l 1295 0 l 964 0 l 964 45 z "},"ﬂ":{"ha":881,"x_min":42,"x_max":833,"o":"m 765 196 q 769 107 765 132 q 786 68 773 83 q 833 45 798 54 l 833 0 l 500 0 l 500 45 q 532 56 521 50 q 550 71 544 62 q 562 93 557 79 q 568 129 566 106 q 569 196 569 153 l 569 725 q 566 838 569 806 q 554 886 564 869 q 522 909 544 902 l 522 837 l 438 837 q 389 899 429 899 q 337 859 353 899 q 321 724 321 820 l 321 673 l 452 673 l 452 588 l 321 588 l 321 170 q 326 98 321 119 q 346 65 332 77 q 395 45 359 53 l 395 0 l 57 0 l 57 45 q 101 66 89 54 q 119 98 114 77 q 125 170 125 119 l 125 588 l 42 588 l 42 635 q 86 645 74 640 q 107 661 99 651 q 120 686 115 671 q 127 726 125 702 q 217 911 138 848 q 443 974 297 974 q 522 967 478 974 l 522 963 l 680 971 l 765 971 l 765 196 z "},"ﬄ":{"ha":1334,"x_min":42,"x_max":1286,"o":"m 510 45 q 554 66 542 54 q 572 98 567 77 q 578 170 578 119 l 578 588 l 321 588 l 321 170 q 326 98 321 119 q 346 65 332 77 q 395 45 359 53 l 395 0 l 57 0 l 57 45 q 101 66 89 54 q 119 98 114 77 q 125 170 125 119 l 125 588 l 42 588 l 42 635 q 86 645 74 640 q 107 661 99 651 q 120 686 115 671 q 127 726 125 702 q 217 911 138 848 q 443 974 297 974 q 547 964 501 974 l 547 826 l 454 826 q 429 881 443 863 q 393 899 415 899 q 348 879 363 899 q 327 824 332 860 q 321 724 321 789 l 321 673 l 568 673 q 580 726 577 691 q 670 911 591 848 q 896 974 750 974 q 971 968 929 974 l 971 963 l 1133 971 l 1218 971 l 1218 196 q 1222 107 1218 132 q 1239 68 1226 83 q 1286 45 1251 54 l 1286 0 l 954 0 l 954 45 q 985 56 974 50 q 1003 71 997 62 q 1015 93 1010 79 q 1021 129 1019 106 q 1022 196 1022 153 l 1022 752 q 1020 837 1022 809 q 1014 878 1019 864 q 1001 901 1010 892 q 971 913 991 909 l 971 837 l 895 837 q 843 899 887 899 q 801 878 816 899 q 780 820 785 857 q 774 724 774 782 l 774 673 l 905 673 l 905 588 l 774 588 l 774 170 q 779 98 774 119 q 799 65 785 77 q 848 45 812 53 l 848 0 l 510 0 l 510 45 z "},"&":{"ha":1027,"x_min":56,"x_max":1024,"o":"m 635 76 q 496 8 564 27 q 341 -11 429 -11 q 131 47 205 -11 q 56 210 56 104 q 65 273 56 244 q 91 329 74 302 q 134 379 108 355 q 194 428 159 404 q 291 484 229 451 q 236 568 252 536 q 210 634 219 600 q 201 705 201 667 q 239 824 201 772 q 347 907 276 877 q 500 937 417 937 q 673 892 610 937 q 736 762 736 847 q 727 704 736 731 q 696 649 718 677 q 638 592 674 621 q 516 513 602 564 q 621 385 559 457 q 727 265 683 313 q 772 337 758 302 q 787 409 787 372 q 771 460 787 444 q 723 477 756 475 l 723 522 l 935 522 l 935 483 q 928 445 935 474 q 918 408 924 427 q 905 372 913 389 q 888 336 898 353 q 868 302 879 319 q 844 269 857 285 q 816 235 831 252 q 784 204 800 219 q 836 149 814 170 q 875 120 858 129 q 909 111 892 111 q 940 118 926 111 q 980 148 954 125 l 1024 92 q 922 14 970 38 q 821 -11 873 -11 q 724 10 765 -11 q 635 76 682 31 m 467 580 q 567 667 534 621 q 600 762 600 714 q 574 839 600 810 q 508 867 549 867 q 456 853 479 867 q 418 813 432 840 q 404 745 404 785 q 418 666 404 703 q 467 580 433 629 m 571 140 q 449 283 519 199 q 343 414 380 367 q 283 343 302 382 q 264 256 264 304 q 307 141 264 182 q 425 100 350 100 q 502 110 469 100 q 571 140 535 119 z "},"`":{"ha":395,"x_min":37,"x_max":326,"o":"m 178 1000 l 326 782 l 272 737 l 37 956 l 37 1000 l 178 1000 z "},"̀":{"ha":0,"x_min":-401,"x_max":-111,"o":"m -259 1000 l -111 782 l -165 737 l -401 956 l -401 1000 l -259 1000 z "},"´":{"ha":395,"x_min":71,"x_max":361,"o":"m 361 1000 l 361 956 l 125 737 l 71 782 l 219 1000 l 361 1000 z "},"́":{"ha":0,"x_min":-321,"x_max":-31,"o":"m -31 1000 l -31 956 l -267 737 l -321 782 l -173 1000 l -31 1000 z "},"ˆ":{"ha":395,"x_min":-7,"x_max":401,"o":"m 262 996 l 401 783 l 349 738 l 202 886 l 195 886 l 45 738 l -7 783 l 144 996 l 262 996 z "},"̂":{"ha":0,"x_min":-422,"x_max":-14,"o":"m -153 996 l -14 783 l -66 738 l -213 886 l -220 886 l -370 738 l -422 783 l -271 996 l -153 996 z "},"ˇ":{"ha":395,"x_min":-7,"x_max":401,"o":"m 133 747 l -7 960 l 45 1005 l 193 857 l 200 857 l 349 1005 l 401 960 l 251 747 l 133 747 z "},"̌":{"ha":0,"x_min":-422,"x_max":-14,"o":"m -282 747 l -422 960 l -370 1005 l -222 857 l -215 857 l -66 1005 l -14 960 l -164 747 l -282 747 z "},"̕":{"ha":395,"x_min":81,"x_max":271,"o":"m 256 970 q 271 883 271 926 q 239 779 271 827 q 125 669 206 730 l 81 711 q 123 778 111 744 q 135 869 135 812 q 133 909 135 890 q 124 970 132 928 l 256 970 z "},"˜":{"ha":395,"x_min":-41,"x_max":437,"o":"m 373 951 l 437 923 q 362 805 398 843 q 288 766 326 766 q 242 773 263 766 q 183 807 222 781 q 150 828 161 822 q 127 838 138 835 q 104 842 116 842 q 77 836 89 842 q 51 813 65 830 q 22 766 37 797 l -41 794 q 12 886 -9 856 q 57 934 33 917 q 110 951 81 951 q 141 947 126 951 q 169 937 155 944 q 208 913 182 930 q 244 889 233 896 q 268 879 256 882 q 294 876 279 876 q 335 893 317 876 q 373 951 353 911 z "},"̃":{"ha":0,"x_min":-457,"x_max":21,"o":"m -43 951 l 21 923 q -54 805 -18 843 q -127 766 -90 766 q -173 773 -153 766 q -233 807 -194 781 q -266 828 -254 822 q -289 838 -277 835 q -311 842 -300 842 q -339 836 -327 842 q -365 813 -351 830 q -394 766 -378 797 l -457 794 q -404 886 -425 856 q -359 934 -382 917 q -306 951 -335 951 q -275 947 -290 951 q -247 937 -260 944 q -208 913 -233 930 q -171 889 -183 896 q -148 879 -159 882 q -122 876 -137 876 q -80 893 -98 876 q -43 951 -62 911 z "},"¨":{"ha":395,"x_min":3,"x_max":393,"o":"m 144 935 l 144 786 l 3 786 l 3 935 l 144 935 m 393 935 l 393 786 l 251 786 l 251 935 l 393 935 z "},"̈":{"ha":0,"x_min":-412,"x_max":-22,"o":"m -271 935 l -271 786 l -412 786 l -412 935 l -271 935 m -22 935 l -22 786 l -164 786 l -164 935 l -22 935 z "},"¯":{"ha":395,"x_min":6,"x_max":389,"o":"m 389 808 l 6 808 l 6 913 l 389 913 l 389 808 z "},"̄":{"ha":0,"x_min":-411,"x_max":-28,"o":"m -28 808 l -411 808 l -411 913 l -28 913 l -28 808 z "},"˘":{"ha":395,"x_min":-17,"x_max":413,"o":"m 413 956 q 337 814 390 862 q 193 766 283 766 q 57 814 111 766 q -17 956 3 863 l 49 977 q 105 899 72 924 q 195 874 139 874 q 292 900 256 874 q 347 977 327 925 l 413 956 z "},"̆":{"ha":0,"x_min":-433,"x_max":-3,"o":"m -3 956 q -79 814 -26 862 q -223 766 -132 766 q -359 814 -305 766 q -433 956 -413 863 l -367 977 q -310 899 -344 924 q -220 874 -277 874 q -124 900 -159 874 q -68 977 -89 925 l -3 956 z "},"˚":{"ha":395,"x_min":37,"x_max":358,"o":"m 194 735 q 77 771 117 735 q 37 876 37 807 q 59 956 37 923 q 118 1005 80 989 q 203 1021 155 1021 q 319 985 279 1021 q 358 882 358 949 q 315 773 358 810 q 194 735 272 735 m 119 880 q 139 812 119 836 q 199 787 159 787 q 257 810 237 787 q 277 874 277 833 q 256 944 277 920 q 198 968 235 968 q 139 945 159 968 q 119 880 119 922 z "},"̊":{"ha":0,"x_min":-378,"x_max":-58,"o":"m -222 735 q -338 771 -298 735 q -378 876 -378 807 q -357 956 -378 923 q -298 1005 -336 989 q -213 1021 -260 1021 q -97 985 -136 1021 q -58 882 -58 949 q -101 773 -58 810 q -222 735 -144 735 m -297 880 q -277 812 -297 836 q -216 787 -256 787 q -159 810 -179 787 q -139 874 -139 833 q -160 944 -139 920 q -218 968 -181 968 q -277 945 -257 968 q -297 880 -297 922 z "},"˝":{"ha":395,"x_min":-18,"x_max":466,"o":"m 250 1000 l 250 956 l 34 737 l -18 782 l 144 1000 l 250 1000 m 466 1000 l 466 956 l 247 737 l 195 782 l 359 1000 l 466 1000 z "},"̋":{"ha":0,"x_min":-417,"x_max":67,"o":"m -149 1000 l -149 956 l -365 737 l -417 782 l -255 1000 l -149 1000 m 67 1000 l 67 956 l -152 737 l -204 782 l -39 1000 l 67 1000 z "},"˙":{"ha":395,"x_min":104,"x_max":290,"o":"m 290 943 l 290 777 l 104 777 l 104 943 l 290 943 z "},"̇":{"ha":0,"x_min":-311,"x_max":-125,"o":"m -125 943 l -125 777 l -311 777 l -311 943 l -125 943 z "},"¸":{"ha":395,"x_min":36,"x_max":357,"o":"m 357 21 l 260 -46 q 278 -84 272 -62 q 283 -134 283 -107 q 221 -244 283 -203 q 47 -292 159 -286 l 36 -227 q 117 -200 92 -219 q 142 -141 142 -181 q 139 -98 142 -116 l 139 -69 l 323 54 l 357 21 z "},"̧":{"ha":0,"x_min":-364,"x_max":-43,"o":"m -43 21 l -140 -46 q -122 -84 -128 -62 q -117 -134 -117 -107 q -179 -244 -117 -203 q -353 -292 -241 -286 l -364 -227 q -283 -200 -309 -219 q -258 -141 -258 -181 q -261 -98 -258 -116 l -261 -69 l -77 54 l -43 21 z "},"˛":{"ha":395,"x_min":99,"x_max":362,"o":"m 297 3 q 235 -72 257 -32 q 214 -151 214 -113 q 230 -201 214 -184 q 273 -218 245 -218 q 309 -212 294 -218 q 336 -197 324 -205 l 362 -255 q 307 -284 338 -272 q 240 -296 275 -296 q 188 -289 213 -296 q 142 -269 162 -283 q 111 -231 123 -255 q 99 -174 99 -208 q 130 -79 99 -125 q 220 3 161 -33 l 297 3 z "},"̨":{"ha":0,"x_min":-317,"x_max":-54,"o":"m -119 3 q -180 -72 -159 -32 q -202 -151 -202 -113 q -186 -201 -202 -184 q -142 -218 -170 -218 q -107 -212 -122 -218 q -79 -197 -92 -205 l -54 -255 q -109 -284 -78 -272 q -176 -296 -140 -296 q -228 -289 -203 -296 q -273 -269 -254 -283 q -305 -231 -293 -255 q -317 -174 -317 -208 q -286 -79 -317 -125 q -196 3 -254 -33 l -119 3 z "},"̦":{"ha":0,"x_min":-357,"x_max":-110,"o":"m -121 -69 q -110 -134 -110 -98 q -172 -244 -110 -203 q -347 -292 -234 -286 l -357 -227 q -293 -210 -315 -220 q -261 -182 -271 -200 q -251 -132 -251 -163 q -256 -69 -251 -101 l -121 -69 z "},",":{"ha":322,"x_min":16,"x_max":259,"o":"m 246 205 q 256 143 252 177 q 259 82 259 109 q 241 -18 259 26 q 182 -103 222 -61 q 68 -197 142 -146 l 16 -138 q 62 -84 45 -113 q 86 -21 79 -56 q 93 66 93 14 q 85 205 93 127 l 246 205 z "},";":{"ha":389,"x_min":43,"x_max":286,"o":"m 286 633 l 286 428 l 103 428 l 103 633 l 286 633 m 273 205 q 282 143 279 177 q 286 82 286 109 q 267 -18 286 26 q 209 -103 249 -61 q 95 -197 168 -146 l 43 -138 q 89 -84 72 -113 q 112 -21 105 -56 q 119 66 119 14 q 111 205 119 127 l 273 205 m 205 673 z "},":":{"ha":389,"x_min":103,"x_max":286,"o":"m 286 633 l 286 428 l 103 428 l 103 633 l 286 633 m 286 205 l 286 0 l 103 0 l 103 205 l 286 205 m 205 673 z "},".":{"ha":322,"x_min":70,"x_max":252,"o":"m 252 205 l 252 0 l 70 0 l 70 205 l 252 205 z "},"…":{"ha":1073,"x_min":156,"x_max":1003,"o":"m 338 205 l 338 0 l 156 0 l 156 205 l 338 205 m 671 205 l 671 0 l 488 0 l 488 205 l 671 205 m 1003 205 l 1003 0 l 821 0 l 821 205 l 1003 205 z "},"-":{"ha":468,"x_min":73,"x_max":395,"o":"m 395 299 l 73 299 l 73 441 l 395 441 l 395 299 z "},"!":{"ha":465,"x_min":121,"x_max":351,"o":"m 351 926 l 289 302 l 175 302 l 121 926 l 351 926 m 323 205 l 323 0 l 141 0 l 141 205 l 323 205 z "},"¡":{"ha":465,"x_min":115,"x_max":344,"o":"m 142 468 l 142 673 l 323 673 l 323 468 l 142 468 m 115 -253 l 176 370 l 290 370 l 344 -253 l 115 -253 z "},"?":{"ha":627,"x_min":61,"x_max":580,"o":"m 214 302 l 214 310 q 221 364 214 340 q 247 419 229 387 q 302 505 265 451 q 365 622 346 568 q 383 726 383 675 q 371 812 383 781 q 338 854 358 843 q 292 866 318 866 q 221 834 247 866 q 188 743 196 802 l 61 743 l 61 870 q 206 923 150 909 q 323 937 262 937 q 471 912 413 937 q 554 845 529 887 q 580 749 580 804 q 572 685 580 715 q 546 625 564 654 q 499 562 528 595 q 420 474 471 528 q 369 412 386 437 q 344 362 351 386 q 336 309 336 339 l 336 302 l 214 302 m 368 205 l 368 0 l 186 0 l 186 205 l 368 205 z "},"¿":{"ha":627,"x_min":47,"x_max":566,"o":"m 259 468 l 259 673 l 441 673 l 441 468 l 259 468 m 413 370 l 413 363 q 407 314 413 336 q 384 260 401 292 q 325 168 367 229 q 264 54 284 109 q 244 -54 244 0 q 257 -139 244 -109 q 289 -182 269 -170 q 336 -193 309 -193 q 406 -161 380 -193 q 439 -70 431 -130 l 566 -70 l 566 -197 q 420 -250 476 -237 q 304 -264 363 -264 q 157 -239 215 -264 q 73 -173 99 -215 q 47 -77 47 -132 q 56 -12 47 -42 q 82 48 64 18 q 128 111 100 78 q 207 199 156 144 q 258 261 241 235 q 283 311 276 287 q 291 364 291 334 l 291 370 l 413 370 z "},"‘":{"ha":326,"x_min":60,"x_max":285,"o":"m 76 636 q 60 739 60 690 q 99 866 60 809 q 230 986 138 923 l 285 928 q 238 852 253 894 q 222 755 222 810 q 225 695 222 723 q 235 636 229 667 l 76 636 z "},"’":{"ha":326,"x_min":41,"x_max":266,"o":"m 250 971 q 266 869 266 918 q 248 778 266 819 q 193 700 229 737 q 96 621 157 663 l 41 680 q 89 755 73 713 q 104 852 104 797 q 101 912 104 884 q 92 971 98 941 l 250 971 z "},"“":{"ha":553,"x_min":60,"x_max":511,"o":"m 75 642 q 60 742 60 695 q 97 869 60 812 q 216 985 134 925 l 267 928 q 223 852 237 894 q 210 758 210 811 q 213 699 210 726 q 221 642 216 671 l 75 642 m 319 642 q 304 742 304 695 q 341 869 304 812 q 460 985 378 925 l 511 928 q 468 852 481 894 q 454 758 454 811 q 457 699 454 726 q 465 642 460 671 l 319 642 z "},"”":{"ha":553,"x_min":41,"x_max":492,"o":"m 478 971 q 492 871 492 918 q 455 744 492 800 q 336 628 418 688 l 286 685 q 329 760 315 718 q 343 854 343 801 q 340 914 343 886 q 332 971 336 942 l 478 971 m 234 971 q 248 871 248 918 q 211 744 248 800 q 92 628 174 688 l 41 685 q 85 760 71 718 q 99 854 99 801 q 96 914 99 886 q 87 971 92 942 l 234 971 z "},"‚":{"ha":322,"x_min":33,"x_max":258,"o":"m 242 185 q 258 83 258 132 q 239 -8 258 33 q 185 -86 221 -49 q 88 -165 149 -123 l 33 -106 q 80 -31 65 -73 q 96 66 96 11 q 93 126 96 98 q 83 185 90 155 l 242 185 z "},"„":{"ha":549,"x_min":33,"x_max":484,"o":"m 470 185 q 484 85 484 132 q 447 -42 484 14 q 328 -158 410 -98 l 277 -101 q 321 -26 307 -68 q 335 68 335 15 q 332 128 335 100 q 323 185 328 156 l 470 185 m 226 185 q 240 85 240 132 q 203 -42 240 14 q 84 -158 166 -98 l 33 -101 q 77 -26 63 -68 q 91 68 91 15 q 87 128 91 100 q 79 185 84 156 l 226 185 z "},"‹":{"ha":446,"x_min":60,"x_max":385,"o":"m 385 87 l 321 40 l 60 302 l 60 388 l 321 650 l 385 603 l 233 345 l 385 87 z "},"›":{"ha":446,"x_min":60,"x_max":385,"o":"m 60 604 l 124 650 l 385 388 l 385 302 l 124 40 l 60 87 l 213 345 l 60 604 z "},"«":{"ha":725,"x_min":60,"x_max":665,"o":"m 372 87 l 308 40 l 60 302 l 60 388 l 308 650 l 372 603 l 219 345 l 372 87 m 665 87 l 601 40 l 353 302 l 353 388 l 601 650 l 665 603 l 512 345 l 665 87 z "},"»":{"ha":725,"x_min":60,"x_max":665,"o":"m 353 604 l 417 650 l 665 388 l 665 302 l 417 40 l 353 87 l 506 345 l 353 604 m 60 604 l 124 650 l 372 388 l 372 302 l 124 40 l 60 87 l 213 345 l 60 604 z "},"/":{"ha":702,"x_min":39,"x_max":663,"o":"m 663 970 l 173 -292 l 39 -292 l 530 970 l 663 970 z "},"|":{"ha":445,"x_min":157,"x_max":288,"o":"m 288 -292 l 157 -292 l 157 970 l 288 970 l 288 -292 z "},"–":{"ha":694,"x_min":61,"x_max":633,"o":"m 633 307 l 61 307 l 61 430 l 633 430 l 633 307 z "},"—":{"ha":1389,"x_min":61,"x_max":1328,"o":"m 1328 307 l 61 307 l 61 430 l 1328 430 l 1328 307 z "},"―":{"ha":1042,"x_min":61,"x_max":981,"o":"m 981 307 l 61 307 l 61 430 l 981 430 l 981 307 z "},"•":{"ha":616,"x_min":101,"x_max":514,"o":"m 305 190 q 198 217 245 190 q 126 291 152 243 q 101 398 101 339 q 128 500 101 454 q 203 575 155 547 q 311 603 252 603 q 417 577 371 603 q 489 504 464 551 q 514 397 514 457 q 487 291 514 338 q 413 217 460 243 q 305 190 365 190 z "},"·":{"ha":383,"x_min":92,"x_max":292,"o":"m 292 568 l 292 353 l 92 353 l 92 568 l 292 568 z "},"(":{"ha":567,"x_min":115,"x_max":538,"o":"m 538 -295 q 329 -260 410 -295 q 202 -156 248 -226 q 136 28 157 -85 q 115 336 115 141 q 136 647 115 533 q 202 832 157 762 q 330 938 248 903 q 538 973 412 973 l 538 899 q 462 890 494 899 q 405 857 429 881 q 359 774 376 827 q 329 607 338 712 q 319 342 319 501 q 328 93 319 195 q 357 -83 337 -16 q 399 -168 374 -138 q 450 -206 420 -193 q 538 -220 484 -220 l 538 -295 z "},")":{"ha":567,"x_min":29,"x_max":452,"o":"m 29 973 q 236 939 155 973 q 363 836 317 905 q 431 653 410 766 q 452 342 452 539 q 431 31 452 145 q 365 -154 410 -83 q 237 -260 319 -225 q 29 -295 155 -295 l 29 -220 q 105 -212 73 -220 q 162 -178 138 -203 q 208 -96 191 -149 q 238 72 229 -34 q 248 336 248 177 q 239 585 248 484 q 210 761 230 694 q 168 846 193 816 q 117 884 146 871 q 29 899 83 899 l 29 973 z "},"[":{"ha":511,"x_min":131,"x_max":481,"o":"m 481 -292 l 131 -292 l 131 970 l 481 970 l 481 897 l 323 897 l 323 -218 l 481 -218 l 481 -292 z "},"]":{"ha":511,"x_min":29,"x_max":380,"o":"m 29 -218 l 187 -218 l 187 897 l 29 897 l 29 970 l 380 970 l 380 -292 l 29 -292 l 29 -218 z "},"{":{"ha":545,"x_min":54,"x_max":516,"o":"m 500 -292 q 307 -266 378 -292 q 205 -186 236 -239 q 174 -43 174 -133 l 174 150 q 161 242 174 209 q 123 289 149 275 q 54 302 98 302 l 54 376 q 123 390 98 376 q 161 436 149 403 q 174 528 174 469 l 174 722 q 205 864 174 811 q 307 944 236 918 q 500 970 378 970 l 516 970 l 516 897 q 442 889 468 897 q 400 865 416 882 q 376 813 385 848 q 367 713 367 778 l 367 586 q 353 475 367 519 q 307 398 340 430 q 217 345 274 366 l 217 333 q 308 279 274 313 q 354 200 342 245 q 367 92 367 156 l 367 -35 q 372 -118 367 -86 q 387 -168 378 -150 q 411 -196 397 -186 q 448 -213 425 -207 q 516 -218 471 -218 l 516 -292 l 500 -292 z "},"}":{"ha":545,"x_min":29,"x_max":492,"o":"m 45 970 q 238 944 168 970 q 340 864 309 918 q 371 722 371 811 l 371 528 q 384 436 371 469 q 422 390 397 403 q 492 376 448 376 l 492 302 q 422 289 448 302 q 384 242 397 275 q 371 150 371 209 l 371 -43 q 340 -186 371 -133 q 238 -266 309 -239 q 45 -292 168 -292 l 29 -292 l 29 -218 q 97 -213 74 -218 q 134 -196 120 -207 q 158 -168 149 -186 q 173 -118 168 -150 q 178 -35 178 -86 l 178 92 q 192 203 178 159 q 238 280 205 248 q 328 333 271 312 l 328 345 q 237 399 271 366 q 191 478 203 433 q 178 586 178 522 l 178 713 q 173 796 178 764 q 158 846 168 828 q 134 874 149 864 q 97 891 120 885 q 29 897 74 897 l 29 970 l 45 970 z "},"*":{"ha":629,"x_min":46,"x_max":583,"o":"m 379 427 l 249 427 l 284 646 l 111 507 l 46 619 l 253 699 l 47 778 l 112 890 l 284 751 l 250 971 l 379 971 l 345 752 l 517 890 l 582 779 l 375 699 l 583 618 l 517 507 l 345 646 l 379 427 z "},"†":{"ha":718,"x_min":68,"x_max":649,"o":"m 302 533 l 114 481 l 68 481 l 68 656 l 114 656 l 312 604 l 265 892 l 265 937 l 452 937 l 452 892 l 406 604 l 604 656 l 649 656 l 649 481 l 604 481 l 416 533 l 416 -208 l 302 -208 l 302 533 z "},"‡":{"ha":718,"x_min":68,"x_max":649,"o":"m 416 210 l 604 262 l 649 262 l 649 87 l 604 87 l 406 139 l 452 -149 l 452 -193 l 265 -193 l 265 -149 l 312 139 l 114 87 l 68 87 l 68 262 l 114 262 l 302 210 l 302 533 l 114 481 l 68 481 l 68 656 l 114 656 l 312 604 l 265 892 l 265 937 l 452 937 l 452 892 l 406 604 l 604 656 l 649 656 l 649 481 l 604 481 l 416 533 l 416 210 z "}}}
